<?xml version="1.0" encoding="utf-8"?>
<!-- Generator: Adobe Illustrator 25.4.1, SVG Export Plug-In . SVG Version: 6.00 Build 0)  -->
<svg version="1.1" id="Layer_2" xmlns="http://www.w3.org/2000/svg" xmlns:xlink="http://www.w3.org/1999/xlink" x="0px" y="0px"
	 viewBox="0 0 360 156" style="enable-background:new 0 0 360 156;" xml:space="preserve">
<style type="text/css">
	.st0{fill:#FE8A2C;}
</style>
<g>
	<rect x="180" y="89" width="1" height="1"/>
	<rect x="178" y="89" width="1" height="1"/>
	<rect x="177" y="89" class="st0" width="1" height="1"/>
	<rect x="176" y="89" width="1" height="1"/>
	<rect x="175" y="89" class="st0" width="1" height="1"/>
	<rect x="174" y="89" width="1" height="1"/>
	<rect x="173" y="89" class="st0" width="1" height="1"/>
	<rect x="154" y="89" width="1" height="1"/>
	<rect x="148" y="89" width="1" height="1"/>
	<rect x="209" y="88" width="1" height="1"/>
	<rect x="207" y="88" width="1" height="1"/>
	<rect x="205" y="88" width="1" height="1"/>
	<rect x="203" y="88" width="1" height="1"/>
	<rect x="201" y="88" width="1" height="1"/>
	<rect x="199" y="88" width="1" height="1"/>
	<rect x="177" y="88" width="1" height="1"/>
	<rect x="176" y="88" class="st0" width="1" height="1"/>
	<rect x="175" y="88" width="1" height="1"/>
	<rect x="174" y="88" class="st0" width="1" height="1"/>
	<path d="M174,89v-1h-1v-1h1v-1h1v-1h-1v-1h1v-1h-1c0-1.6,0-3.4,0-5h-1c0,0.9,0,2.1,0,3h-1v1h1v1h-1v1h1v1h-1v1h-1v-1h-1v1h-1v-1h1
		v-1h-1v-1h1v-1h-1v-1h-1v1h-1v1h-1v1h1v1h-1v1h-1v1h1v1h-1v1h-1v1c3,0,6,0,9,0v-1H174z"/>
	<path class="st0" d="M165,89v-1h1v-1h-1v-1c-0.5,0-1.5,0-2,0c0,0.5,0,1.5,0,2h-1v1h-1v1c0.9,0,2.1,0,3,0v-1H165z"/>
	<path d="M162,89v-1h1c0-0.5,0-1.5,0-2c0.5,0,1.5,0,2,0v-1h1v-1h-1v-1h-1v1h-1v-1h1v-1h1v-1h1v-1h-1v-1h-1v-1h-1v1h-1v-1h-1v1h-1v-1
		h-1v-1h1v-1h-1v-1h-1v-1h1v-1h1v-1h1v1h1v-1h1v1h1v1h1v-1h1v-1h1c0-1.6,0-3.4,0-5h-1v-1h-1v-1h-1v1h-1v1h-1v-1h-1v1h-1v1
		c1.6,0,3.4,0,5,0c0,0.5,0,1.5,0,2h-1v1c-1.6,0-3.4,0-5,0v1c-0.5,0-1.5,0-2,0v1h-1v1h-1v1h1v1h1c0,0.5,0,1.5,0,2h-1v1h-1v1h-1v1
		c-0.5,0-1.5,0-2,0v1h-1v1c-0.5,0-1.5,0-2,0v1c-0.5,0-1.5,0-2,0v1c-0.5,0-1.5,0-2,0v1c-0.5,0-1.5,0-2,0v1c-0.9,0-2.1,0-3,0v1
		c-0.9,0-2.1,0-3,0v1c-0.9,0-2.1,0-3,0v-1c-0.5,0-1.5,0-2,0v1c-1.3,0-2.7,0-4,0v1c4.3,0,8.7,0,13,0v-1c0.9,0,2.1,0,3,0v-1
		c0.5,0,1.5,0,2,0v-1c0.5,0,1.5,0,2,0v-1c0.5,0,1.5,0,2,0v-1h1v-1c0.5,0,1.5,0,2,0v-1c0.5,0,1.5,0,2,0v-1h1v-1h1v-1h1
		c0,0.5,0,1.5,0,2h-1v1h-1v1c0.5,0,1.5,0,2,0c0,0.5,0,1.5,0,2h-1v1c0.5,0,1.5,0,2,0v-1h1v-1h1v1h1v1h-1v1h-1v1h-1v1c0.5,0,1.5,0,2,0
		v-1H162z"/>
	<path class="st0" d="M160,89v-1h1v-1h1v-1h-1v-1h-1v1h-1v1c-0.5,0-1.5,0-2,0v1h-1v1h-1v1c1.3,0,2.7,0,4,0v-1H160z"/>
	<rect x="155" y="88" width="1" height="1"/>
	<path class="st0" d="M155,89v-1h1v-1h1v-1h1c0-0.5,0-1.5,0-2c-0.5,0-1.5,0-2,0v1h-1v1c-0.5,0-1.5,0-2,0v1h-1v1h-1v1
		c-0.5,0-1.5,0-2,0v1c1.6,0,3.4,0,5,0v-1H155z"/>
	<path d="M149,88v1c0.5,0,1.5,0,2,0v-1C150.5,88,149.5,88,149,88z"/>
	<path class="st0" d="M149,89v-1c0.5,0,1.5,0,2,0v-1h1v-1h1v-1c0.5,0,1.5,0,2,0v-1h1v-1h1v-1h1c0-0.5,0-1.5,0-2h-1v1h-1v1h-1v1
		c-0.5,0-1.5,0-2,0v1c-0.5,0-1.5,0-2,0v1h-1v1c-0.5,0-1.5,0-2,0v1c-0.5,0-1.5,0-2,0v1c-0.5,0-1.5,0-2,0v1c-0.9,0-2.1,0-3,0v1
		c2.3,0,4.7,0,7,0v-1H149z"/>
	<path class="st0" d="M129,89c0.9,0,2.1,0,3,0v-1c0.5,0,1.5,0,2,0v-1c0.5,0,1.5,0,2,0v-1c0.5,0,1.5,0,2,0v-1c0.5,0,1.5,0,2,0v-1
		c0.5,0,1.5,0,2,0v-1h1v-1c0.5,0,1.5,0,2,0v-1c0.5,0,1.5,0,2,0v-1c0.5,0,1.5,0,2,0v-1c0.5,0,1.5,0,2,0v-1h1v-1h1v-1h1v-1h1v-1h1v-1
		h1v-1c0.5,0,1.5,0,2,0v-1c1.6,0,3.4,0,5,0v-1h1c0-0.5,0-1.5,0-2c-1.6,0-3.4,0-5,0v1c-0.5,0-1.5,0-2,0v1c-0.5,0-1.5,0-2,0v1h-1v1h-1
		v1h-1v1h-1v1h-1v1c-0.5,0-1.5,0-2,0v1c-0.5,0-1.5,0-2,0v1c-0.5,0-1.5,0-2,0v1c-0.5,0-1.5,0-2,0v1c-0.5,0-1.5,0-2,0v1
		c-0.9,0-2.1,0-3,0v1c-0.9,0-2.1,0-3,0v1c-1.3,0-2.7,0-4,0v1c-1.6,0-3.4,0-5,0v1c-0.9,0-2.1,0-3,0v1c-2.3,0-4.7,0-7,0v1
		c-7,0-14,0-21,0v-1c-0.5,0-1.5,0-2,0c0,1.3,0,2.7,0,4c11.7,0,23.3,0,35,0v-1H129z"/>
	<rect x="212" y="87" width="1" height="1"/>
	<rect x="210" y="87" width="1" height="1"/>
	<rect x="209" y="87" class="st0" width="1" height="1"/>
	<rect x="208" y="87" width="1" height="1"/>
	<rect x="207" y="87" class="st0" width="1" height="1"/>
	<rect x="206" y="87" width="1" height="1"/>
	<rect x="205" y="87" class="st0" width="1" height="1"/>
	<rect x="203" y="87" class="st0" width="1" height="1"/>
	<rect x="201" y="87" class="st0" width="1" height="1"/>
	<rect x="199" y="87" class="st0" width="1" height="1"/>
	<rect x="198" y="87" width="1" height="1"/>
	<rect x="176" y="87" width="1" height="1"/>
	<rect x="175" y="87" class="st0" width="1" height="1"/>
	<rect x="174" y="87" width="1" height="1"/>
	<rect x="173" y="87" class="st0" width="1" height="1"/>
	<rect x="156" y="87" width="1" height="1"/>
	<rect x="151" y="87" width="1" height="1"/>
	<path d="M136,88v-1c-0.5,0-1.5,0-2,0v1C134.5,88,135.5,88,136,88z"/>
	<rect x="213" y="86" width="1" height="1"/>
	<rect x="212" y="86" class="st0" width="1" height="1"/>
	<rect x="211" y="86" width="1" height="1"/>
	<rect x="210" y="86" class="st0" width="1" height="1"/>
	<rect x="209" y="86" width="1" height="1"/>
	<rect x="208" y="86" class="st0" width="1" height="1"/>
	<rect x="206" y="86" class="st0" width="1" height="1"/>
	<rect x="198" y="86" class="st0" width="1" height="1"/>
	<rect x="197" y="86" width="1" height="1"/>
	<rect x="175" y="86" width="1" height="1"/>
	<rect x="174" y="86" class="st0" width="1" height="1"/>
	<rect x="152" y="86" width="1" height="1"/>
	<path d="M138,87v-1c-0.5,0-1.5,0-2,0v1C136.5,87,137.5,87,138,87z"/>
	<rect x="214" y="85" width="1" height="1"/>
	<rect x="213" y="85" class="st0" width="1" height="1"/>
	<rect x="211" y="85" class="st0" width="1" height="1"/>
	<rect x="209" y="85" class="st0" width="1" height="1"/>
	<rect x="198" y="85" width="1" height="1"/>
	<rect x="171" y="85" class="st0" width="1" height="1"/>
	<rect x="169" y="85" class="st0" width="1" height="1"/>
	<rect x="165" y="85" class="st0" width="1" height="1"/>
	<path d="M153,85v1c0.5,0,1.5,0,2,0v-1C154.5,85,153.5,85,153,85z"/>
	<path d="M140,86v-1c-0.5,0-1.5,0-2,0v1C138.5,86,139.5,86,140,86z"/>
	<path d="M121,85c-1.6,0-3.4,0-5,0v1c2.3,0,4.7,0,7,0v-1C122.5,85,121.5,85,121,85z"/>
	<path d="M95,86v1c7,0,14,0,21,0v-1c-6.3,0-12.7,0-19,0v-1c-1.3,0-2.7,0-4,0v1C93.5,86,94.5,86,95,86z"/>
	<rect x="215" y="84" width="1" height="1"/>
	<rect x="214" y="84" class="st0" width="1" height="1"/>
	<rect x="172" y="84" class="st0" width="1" height="1"/>
	<rect x="171" y="84" width="1" height="1"/>
	<rect x="170" y="84" class="st0" width="1" height="1"/>
	<rect x="166" y="84" class="st0" width="1" height="1"/>
	<rect x="155" y="84" width="1" height="1"/>
	<path d="M142,85v-1c-0.5,0-1.5,0-2,0v1C140.5,85,141.5,85,142,85z"/>
	<path d="M124,84h-1v1c0.9,0,2.1,0,3,0v-1C125.5,84,124.5,84,124,84z"/>
	<path d="M99,85v-1c-0.5,0-1.5,0-2,0v1C97.5,85,98.5,85,99,85z"/>
	<path class="st0" d="M95,85c0.5,0,1.5,0,2,0v-1c0.5,0,1.5,0,2,0v-1c0.9,0,2.1,0,3,0v-1c0.9,0,2.1,0,3,0v-1c0.5,0,1.5,0,2,0v-1
		c0.5,0,1.5,0,2,0v-1c0.5,0,1.5,0,2,0v-1c0.5,0,1.5,0,2,0v-1c0.9,0,2.1,0,3,0v-1c0.9,0,2.1,0,3,0v-1c0.9,0,2.1,0,3,0v-1
		c0.9,0,2.1,0,3,0v-1c1.3,0,2.7,0,4,0v-1c1.3,0,2.7,0,4,0v-1c1.9,0,4.1,0,6,0v-1c3,0,6,0,9,0v-1c1.3,0,2.7,0,4,0v-1c0.5,0,1.5,0,2,0
		v-1h1c0-0.9,0-2.1,0-3c-0.5,0-1.5,0-2,0v1c-0.5,0-1.5,0-2,0v1c-0.5,0-1.5,0-2,0v1c-1.3,0-2.7,0-4,0v1c-0.9,0-2.1,0-3,0v1
		c-1.6,0-3.4,0-5,0v1c-1.9,0-4.1,0-6,0v1c-1.3,0-2.7,0-4,0v1c-1.3,0-2.7,0-4,0v1c-4.3,0-8.7,0-13,0v1c-1.9,0-4.1,0-6,0v1
		c-1.3,0-2.7,0-4,0v1c-0.9,0-2.1,0-3,0v1c-0.5,0-1.5,0-2,0v1c-0.5,0-1.5,0-2,0c0,2.3,0,4.7,0,7C93.5,85,94.5,85,95,85z"/>
	<rect x="220" y="83" width="1" height="1"/>
	<path class="st0" d="M220,83h-1v-1h-1v-1h-1v-1h-1v1h-1v1h1v1h-1v1h1v1h-1v1h-1v1h-1v1h-1v-1h-1v1h-1v1h-1v-1h-1v1h-1v-1h-1v1h-1
		v-1h-1v1h-1v-1h-1v1h-1v-1h-1v1h-1v-1h-1v-1h-1v-1h1v-1h1v1h1v-1h1v-1c0.5,0,1.5,0,2,0v-1c0.5,0,1.5,0,2,0v-1c0.5,0,1.5,0,2,0v-1h1
		v-1h1v-1h1v-1h1v-1h1v-1h1v-1h1v-1h1c0-0.5,0-1.5,0-2h1c0-0.5,0-1.5,0-2h1v-1h1c0-0.9,0-2.1,0-3h1c0-3,0-6,0-9c-1.6,0-3.4,0-5,0v1
		c-0.5,0-1.5,0-2,0v1c-0.5,0-1.5,0-2,0v1h-1v1h-1c0,0.5,0,1.5,0,2h-1c0,0.5,0,1.5,0,2h-1v1h-1c0,0.5,0,1.5,0,2h-1v1h-1
		c0,0.5,0,1.5,0,2h-1v1h-1c0,0.5,0,1.5,0,2h-1v1h-1v1h-1v1h-1v1c-0.5,0-1.5,0-2,0v1c-0.5,0-1.5,0-2,0v1c-0.5,0-1.5,0-2,0v1
		c-0.9,0-2.1,0-3,0v1c-1.6,0-3.4,0-5,0v-1h-1v-1h1v1c1.6,0,3.4,0,5,0v-1c0.9,0,2.1,0,3,0v-1c0.5,0,1.5,0,2,0v-1c0.5,0,1.5,0,2,0v-1
		c0.5,0,1.5,0,2,0v-1h1v-1h1v-1h1c0-0.5,0-1.5,0-2h1v-1h1c0-0.5,0-1.5,0-2h1v-1h1c0-0.5,0-1.5,0-2h1v-1h1c0-0.5,0-1.5,0-2h1
		c0-0.5,0-1.5,0-2h1v-1h1v-1h1v-1c0.5,0,1.5,0,2,0v-1c0.5,0,1.5,0,2,0v-1c1.3,0,2.7,0,4,0v-1c-0.5,0-1.5,0-2,0v-1c-2.3,0-4.7,0-7,0
		v1c-0.9,0-2.1,0-3,0v1c-0.5,0-1.5,0-2,0v1h-1v1h-1v1h-1v1h-1v1h-1v1h-1v1h-1v1h-1v1h-1v1h-1v1h-1v1h-1v1h-1v-1h1v-1h1v-1h1v-1h1v-1
		h1v-1h1v-1h1v-1h1v-1h1v-1h1v-1h-1c0-0.9,0-2.1,0-3c0.5,0,1.5,0,2,0v-1h1v-1h-1v-1h-1v-1c-2.3,0-4.7,0-7,0v1c-1.3,0-2.7,0-4,0v1
		c-0.5,0-1.5,0-2,0v1c-0.5,0-1.5,0-2,0v1c-0.5,0-1.5,0-2,0v1c-0.5,0-1.5,0-2,0v1h-1v1h-1v1h-1v1h-1v1h-1v1h-1c0,0.5,0,1.5,0,2h-1
		c0,0.5,0,1.5,0,2h-1c0,1.9,0,4.1,0,6h1c0,0.5,0,1.5,0,2c0.9,0,2.1,0,3,0v-1c1.3,0,2.7,0,4,0v1c-1.3,0-2.7,0-4,0v1c-0.5,0-1.5,0-2,0
		v1h-1c0,0.5,0,1.5,0,2h-1c0,1.6,0,3.4,0,5h1v1h-1v1h1v1h1v1h1v1h1v1h1v1h1v-1h1v1c13.3,0,26.7,0,40,0c0-1.9,0-4.1,0-6h-1V83z
		 M177,70c0-0.5,0-1.5,0-2c0.5,0,1.5,0,2,0v-1c0.9,0,2.1,0,3,0v-1c0.5,0,1.5,0,2,0v-1h1v-1h1c0-0.5,0-1.5,0-2c0.9,0,2.1,0,3,0
		c0,0.9,0,2.1,0,3h-1c0,0.5,0,1.5,0,2h-1v1h-1v1h-1v1c-0.9,0-2.1,0-3,0v1c-1.3,0-2.7,0-4,0v-1H177z"/>
	<rect x="214" y="83" width="1" height="1"/>
	<rect x="213" y="83" class="st0" width="1" height="1"/>
	<rect x="171" y="83" class="st0" width="1" height="1"/>
	<rect x="170" y="83" width="1" height="1"/>
	<rect x="169" y="83" class="st0" width="1" height="1"/>
	<rect x="165" y="83" class="st0" width="1" height="1"/>
	<rect x="163" y="83" class="st0" width="1" height="1"/>
	<rect x="142" y="83" width="1" height="1"/>
	<path d="M129,83c-0.9,0-2.1,0-3,0v1c1.6,0,3.4,0,5,0v-1C130.5,83,129.5,83,129,83z"/>
	<path d="M101,84h1v-1c-0.9,0-2.1,0-3,0v1C99.5,84,100.5,84,101,84z"/>
	<rect x="219" y="82" width="1" height="1"/>
	<rect x="215" y="82" width="1" height="1"/>
	<rect x="214" y="82" class="st0" width="1" height="1"/>
	<rect x="172" y="82" class="st0" width="1" height="1"/>
	<rect x="171" y="82" width="1" height="1"/>
	<rect x="170" y="82" class="st0" width="1" height="1"/>
	<rect x="166" y="82" class="st0" width="1" height="1"/>
	<rect x="165" y="82" width="1" height="1"/>
	<rect x="164" y="82" class="st0" width="1" height="1"/>
	<path d="M145,83v-1c-0.5,0-1.5,0-2,0v1C143.5,83,144.5,83,145,83z"/>
	<path d="M133,82c-0.5,0-1.5,0-2,0v1c1.3,0,2.7,0,4,0v-1C134.5,82,133.5,82,133,82z"/>
	<path d="M104,83h1v-1c-0.9,0-2.1,0-3,0v1C102.5,83,103.5,83,104,83z"/>
	<rect x="218" y="81" width="1" height="1"/>
	<path d="M186,81c-0.9,0-2.1,0-3,0v1c1.6,0,3.4,0,5,0v-1C187.5,81,186.5,81,186,81z"/>
	<rect x="171" y="81" class="st0" width="1" height="1"/>
	<rect x="170" y="81" width="1" height="1"/>
	<rect x="169" y="81" class="st0" width="1" height="1"/>
	<rect x="167" y="81" class="st0" width="1" height="1"/>
	<rect x="166" y="81" width="1" height="1"/>
	<rect x="165" y="81" class="st0" width="1" height="1"/>
	<path d="M147,82v-1c-0.5,0-1.5,0-2,0v1C145.5,82,146.5,82,147,82z"/>
	<path d="M136,81h-1v1c0.9,0,2.1,0,3,0v-1C137.5,81,136.5,81,136,81z"/>
	<path d="M107,82v-1c-0.5,0-1.5,0-2,0v1C105.5,82,106.5,82,107,82z"/>
	<rect x="217" y="80" width="1" height="1"/>
	<rect x="214" y="80" class="st0" width="1" height="1"/>
	<path d="M189,80h-1v1c0.9,0,2.1,0,3,0v-1C190.5,80,189.5,80,189,80z"/>
	<rect x="182" y="80" width="1" height="1"/>
	<rect x="171" y="80" width="1" height="1"/>
	<rect x="170" y="80" class="st0" width="1" height="1"/>
	<rect x="169" y="80" width="1" height="1"/>
	<rect x="168" y="80" class="st0" width="1" height="1"/>
	<rect x="167" y="80" width="1" height="1"/>
	<rect x="166" y="80" class="st0" width="1" height="1"/>
	<path d="M149,81v-1c-0.5,0-1.5,0-2,0v1C147.5,81,148.5,81,149,81z"/>
	<path d="M139,80h-1v1c0.9,0,2.1,0,3,0v-1C140.5,80,139.5,80,139,80z"/>
	<path d="M109,81v-1c-0.5,0-1.5,0-2,0v1C107.5,81,108.5,81,109,81z"/>
	<path d="M191,79v1c0.5,0,1.5,0,2,0v-1C192.5,79,191.5,79,191,79z"/>
	<rect x="170" y="79" width="1" height="1"/>
	<rect x="169" y="79" class="st0" width="1" height="1"/>
	<rect x="168" y="79" width="1" height="1"/>
	<rect x="167" y="79" class="st0" width="1" height="1"/>
	<rect x="166" y="79" width="1" height="1"/>
	<rect x="165" y="79" class="st0" width="1" height="1"/>
	<path d="M151,80v-1c-0.5,0-1.5,0-2,0v1C149.5,80,150.5,80,151,80z"/>
	<path d="M141,79v1c0.5,0,1.5,0,2,0v-1C142.5,79,141.5,79,141,79z"/>
	<path d="M111,80v-1c-0.5,0-1.5,0-2,0v1C109.5,80,110.5,80,111,80z"/>
	<path d="M193,78v1c0.5,0,1.5,0,2,0v-1C194.5,78,193.5,78,193,78z"/>
	<rect x="169" y="78" width="1" height="1"/>
	<rect x="168" y="78" class="st0" width="1" height="1"/>
	<rect x="167" y="78" width="1" height="1"/>
	<rect x="166" y="78" class="st0" width="1" height="1"/>
	<rect x="165" y="78" width="1" height="1"/>
	<rect x="164" y="78" class="st0" width="1" height="1"/>
	<rect x="162" y="78" class="st0" width="1" height="1"/>
	<rect x="160" y="78" class="st0" width="1" height="1"/>
	<rect x="151" y="78" width="1" height="1"/>
	<path d="M143,78v1c0.5,0,1.5,0,2,0v-1C144.5,78,143.5,78,143,78z"/>
	<path d="M113,79v-1c-0.5,0-1.5,0-2,0v1C111.5,79,112.5,79,113,79z"/>
	<path d="M195,77v1c0.5,0,1.5,0,2,0v-1C196.5,77,195.5,77,195,77z"/>
	<rect x="168" y="77" width="1" height="1"/>
	<rect x="167" y="77" class="st0" width="1" height="1"/>
	<rect x="166" y="77" width="1" height="1"/>
	<rect x="165" y="77" class="st0" width="1" height="1"/>
	<rect x="164" y="77" width="1" height="1"/>
	<rect x="163" y="77" class="st0" width="1" height="1"/>
	<rect x="162" y="77" width="1" height="1"/>
	<rect x="161" y="77" class="st0" width="1" height="1"/>
	<rect x="160" y="77" width="1" height="1"/>
	<rect x="159" y="77" class="st0" width="1" height="1"/>
	<rect x="152" y="77" width="1" height="1"/>
	<path d="M145,77v1c0.5,0,1.5,0,2,0v-1C146.5,77,145.5,77,145,77z"/>
	<path d="M115,78h1v-1c-0.9,0-2.1,0-3,0v1C113.5,78,114.5,78,115,78z"/>
	<path d="M95,78v-1c0.5,0,1.5,0,2,0v-1c0.9,0,2.1,0,3,0v-1c1.3,0,2.7,0,4,0v-1c1.9,0,4.1,0,6,0v-1c4.3,0,8.7,0,13,0v-1
		c1.3,0,2.7,0,4,0v-1c1.3,0,2.7,0,4,0v-1c1.9,0,4.1,0,6,0v-1c1.6,0,3.4,0,5,0v-1c0.9,0,2.1,0,3,0v-1c1.3,0,2.7,0,4,0v-1
		c0.5,0,1.5,0,2,0v-1c0.5,0,1.5,0,2,0v-1c0.5,0,1.5,0,2,0c0,0.9,0,2.1,0,3h-1v1h1c0,0.9,0,2.1,0,3h1v-1c0.5,0,1.5,0,2,0v-1
		c0.5,0,1.5,0,2,0v-1h-1v-1h-1v1h-1v-1h1v-1h1v-1h-1v-1h1v-1h-1v-1h1v-1h1v-1h-1v-1h1v-1h1v-1h-1v-1h1v-1h1v-1h1v1h1v-1h1v1h-1v1h1
		v1h1v-1c0.9,0,2.1,0,3,0v-1h1c0-1.3,0-2.7,0-4h-1c0-0.5,0-1.5,0-2h-1v1h-1v-1h-1v1h-1v-1h1v-1h1v1h1v-1h1v1c0.9,0,2.1,0,3,0v-1h1
		c0-0.9,0-2.1,0-3h-1v-1c-0.9,0-2.1,0-3,0v-1c-1.3,0-2.7,0-4,0v1h-1v1h-1v1h-1c0,0.9,0,2.1,0,3c-1.9,0-4.1,0-6,0v1c1.9,0,4.1,0,6,0
		v1c1.9,0,4.1,0,6,0c0,0.9,0,2.1,0,3c-0.5,0-1.5,0-2,0v-1c-3.3,0-6.7,0-10,0v1c0.5,0,1.5,0,2,0v1h-1c0,0.5,0,1.5,0,2h-1
		c0,0.9,0,2.1,0,3h-1v1c-0.5,0-1.5,0-2,0v1c-0.5,0-1.5,0-2,0v1c-0.5,0-1.5,0-2,0v1c-0.9,0-2.1,0-3,0v1c-1.3,0-2.7,0-4,0v1
		c-1.6,0-3.4,0-5,0v1c-1.9,0-4.1,0-6,0v1c-1.9,0-4.1,0-6,0v1c-6.3,0-12.7,0-19,0v1c-2.6,0-5.4,0-8,0v1c-0.9,0-2.1,0-3,0v1
		c-0.5,0-1.5,0-2,0c0,1.9,0,4.1,0,6C93.5,78,94.5,78,95,78z"/>
	<rect x="197" y="76" width="1" height="1"/>
	<rect x="167" y="76" width="1" height="1"/>
	<rect x="166" y="76" class="st0" width="1" height="1"/>
	<rect x="165" y="76" width="1" height="1"/>
	<rect x="164" y="76" class="st0" width="1" height="1"/>
	<rect x="163" y="76" width="1" height="1"/>
	<rect x="162" y="76" class="st0" width="1" height="1"/>
	<rect x="161" y="76" width="1" height="1"/>
	<rect x="160" y="76" class="st0" width="1" height="1"/>
	<path class="st0" d="M154,76v1h-1v1h-1v1h-1v1c-0.5,0-1.5,0-2,0v1c-0.5,0-1.5,0-2,0v1c-0.5,0-1.5,0-2,0v1c-0.5,0-1.5,0-2,0v1h-1v1
		c-0.5,0-1.5,0-2,0v1c-0.5,0-1.5,0-2,0v1c-0.5,0-1.5,0-2,0v1c-0.5,0-1.5,0-2,0v1c0.9,0,2.1,0,3,0v-1c0.9,0,2.1,0,3,0v-1
		c0.9,0,2.1,0,3,0v-1c0.5,0,1.5,0,2,0v-1c0.5,0,1.5,0,2,0v-1c0.5,0,1.5,0,2,0v-1c0.5,0,1.5,0,2,0v-1h1v-1c0.5,0,1.5,0,2,0v-1h1v-1h1
		v-1h1c0-0.5,0-1.5,0-2h-1v-1h-1v1H154z"/>
	<rect x="153" y="76" width="1" height="1"/>
	<path d="M147,76v1c0.5,0,1.5,0,2,0v-1C148.5,76,147.5,76,147,76z"/>
	<path d="M118,77h1v-1c-0.9,0-2.1,0-3,0v1C116.5,77,117.5,77,118,77z"/>
	<rect x="198" y="75" width="1" height="1"/>
	<rect x="166" y="75" width="1" height="1"/>
	<rect x="165" y="75" class="st0" width="1" height="1"/>
	<rect x="164" y="75" width="1" height="1"/>
	<rect x="163" y="75" class="st0" width="1" height="1"/>
	<rect x="162" y="75" width="1" height="1"/>
	<rect x="161" y="75" class="st0" width="1" height="1"/>
	<rect x="160" y="75" width="1" height="1"/>
	<rect x="159" y="75" class="st0" width="1" height="1"/>
	<rect x="154" y="75" width="1" height="1"/>
	<path d="M149,75v1c0.5,0,1.5,0,2,0v-1C150.5,75,149.5,75,149,75z"/>
	<path d="M121,76h1v-1c-0.9,0-2.1,0-3,0v1C119.5,76,120.5,76,121,76z"/>
	<rect x="199" y="74" width="1" height="1"/>
	<rect x="167" y="74" width="1" height="1"/>
	<rect x="166" y="74" class="st0" width="1" height="1"/>
	<rect x="165" y="74" width="1" height="1"/>
	<rect x="164" y="74" class="st0" width="1" height="1"/>
	<rect x="163" y="74" width="1" height="1"/>
	<rect x="162" y="74" class="st0" width="1" height="1"/>
	<rect x="161" y="74" width="1" height="1"/>
	<rect x="160" y="74" class="st0" width="1" height="1"/>
	<rect x="159" y="74" width="1" height="1"/>
	<rect x="158" y="74" class="st0" width="1" height="1"/>
	<rect x="151" y="74" width="1" height="1"/>
	<path d="M124,75h1v-1c-0.9,0-2.1,0-3,0v1C122.5,75,123.5,75,124,75z"/>
	<path d="M180,74c0.5,0,1.5,0,2,0v-1c-1.3,0-2.7,0-4,0v1C178.5,74,179.5,74,180,74z"/>
	<rect x="166" y="73" width="1" height="1"/>
	<rect x="165" y="73" class="st0" width="1" height="1"/>
	<rect x="163" y="73" class="st0" width="1" height="1"/>
	<rect x="162" y="73" width="1" height="1"/>
	<rect x="161" y="73" class="st0" width="1" height="1"/>
	<rect x="160" y="73" width="1" height="1"/>
	<rect x="159" y="73" class="st0" width="1" height="1"/>
	<rect x="152" y="73" width="1" height="1"/>
	<path d="M127,74c0.5,0,1.5,0,2,0v-1c-1.3,0-2.7,0-4,0v1C125.5,74,126.5,74,127,74z"/>
	<path d="M200,73v1h1c0-0.5,0-1.5,0-2h-1V73z"/>
	<rect x="162" y="72" class="st0" width="1" height="1"/>
	<rect x="160" y="72" class="st0" width="1" height="1"/>
	<rect x="153" y="72" width="1" height="1"/>
	<path d="M131,73c0.5,0,1.5,0,2,0v-1c-1.3,0-2.7,0-4,0v1C129.5,73,130.5,73,131,73z"/>
	<rect x="201" y="71" width="1" height="1"/>
	<rect x="154" y="71" width="1" height="1"/>
	<path d="M135,72c1.3,0,2.7,0,4,0v-1c-1.9,0-4.1,0-6,0v1C133.5,72,134.5,72,135,72z"/>
	<path class="st0" d="M95,72v-1c0.9,0,2.1,0,3,0v-1c2.6,0,5.4,0,8,0v-1c6.3,0,12.7,0,19,0v-1c1.9,0,4.1,0,6,0v-1c1.9,0,4.1,0,6,0v-1
		c1.6,0,3.4,0,5,0v-1c1.3,0,2.7,0,4,0v-1c0.9,0,2.1,0,3,0v-1c0.5,0,1.5,0,2,0v-1c0.5,0,1.5,0,2,0v-1c0.5,0,1.5,0,2,0v-1h1
		c0-0.9,0-2.1,0-3h1c0-0.5,0-1.5,0-2h1v-1c-0.5,0-1.5,0-2,0v1c-0.5,0-1.5,0-2,0v1c-0.5,0-1.5,0-2,0v1c-0.5,0-1.5,0-2,0v1
		c-0.5,0-1.5,0-2,0v1c-0.5,0-1.5,0-2,0v1h-1v1c-0.5,0-1.5,0-2,0v1c-0.5,0-1.5,0-2,0v1c-0.5,0-1.5,0-2,0v1c-0.5,0-1.5,0-2,0v1
		c-1.6,0-3.4,0-5,0v1c-2.3,0-4.7,0-7,0v1c-6.7,0-13.3,0-20,0v-1c-2.6,0-5.4,0-8,0v-1c-1.3,0-2.7,0-4,0c0,2.3,0,4.7,0,7
		C93.5,72,94.5,72,95,72z"/>
	<path d="M179,71c0.9,0,2.1,0,3,0v-1c0.9,0,2.1,0,3,0v-1h1v-1h1v-1h1c0-0.5,0-1.5,0-2h1c0-0.9,0-2.1,0-3c-0.9,0-2.1,0-3,0
		c0,0.5,0,1.5,0,2h-1v1h-1v1c-0.5,0-1.5,0-2,0v1c-0.9,0-2.1,0-3,0v1c-0.5,0-1.5,0-2,0c0,0.5,0,1.5,0,2h1v1H179z"/>
	<path d="M141,71c2.3,0,4.7,0,7,0v-1c-3,0-6,0-9,0v1C139.5,71,140.5,71,141,71z"/>
	<path d="M217,70h-1c0,0.5,0,1.5,0,2h-1c0,0.5,0,1.5,0,2h-1v1h-1v1h-1v1h-1v1h-1v1h-1v1h-1v1h-1v1c-0.5,0-1.5,0-2,0v1
		c-0.5,0-1.5,0-2,0v1c-0.5,0-1.5,0-2,0v1h-1v1h-1v1h1v1h1v-1h1v1h1v-1h1v1h1v-1h1v-1h1v1h1v-1h1v-1h1v1h1v-1h1v1h1v-1h1v-1h-1v-1h1
		v-1h1v-1h-1v-1h1v1h1v-1h1v-1h-1c0-0.9,0-2.1,0-3h1c0-0.9,0-2.1,0-3h1c0-1.3,0-2.7,0-4h-1V70z"/>
	<path d="M202,70v1h1c0-0.5,0-1.5,0-2h-1V70z"/>
	<path class="st0" d="M155,69v-1h-1v1c-0.5,0-1.5,0-2,0v1c-1.3,0-2.7,0-4,0v1c-3,0-6,0-9,0v1c-1.9,0-4.1,0-6,0v1c-1.3,0-2.7,0-4,0v1
		c-1.3,0-2.7,0-4,0v1c-0.9,0-2.1,0-3,0v1c-0.9,0-2.1,0-3,0v1c-0.9,0-2.1,0-3,0v1c-0.9,0-2.1,0-3,0v1c-0.5,0-1.5,0-2,0v1
		c-0.5,0-1.5,0-2,0v1c-0.5,0-1.5,0-2,0v1c-0.5,0-1.5,0-2,0v1c-0.9,0-2.1,0-3,0v1c-0.9,0-2.1,0-3,0v1c-0.5,0-1.5,0-2,0v1
		c6.3,0,12.7,0,19,0v-1c2.3,0,4.7,0,7,0v-1c0.9,0,2.1,0,3,0v-1c1.6,0,3.4,0,5,0v-1c1.3,0,2.7,0,4,0v-1c0.9,0,2.1,0,3,0v-1
		c0.9,0,2.1,0,3,0v-1c0.5,0,1.5,0,2,0v-1c0.5,0,1.5,0,2,0v-1c0.5,0,1.5,0,2,0v-1c0.5,0,1.5,0,2,0v-1c0.5,0,1.5,0,2,0v-1h1v-1h1v-1h1
		v-1h1C155,70.5,155,69.5,155,69z"/>
	<path d="M150,70c0.5,0,1.5,0,2,0v-1c-1.3,0-2.7,0-4,0v1C148.5,70,149.5,70,150,70z"/>
	<rect x="203" y="68" width="1" height="1"/>
	<rect x="191" y="68" width="1" height="1"/>
	<path d="M154,69v-1c-0.5,0-1.5,0-2,0v1C152.5,69,153.5,69,154,69z"/>
	<rect x="192" y="67" width="1" height="1"/>
	<rect x="159" y="67" class="st0" width="1" height="1"/>
	<rect x="157" y="67" class="st0" width="1" height="1"/>
	<path d="M218,67c0,0.5,0,1.5,0,2h1c0-0.9,0-2.1,0-3h-1V67z"/>
	<path d="M204,67v1h1c0-0.5,0-1.5,0-2h-1V67z"/>
	<rect x="193" y="66" width="1" height="1"/>
	<rect x="162" y="66" class="st0" width="1" height="1"/>
	<rect x="160" y="66" class="st0" width="1" height="1"/>
	<rect x="159" y="66" width="1" height="1"/>
	<rect x="158" y="66" class="st0" width="1" height="1"/>
	<path d="M123,66c-6,0-12,0-18,0v1c6.7,0,13.3,0,20,0v-1C124.5,66,123.5,66,123,66z"/>
	<rect x="205" y="65" width="1" height="1"/>
	<rect x="194" y="65" width="1" height="1"/>
	<path d="M173,65v-1h-1c0,2.6,0,5.4,0,8h1c0,0.5,0,1.5,0,2h1c0,1.3,0,2.7,0,4h1c0-0.5,0-1.5,0-2h1v-1c0.5,0,1.5,0,2,0v-1
		c-0.9,0-2.1,0-3,0c0-0.5,0-1.5,0-2h-1c0-1.9,0-4.1,0-6h-1V65z"/>
	<rect x="163" y="65" class="st0" width="1" height="1"/>
	<rect x="162" y="65" width="1" height="1"/>
	<rect x="161" y="65" class="st0" width="1" height="1"/>
	<rect x="160" y="65" width="1" height="1"/>
	<rect x="159" y="65" class="st0" width="1" height="1"/>
	<path d="M130,65c-1.6,0-3.4,0-5,0v1c2.3,0,4.7,0,7,0v-1C131.5,65,130.5,65,130,65z"/>
	<path d="M104,65c-2.3,0-4.7,0-7,0v1c2.6,0,5.4,0,8,0v-1H104z"/>
	<rect x="195" y="64" width="1" height="1"/>
	<path d="M174,65v1h1c0-0.5,0-1.5,0-2h-1V65z"/>
	<path class="st0" d="M174,64h-1c0,0.5,0,1.5,0,2h1C174,65.5,174,64.5,174,64z"/>
	<rect x="165" y="64" width="1" height="1"/>
	<rect x="164" y="64" class="st0" width="1" height="1"/>
	<rect x="163" y="64" width="1" height="1"/>
	<rect x="162" y="64" class="st0" width="1" height="1"/>
	<rect x="161" y="64" width="1" height="1"/>
	<rect x="160" y="64" class="st0" width="1" height="1"/>
	<rect x="159" y="64" width="1" height="1"/>
	<rect x="158" y="64" class="st0" width="1" height="1"/>
	<path d="M135,64c-0.9,0-2.1,0-3,0v1c1.6,0,3.4,0,5,0v-1C136.5,64,135.5,64,135,64z"/>
	<path d="M95,65c0.5,0,1.5,0,2,0v-1c-1.3,0-2.7,0-4,0v1C93.5,65,94.5,65,95,65z"/>
	<path d="M206,64v1h1c0-0.5,0-1.5,0-2h-1V64z"/>
	<rect x="196" y="63" width="1" height="1"/>
	<path d="M174,63v-1h-1c0,0.5,0,1.5,0,2h1V63z"/>
	<rect x="164" y="63" width="1" height="1"/>
	<rect x="163" y="63" class="st0" width="1" height="1"/>
	<rect x="162" y="63" width="1" height="1"/>
	<rect x="161" y="63" class="st0" width="1" height="1"/>
	<rect x="160" y="63" width="1" height="1"/>
	<rect x="159" y="63" class="st0" width="1" height="1"/>
	<path d="M137,63v1c0.5,0,1.5,0,2,0v-1C138.5,63,137.5,63,137,63z"/>
	<path d="M115,64c3,0,6,0,9,0v-1c-3.3,0-6.7,0-10,0v1H115z"/>
	<path class="st0" d="M95,64c0.5,0,1.5,0,2,0v1c2.6,0,5.4,0,8,0v1c6.7,0,13.3,0,20,0v-1c2.3,0,4.7,0,7,0v-1c1.6,0,3.4,0,5,0v-1
		c0.5,0,1.5,0,2,0v-1c0.5,0,1.5,0,2,0v-1c0.5,0,1.5,0,2,0v-1c0.5,0,1.5,0,2,0v-1h1v-1c0.5,0,1.5,0,2,0v-1c0.5,0,1.5,0,2,0v-1
		c0.5,0,1.5,0,2,0v-1c0.5,0,1.5,0,2,0v-1c0.5,0,1.5,0,2,0v-1c3.3,0,6.7,0,10,0v1c0.5,0,1.5,0,2,0c0-0.9,0-2.1,0-3c-1.9,0-4.1,0-6,0
		v-1c-1.9,0-4.1,0-6,0v1c-0.5,0-1.5,0-2,0v1c-0.5,0-1.5,0-2,0v1c-0.5,0-1.5,0-2,0v1c-0.5,0-1.5,0-2,0v1h-1v1h-1v1c-0.5,0-1.5,0-2,0
		v1h-1v1c-0.5,0-1.5,0-2,0v1c-0.5,0-1.5,0-2,0v1c-0.9,0-2.1,0-3,0v1c-1.6,0-3.4,0-5,0v1c-2.3,0-4.7,0-7,0v1c-3.3,0-6.7,0-10,0v-1
		c-3,0-6,0-9,0v-1c-1.9,0-4.1,0-6,0v-1c-1.9,0-4.1,0-6,0c0,0.9,0,2.1,0,3C93.5,64,94.5,64,95,64z"/>
	<rect x="197" y="62" width="1" height="1"/>
	<path d="M175,63v1h1c0-0.5,0-1.5,0-2h-1V63z"/>
	<path class="st0" d="M175,62h-1c0,0.5,0,1.5,0,2h1C175,63.5,175,62.5,175,62z"/>
	<rect x="165" y="62" width="1" height="1"/>
	<rect x="164" y="62" class="st0" width="1" height="1"/>
	<rect x="163" y="62" width="1" height="1"/>
	<rect x="162" y="62" class="st0" width="1" height="1"/>
	<rect x="161" y="62" width="1" height="1"/>
	<rect x="160" y="62" class="st0" width="1" height="1"/>
	<rect x="159" y="62" width="1" height="1"/>
	<rect x="158" y="62" class="st0" width="1" height="1"/>
	<path d="M139,62v1c0.5,0,1.5,0,2,0v-1C140.5,62,139.5,62,139,62z"/>
	<path d="M126,63c1.6,0,3.4,0,5,0v-1c-2.3,0-4.7,0-7,0v1C124.5,63,125.5,63,126,63z"/>
	<path d="M106,63c2.6,0,5.4,0,8,0v-1c-3,0-6,0-9,0v1H106z"/>
	<path d="M207,62v1h1c0-0.5,0-1.5,0-2h-1V62z"/>
	<rect x="198" y="61" width="1" height="1"/>
	<rect x="176" y="61" width="1" height="1"/>
	<path d="M175,61v-1h-1c0,0.5,0,1.5,0,2h1V61z"/>
	<rect x="164" y="61" width="1" height="1"/>
	<rect x="163" y="61" class="st0" width="1" height="1"/>
	<rect x="162" y="61" width="1" height="1"/>
	<rect x="161" y="61" class="st0" width="1" height="1"/>
	<rect x="160" y="61" width="1" height="1"/>
	<rect x="159" y="61" class="st0" width="1" height="1"/>
	<path d="M141,61v1c0.5,0,1.5,0,2,0v-1C142.5,61,141.5,61,141,61z"/>
	<path d="M133,62c0.9,0,2.1,0,3,0v-1c-1.6,0-3.4,0-5,0v1C131.5,62,132.5,62,133,62z"/>
	<path d="M100,62c1.6,0,3.4,0,5,0v-1c-1.9,0-4.1,0-6,0v1H100z"/>
	<rect x="208" y="60" width="1" height="1"/>
	<rect x="199" y="60" width="1" height="1"/>
	<rect x="177" y="60" width="1" height="1"/>
	<rect x="165" y="60" width="1" height="1"/>
	<rect x="164" y="60" class="st0" width="1" height="1"/>
	<rect x="163" y="60" width="1" height="1"/>
	<rect x="162" y="60" class="st0" width="1" height="1"/>
	<rect x="161" y="60" width="1" height="1"/>
	<rect x="160" y="60" class="st0" width="1" height="1"/>
	<path d="M143,60v1c0.5,0,1.5,0,2,0v-1C144.5,60,143.5,60,143,60z"/>
	<path d="M138,61h1v-1c-0.9,0-2.1,0-3,0v1C136.5,61,137.5,61,138,61z"/>
	<path d="M95,61c1.3,0,2.7,0,4,0v-1c-1.9,0-4.1,0-6,0v1C93.5,61,94.5,61,95,61z"/>
	<rect x="209" y="59" width="1" height="1"/>
	<rect x="200" y="59" width="1" height="1"/>
	<rect x="178" y="59" width="1" height="1"/>
	<rect x="175" y="59" width="1" height="1"/>
	<rect x="164" y="59" width="1" height="1"/>
	<rect x="163" y="59" class="st0" width="1" height="1"/>
	<rect x="162" y="59" width="1" height="1"/>
	<rect x="161" y="59" class="st0" width="1" height="1"/>
	<rect x="160" y="59" width="1" height="1"/>
	<rect x="159" y="59" class="st0" width="1" height="1"/>
	<rect x="145" y="59" width="1" height="1"/>
	<path d="M141,60v-1c-0.5,0-1.5,0-2,0v1C139.5,60,140.5,60,141,60z"/>
	<path d="M219,59c0,2.3,0,4.7,0,7h1c0-3,0-6,0-9h-1C219,57.5,219,58.5,219,59z"/>
	<path d="M210,58v1c0.5,0,1.5,0,2,0v-1C211.5,58,210.5,58,210,58z"/>
	<rect x="179" y="58" width="1" height="1"/>
	<rect x="176" y="58" width="1" height="1"/>
	<rect x="165" y="58" width="1" height="1"/>
	<rect x="164" y="58" class="st0" width="1" height="1"/>
	<rect x="163" y="58" width="1" height="1"/>
	<rect x="162" y="58" class="st0" width="1" height="1"/>
	<rect x="161" y="58" width="1" height="1"/>
	<rect x="160" y="58" class="st0" width="1" height="1"/>
	<path d="M146,58v1c0.5,0,1.5,0,2,0v-1C147.5,58,146.5,58,146,58z"/>
	<path d="M143,59v-1c-0.5,0-1.5,0-2,0v1C141.5,59,142.5,59,143,59z"/>
	<path d="M212,57v1c0.5,0,1.5,0,2,0v-1C213.5,57,212.5,57,212,57z"/>
	<rect x="180" y="57" width="1" height="1"/>
	<rect x="177" y="57" width="1" height="1"/>
	<rect x="166" y="57" width="1" height="1"/>
	<rect x="165" y="57" class="st0" width="1" height="1"/>
	<rect x="164" y="57" width="1" height="1"/>
	<rect x="163" y="57" class="st0" width="1" height="1"/>
	<rect x="162" y="57" width="1" height="1"/>
	<rect x="161" y="57" class="st0" width="1" height="1"/>
	<path d="M148,57v1c0.5,0,1.5,0,2,0v-1C149.5,57,148.5,57,148,57z"/>
	<rect x="143" y="57" width="1" height="1"/>
	<path d="M217,56c-0.9,0-2.1,0-3,0v1c1.6,0,3.4,0,5,0c0-0.5,0-1.5,0-2h-1v1H217z"/>
	<rect x="181" y="56" width="1" height="1"/>
	<rect x="178" y="56" width="1" height="1"/>
	<rect x="164" y="56" class="st0" width="1" height="1"/>
	<rect x="163" y="56" width="1" height="1"/>
	<rect x="162" y="56" class="st0" width="1" height="1"/>
	<rect x="161" y="56" width="1" height="1"/>
	<rect x="160" y="56" class="st0" width="1" height="1"/>
	<path d="M150,56v1c0.5,0,1.5,0,2,0v-1C151.5,56,150.5,56,150,56z"/>
	<path d="M146,57v-1c-0.5,0-1.5,0-2,0v1C144.5,57,145.5,57,146,57z"/>
	<path d="M182,55v1c0.5,0,1.5,0,2,0v-1C183.5,55,182.5,55,182,55z"/>
	<rect x="179" y="55" width="1" height="1"/>
	<rect x="163" y="55" class="st0" width="1" height="1"/>
	<rect x="162" y="55" width="1" height="1"/>
	<rect x="161" y="55" class="st0" width="1" height="1"/>
	<path d="M152,55v1c0.5,0,1.5,0,2,0v-1C153.5,55,152.5,55,152,55z"/>
	<rect x="146" y="55" width="1" height="1"/>
	<path d="M217,55h1v-1c-0.5,0-1.5,0-2,0v1H217z"/>
	<path d="M208,55h1v-1c-0.9,0-2.1,0-3,0v1C206.5,55,207.5,55,208,55z"/>
	<path d="M184,54v1c0.5,0,1.5,0,2,0v-1C185.5,54,184.5,54,184,54z"/>
	<rect x="180" y="54" width="1" height="1"/>
	<rect x="164" y="54" class="st0" width="1" height="1"/>
	<rect x="162" y="54" class="st0" width="1" height="1"/>
	<path d="M154,54v1c0.5,0,1.5,0,2,0v-1C155.5,54,154.5,54,154,54z"/>
	<rect x="147" y="54" width="1" height="1"/>
	<path d="M211,54c1.6,0,3.4,0,5,0v-1c-2.3,0-4.7,0-7,0v1C209.5,54,210.5,54,211,54z"/>
	<path d="M186,53v1c0.5,0,1.5,0,2,0v-1C187.5,53,186.5,53,186,53z"/>
	<path d="M183,54v-1c-0.5,0-1.5,0-2,0v1C181.5,54,182.5,54,183,54z"/>
	<path d="M150,54v-1c-0.5,0-1.5,0-2,0v1C148.5,54,149.5,54,150,54z"/>
	<path d="M204,53h-1v1h-1v1c-0.5,0-1.5,0-2,0c0,0.9,0,2.1,0,3h1v1h1v-1h1v-1h1v-1c0.5,0,1.5,0,2,0v-1h-1c0-1.3,0-2.7,0-4h-1
		C204,51.5,204,52.5,204,53z"/>
	<rect x="202" y="52" width="1" height="1"/>
	<path d="M188,52v1c0.5,0,1.5,0,2,0v-1C189.5,52,188.5,52,188,52z"/>
	<path d="M185,53v-1c-0.5,0-1.5,0-2,0v1C183.5,53,184.5,53,185,53z"/>
	<path d="M152,53v-1c-0.5,0-1.5,0-2,0v1C150.5,53,151.5,53,152,53z"/>
	<rect x="201" y="51" width="1" height="1"/>
	<path d="M192,51c-0.5,0-1.5,0-2,0v1c1.3,0,2.7,0,4,0v-1C193.5,51,192.5,51,192,51z"/>
	<path d="M187,52v-1c-0.5,0-1.5,0-2,0v1C185.5,52,186.5,52,187,52z"/>
	<path d="M154,52v-1c-0.5,0-1.5,0-2,0v1C152.5,52,153.5,52,154,52z"/>
	<path class="st0" d="M203,50h-1v-1c-3,0-6,0-9,0v1c-1.3,0-2.7,0-4,0v1c-0.5,0-1.5,0-2,0v1c-0.5,0-1.5,0-2,0v1c-0.5,0-1.5,0-2,0v1
		c-0.5,0-1.5,0-2,0v1h-1v1h-1v1h-1v1h-1v1h-1v1h-1c0,0.5,0,1.5,0,2h1v-1h1v-1h1v-1h1v-1h1v-1h1v-1h1v-1c0.5,0,1.5,0,2,0v-1
		c0.5,0,1.5,0,2,0v-1c0.5,0,1.5,0,2,0v-1c0.5,0,1.5,0,2,0v-1c1.3,0,2.7,0,4,0v-1c2.3,0,4.7,0,7,0v1h1v1h1v1h1c0-0.5,0-1.5,0-2h-1V50
		z"/>
	<path d="M200,50c-1.9,0-4.1,0-6,0v1c2.3,0,4.7,0,7,0v-1H200z"/>
	<path d="M189,51v-1c-0.5,0-1.5,0-2,0v1C187.5,51,188.5,51,189,51z"/>
	<path d="M156,51v-1c-0.5,0-1.5,0-2,0v1C154.5,51,155.5,51,156,51z"/>
	<path d="M191,50c0.5,0,1.5,0,2,0v-1c-1.3,0-2.7,0-4,0v1C189.5,50,190.5,50,191,50z"/>
	<rect x="167" y="49" class="st0" width="1" height="1"/>
	<rect x="165" y="49" class="st0" width="1" height="1"/>
	<path d="M201,48c-2.6,0-5.4,0-8,0v1c3,0,6,0,9,0v1h1v1h1c0-0.5,0-1.5,0-2h-1c0-0.5,0-1.5,0-2h-1v1H201z"/>
	<rect x="168" y="48" class="st0" width="1" height="1"/>
	<rect x="166" y="48" class="st0" width="1" height="1"/>
	<rect x="201" y="46" width="1" height="1"/>
	<path d="M117,47c0.9,0,2.1,0,3,0v-1h1c0-0.5,0-1.5,0-2h-1v-1h1v-1h-1v-1c-0.9,0-2.1,0-3,0v1h-1v1h1v1c0.5,0,1.5,0,2,0
		c0,0.5,0,1.5,0,2h-1v-1c-0.5,0-1.5,0-2,0v1h1V47z M118,43v-1h1v1H118z"/>
	<path d="M100,47c0.5,0,1.5,0,2,0c0-1.3,0-2.7,0-4c0.5,0,1.5,0,2,0v-1c-0.5,0-1.5,0-2,0c0-0.5,0-1.5,0-2c0.9,0,2.1,0,3,0v-1
		c-1.6,0-3.4,0-5,0C100,41.6,100,44.4,100,47z"/>
	<path d="M95,47c0.5,0,1.5,0,2,0v-1h1v-1h1c0-1.3,0-2.7,0-4h-1v-1h-1v-1c-1.3,0-2.7,0-4,0c0,2.6,0,5.4,0,8C93.5,47,94.5,47,95,47z
		 M96,40v1h1c0,1.3,0,2.7,0,4h-1v1h-1c0-1.9,0-4.1,0-6H96z"/>
	<rect x="200" y="45" width="1" height="1"/>
	<path d="M155,45c0-1.9,0-4.1,0-6c-0.5,0-1.5,0-2,0c0,0.5,0,1.5,0,2c-0.5,0-1.5,0-2,0v1h-1c0,1.3,0,2.7,0,4h1v1c1.3,0,2.7,0,4,0
		C155,46.5,155,45.5,155,45z M152,46c0-1.3,0-2.7,0-4h1c0,1.3,0,2.7,0,4H152z"/>
	<path d="M132,45c0-0.9,0-2.1,0-3h-1v-1c-0.9,0-2.1,0-3,0v1c0.5,0,1.5,0,2,0v1c-0.5,0-1.5,0-2,0v1h-1c0,0.5,0,1.5,0,2h1v1
		c0.5,0,1.5,0,2,0v-1h-1c0-0.5,0-1.5,0-2h1c0,0.5,0,1.5,0,2h1v1c0.5,0,1.5,0,2,0v-1h-1V45z"/>
	<rect x="199" y="44" width="1" height="1"/>
	<path class="st0" d="M173,45c0,0.9,0,2.1,0,3h-1v1c-0.9,0-2.1,0-3,0c0,0.5,0,1.5,0,2h1c0,1.3,0,2.7,0,4h-1v1c-0.9,0-2.1,0-3,0v1h1
		v1h-1v1h-1v1h1v1h-1v1h1v1h-1v1h1v1h-1v1h1v1h1c0,1.6,0,3.4,0,5h-1v1h1v1h1v1h-1v1h1v1h1v1h1v1h1v1h1v1h1c0-0.9,0-2.1,0-3h1
		c0-1.3,0-2.7,0-4h-1c0-0.5,0-1.5,0-2h-1c0-2.6,0-5.4,0-8h1c0-0.5,0-1.5,0-2h1c0-0.5,0-1.5,0-2h1v-1h1v-1h1v-1h1v-1h1v-1h1v-1h1v-1
		c0.5,0,1.5,0,2,0v-1c0.5,0,1.5,0,2,0v-1c0.5,0,1.5,0,2,0v-1c0.5,0,1.5,0,2,0v-1c1.3,0,2.7,0,4,0v-1c3,0,6,0,9,0v-1h-1v-1h-1v-1h-1
		v-1c-0.5,0-1.5,0-2,0v-1c-0.5,0-1.5,0-2,0v-1c-0.9,0-2.1,0-3,0v-1c-3.6,0-7.4,0-11,0v1c-1.3,0-2.7,0-4,0v1c-0.9,0-2.1,0-3,0v1
		c-0.5,0-1.5,0-2,0v1H173z"/>
	<path class="st0" d="M153,44c0-0.5,0-1.5,0-2h-1c0,1.3,0,2.7,0,4h1C153,45.5,153,44.5,153,44z"/>
	<path class="st0" d="M130,44h-1c0,0.5,0,1.5,0,2h1C130,45.5,130,44.5,130,44z"/>
	<path d="M198,44h1v-1c-0.5,0-1.5,0-2,0v1H198z"/>
	<path d="M174,44v-1c-0.5,0-1.5,0-2,0v1C172.5,44,173.5,44,174,44z"/>
	<path d="M196,43h1v-1c-0.5,0-1.5,0-2,0v1H196z"/>
	<path d="M176,43h1v-1c-0.9,0-2.1,0-3,0v1C174.5,43,175.5,43,176,43z"/>
	<rect x="146" y="42" class="st0" width="1" height="1"/>
	<path class="st0" d="M130,43v-1c-0.5,0-1.5,0-2,0v1C128.5,43,129.5,43,130,43z"/>
	<rect x="127" y="42" width="1" height="1"/>
	<rect x="118" y="42" class="st0" width="1" height="1"/>
	<path d="M106,43c0,0.9,0,2.1,0,3h1v1c1.3,0,2.7,0,4,0v-1h1c0-2.3,0-4.7,0-7c-0.5,0-1.5,0-2,0c0,2.3,0,4.7,0,7c-0.5,0-1.5,0-2,0
		c0-2.3,0-4.7,0-7c-0.5,0-1.5,0-2,0C106,40.3,106,41.7,106,43z"/>
	<path d="M193,42c0.5,0,1.5,0,2,0v-1c-0.9,0-2.1,0-3,0v1H193z"/>
	<path d="M179,42c0.5,0,1.5,0,2,0v-1c-1.3,0-2.7,0-4,0v1C177.5,42,178.5,42,179,42z"/>
	<path d="M148,41c-0.9,0-2.1,0-3,0v1h-1c0,1.3,0,2.7,0,4h1v1c0.9,0,2.1,0,3,0v-1h1v-1c-0.5,0-1.5,0-2,0v1h-1c0-0.5,0-1.5,0-2
		c0.9,0,2.1,0,3,0c0-0.5,0-1.5,0-2h-1V41z M147,43h-1v-1h1V43z"/>
	<path d="M136,41v1h-1v-1h-1c0,1.9,0,4.1,0,6c0.5,0,1.5,0,2,0c0-1.3,0-2.7,0-4h1v-1h1v-1C137.5,41,136.5,41,136,41z"/>
	<path class="st0" d="M95,42c0,1.3,0,2.7,0,4h1v-1h1c0-1.3,0-2.7,0-4h-1v-1h-1C95,40.5,95,41.5,95,42z"/>
	<path d="M183,41c3,0,6,0,9,0v-1c-3.6,0-7.4,0-11,0v1C181.5,41,182.5,41,183,41z"/>
	<path d="M142,40v-1c-0.5,0-1.5,0-2,0c0,0.5,0,1.5,0,2h-1v1h1c0,1.3,0,2.7,0,4h1v1c0.5,0,1.5,0,2,0v-1h-1c0-1.3,0-2.7,0-4h1v-1h-1
		V40z"/>
	<path d="M123,39c0,0.5,0,1.5,0,2h-1v1h1c0,1.3,0,2.7,0,4h1v1c0.5,0,1.5,0,2,0v-1h-1c0-1.3,0-2.7,0-4h1v-1h-1c0-0.5,0-1.5,0-2
		C124.5,39,123.5,39,123,39z"/>
	<path d="M100,35v1c0.5,0,1.5,0,2,0c0-0.5,0-1.5,0-2c0.5,0,1.5,0,2,0v-1h1c0-1.3,0-2.7,0-4h-1v-1c-0.5,0-1.5,0-2,0v1h1
		c0,1.3,0,2.7,0,4h-1c0-1.3,0-2.7,0-4h-1v-1h-1C100,30.3,100,32.7,100,35z"/>
	<path d="M205,34c0.9,0,2.1,0,3,0v-1h1c0-1.3,0-2.7,0-4h-1v-1c-0.9,0-2.1,0-3,0v1h-1c0,1.3,0,2.7,0,4h1V34z M206,32c0-0.9,0-2.1,0-3
		h1c0,1.3,0,2.7,0,4h-1V32z"/>
	<path d="M158,34c0.9,0,2.1,0,3,0c0-0.5,0-1.5,0-2h-1v1h-1c0-1.3,0-2.7,0-4h1v1h1c0-0.5,0-1.5,0-2c-0.9,0-2.1,0-3,0v1h-1
		c0,1.3,0,2.7,0,4h1V34z"/>
	<path d="M152,34c0.9,0,2.1,0,3,0v-1h1v-1c-0.5,0-1.5,0-2,0v1h-1c0-0.5,0-1.5,0-2c0.9,0,2.1,0,3,0c0-0.5,0-1.5,0-2h-1v-1
		c-0.9,0-2.1,0-3,0v1h-1c0,1.3,0,2.7,0,4h1V34z M154,29v1h-1v-1H154z"/>
	<path d="M125,34c0.9,0,2.1,0,3,0v-1h1v-1c-0.5,0-1.5,0-2,0v1h-1c0-0.5,0-1.5,0-2c0.9,0,2.1,0,3,0c0-0.5,0-1.5,0-2h-1v-1
		c-0.9,0-2.1,0-3,0v1h-1c0,1.3,0,2.7,0,4h1V34z M127,29v1h-1v-1H127z"/>
	<path d="M113,34c0.5,0,1.5,0,2,0v-1h-1c0-0.5,0-1.5,0-2h1c0,0.5,0,1.5,0,2h1v1c0.5,0,1.5,0,2,0v-1h-1c0-1.3,0-2.7,0-4h-1v-1
		c-0.9,0-2.1,0-3,0v1c0.5,0,1.5,0,2,0v1c-0.5,0-1.5,0-2,0v1h-1c0,0.5,0,1.5,0,2h1V34z"/>
	<path d="M94,34c1.3,0,2.7,0,4,0v-1h1c0-2.3,0-4.7,0-7c-0.5,0-1.5,0-2,0c0,2.3,0,4.7,0,7c-0.5,0-1.5,0-2,0c0-2.3,0-4.7,0-7
		c-0.5,0-1.5,0-2,0c0,2.3,0,4.7,0,7h1V34z"/>
	<path class="st0" d="M207,32c0-0.9,0-2.1,0-3h-1c0,1.3,0,2.7,0,4h1V32z"/>
	<path class="st0" d="M219,31h-1c0,0.5,0,1.5,0,2h1v-1c0.5,0,1.5,0,2,0v-1C220.5,31,219.5,31,219,31z"/>
	<path class="st0" d="M213,31c0-0.5,0-1.5,0-2h-1c0,1.3,0,2.7,0,4h1C213,32.5,213,31.5,213,31z"/>
	<path class="st0" d="M115,31h-1c0,0.5,0,1.5,0,2h1C115,32.5,115,31.5,115,31z"/>
	<path class="st0" d="M109,31c0-0.5,0-1.5,0-2h-1c0,1.3,0,2.7,0,4h1C109,32.5,109,31.5,109,31z"/>
	<path class="st0" d="M135,30c0,0.9,0,2.1,0,3h1v-1h1v-1h-1v-1H135z"/>
	<path class="st0" d="M102,31c0,0.5,0,1.5,0,2h1c0-1.3,0-2.7,0-4h-1C102,29.5,102,30.5,102,31z"/>
	<rect x="218" y="29" class="st0" width="1" height="1"/>
	<rect x="176" y="29" class="st0" width="1" height="1"/>
	<path class="st0" d="M164,30c0,0.9,0,2.1,0,3h1c0-1.3,0-2.7,0-4h-1V30z"/>
	<rect x="153" y="29" class="st0" width="1" height="1"/>
	<rect x="126" y="29" class="st0" width="1" height="1"/>
	<path class="st0" d="M115,30v-1c-0.5,0-1.5,0-2,0v1C113.5,30,114.5,30,115,30z"/>
	<rect x="112" y="29" width="1" height="1"/>
	<path d="M220,28c-0.9,0-2.1,0-3,0v1h-1c0,1.3,0,2.7,0,4h1v1c0.9,0,2.1,0,3,0v-1h1v-1c-0.5,0-1.5,0-2,0v1h-1c0-0.5,0-1.5,0-2
		c0.9,0,2.1,0,3,0c0-0.5,0-1.5,0-2h-1V28z M219,30h-1v-1h1V30z"/>
	<path d="M185,28c0,1.3,0,2.7,0,4h1v1h1c0,0.5,0,1.5,0,2h-1v1c0.5,0,1.5,0,2,0v-1h1c0-0.5,0-1.5,0-2h1c0-1.6,0-3.4,0-5
		c-0.5,0-1.5,0-2,0c0,1.3,0,2.7,0,4h-1c0-1.3,0-2.7,0-4C186.5,28,185.5,28,185,28z"/>
	<path d="M180,28c0,1.9,0,4.1,0,6c0.5,0,1.5,0,2,0c0-1.3,0-2.7,0-4h1v-1h1v-1c-0.5,0-1.5,0-2,0v1h-1v-1H180z"/>
	<path d="M177,28c-0.5,0-1.5,0-2,0v1h-1c0,1.3,0,2.7,0,4h1v1c0.9,0,2.1,0,3,0v-1h1v-1c-0.5,0-1.5,0-2,0v1h-1c0-0.5,0-1.5,0-2
		c0.9,0,2.1,0,3,0c0-0.5,0-1.5,0-2h-1v-1H177z M177,30h-1v-1h1V30z"/>
	<path d="M168,28c0,0.9,0,2.1,0,3h1c0,0.5,0,1.5,0,2h1v1h1v-1h1c0-0.5,0-1.5,0-2h1c0-0.9,0-2.1,0-3c-0.5,0-1.5,0-2,0
		c0,1.3,0,2.7,0,4h-1c0-1.3,0-2.7,0-4C169.5,28,168.5,28,168,28z"/>
	<path d="M165,28c-0.5,0-1.5,0-2,0v1h-1c0,1.3,0,2.7,0,4h1v1c0.9,0,2.1,0,3,0v-1h1c0-1.3,0-2.7,0-4h-1v-1H165z M165,30
		c0,0.9,0,2.1,0,3h-1c0-1.3,0-2.7,0-4h1V30z"/>
	<path class="st0" d="M135,29h1c0-0.5,0-1.5,0-2h-1C135,27.5,135,28.5,135,29z"/>
	<path d="M213,28c-0.5,0-1.5,0-2,0v1h-1c0,1.3,0,2.7,0,4h1v1c1.3,0,2.7,0,4,0c0-2.6,0-5.4,0-8c-0.5,0-1.5,0-2,0
		C213,26.5,213,27.5,213,28z M212,33c0-1.3,0-2.7,0-4h1c0,1.3,0,2.7,0,4H212z"/>
	<path d="M194,28c0,1.9,0,4.1,0,6c0.5,0,1.5,0,2,0c0-1.3,0-2.7,0-4h1c0,0.5,0,1.5,0,2h1c0,0.5,0,1.5,0,2h1c0-0.5,0-1.5,0-2h1
		c0-0.5,0-1.5,0-2h1c0,1.3,0,2.7,0,4c0.5,0,1.5,0,2,0c0-2.6,0-5.4,0-8c-0.5,0-1.5,0-2,0v1h-1c0,0.5,0,1.5,0,2h-1c0,0.5,0,1.5,0,2h-1
		c0-0.5,0-1.5,0-2h-1c0-0.5,0-1.5,0-2h-1v-1c-0.5,0-1.5,0-2,0C194,26.5,194,27.5,194,28z"/>
	<path class="st0" d="M146,27c0,0.9,0,2.1,0,3c0.5,0,1.5,0,2,0c0-0.9,0-2.1,0-3C147.5,27,146.5,27,146,27z"/>
	<path d="M144,28c0,1.9,0,4.1,0,6c0.5,0,1.5,0,2,0c0-0.9,0-2.1,0-3c0.5,0,1.5,0,2,0c0,0.9,0,2.1,0,3c0.5,0,1.5,0,2,0
		c0-0.9,0-2.1,0-3h-1v-1h1c0-0.9,0-2.1,0-3c-0.5,0-1.5,0-2,0c0,0.9,0,2.1,0,3c-0.5,0-1.5,0-2,0c0-0.9,0-2.1,0-3c0.5,0,1.5,0,2,0v-1
		c-1.3,0-2.7,0-4,0C144,26.5,144,27.5,144,28z"/>
	<path d="M133,27c0,0.5,0,1.5,0,2h1v1h-1c0,0.9,0,2.1,0,3h1v1c0.9,0,2.1,0,3,0v-1h1v1c0.5,0,1.5,0,2,0v-1h-1c0-0.5,0-1.5,0-2h1v-1
		c-0.9,0-2.1,0-3,0v-1h1c0-0.5,0-1.5,0-2h-1v-1c-0.9,0-2.1,0-3,0v1H133z M137,31v1h-1v1h-1c0-0.9,0-2.1,0-3h1v1H137z M136,27
		c0,0.5,0,1.5,0,2h-1c0-0.5,0-1.5,0-2H136z"/>
	<path d="M120,28h-1v1h1c0,1.3,0,2.7,0,4h1v1c0.5,0,1.5,0,2,0v-1h-1c0-1.3,0-2.7,0-4h1v-1h-1c0-0.5,0-1.5,0-2c-0.5,0-1.5,0-2,0
		C120,26.5,120,27.5,120,28z"/>
	<path d="M109,28c-0.5,0-1.5,0-2,0v1h-1c0,1.3,0,2.7,0,4h1v1c1.3,0,2.7,0,4,0c0-2.6,0-5.4,0-8c-0.5,0-1.5,0-2,0
		C109,26.5,109,27.5,109,28z M108,33c0-1.3,0-2.7,0-4h1c0,1.3,0,2.7,0,4H108z"/>
	<path class="st0" d="M95,28c0,1.6,0,3.4,0,5c0.5,0,1.5,0,2,0c0-2.3,0-4.7,0-7c-0.5,0-1.5,0-2,0C95,26.5,95,27.5,95,28z"/>
	<path class="st0" d="M220,26c-1.6,0-3.4,0-5,0c0,2.6,0,5.4,0,8c-1.3,0-2.7,0-4,0v-1h-1c0-1.3,0-2.7,0-4h1v-1c0.5,0,1.5,0,2,0
		c0-0.5,0-1.5,0-2c-3.3,0-6.7,0-10,0c0,2.6,0,5.4,0,8c-0.5,0-1.5,0-2,0c0-1.3,0-2.7,0-4h-1c0,0.5,0,1.5,0,2h-1c0,0.5,0,1.5,0,2h-1
		c0-0.5,0-1.5,0-2h-1c0-0.5,0-1.5,0-2h-1c0,1.3,0,2.7,0,4c-0.5,0-1.5,0-2,0c0-2.6,0-5.4,0-8c-15.3,0-30.7,0-46,0v1c0.5,0,1.5,0,2,0
		c0,0.9,0,2.1,0,3h-1v1h1c0,0.9,0,2.1,0,3c-0.5,0-1.5,0-2,0c0-0.9,0-2.1,0-3c-0.5,0-1.5,0-2,0c0,0.9,0,2.1,0,3c-0.5,0-1.5,0-2,0
		c0-2.6,0-5.4,0-8c-2.3,0-4.7,0-7,0v1h1c0,0.5,0,1.5,0,2h-1v1c0.9,0,2.1,0,3,0v1h-1c0,0.5,0,1.5,0,2h1v1c-0.5,0-1.5,0-2,0v-1h-1v1
		c-0.9,0-2.1,0-3,0v-1h-1c0-0.9,0-2.1,0-3h1v-1h-1c0-0.5,0-1.5,0-2h1v-1c-4,0-8,0-12,0c0,0.5,0,1.5,0,2h1v1h-1c0,1.3,0,2.7,0,4h1v1
		c-0.5,0-1.5,0-2,0v-1h-1c0-1.3,0-2.7,0-4h-1v-1h1c0-0.5,0-1.5,0-2c-3,0-6,0-9,0c0,2.6,0,5.4,0,8c-1.3,0-2.7,0-4,0v-1h-1
		c0-1.3,0-2.7,0-4h1v-1c0.5,0,1.5,0,2,0c0-0.5,0-1.5,0-2c-3.3,0-6.7,0-10,0c0,2.3,0,4.7,0,7h-1v1c-1.3,0-2.7,0-4,0v-1h-1
		c0,1.9,0,4.1,0,6c1.3,0,2.7,0,4,0v1h1v1h1c0,1.3,0,2.7,0,4h-1v1h-1v1c-1.3,0-2.7,0-4,0c0,4.3,0,8.7,0,13c1.9,0,4.1,0,6,0v1
		c1.9,0,4.1,0,6,0v1c3,0,6,0,9,0v1c3.3,0,6.7,0,10,0v-1c2.3,0,4.7,0,7,0v-1c1.6,0,3.4,0,5,0v-1c0.9,0,2.1,0,3,0v-1c0.5,0,1.5,0,2,0
		v-1c0.5,0,1.5,0,2,0v-1h1v-1c0.5,0,1.5,0,2,0v-1h1v-1h1v-1c0.5,0,1.5,0,2,0v-1c0.5,0,1.5,0,2,0v-1c0.5,0,1.5,0,2,0v-1
		c0.5,0,1.5,0,2,0v-1c1.9,0,4.1,0,6,0c0-0.9,0-2.1,0-3h1v-1h1v-1h1v-1c1.3,0,2.7,0,4,0v1c0.9,0,2.1,0,3,0v-1c0.5,0,1.5,0,2,0v-1
		c0.9,0,2.1,0,3,0v-1c1.3,0,2.7,0,4,0v-1c3.6,0,7.4,0,11,0v1c0.9,0,2.1,0,3,0v1c0.5,0,1.5,0,2,0v1c0.5,0,1.5,0,2,0v1h1v1h1v1h1v1h1
		c0,0.5,0,1.5,0,2h1c0,0.5,0,1.5,0,2h1c0,1.3,0,2.7,0,4h1v-1c0.9,0,2.1,0,3,0v-1c2.3,0,4.7,0,7,0v1c0.5,0,1.5,0,2,0v1h1
		c0,0.5,0,1.5,0,2h1c0,3,0,6,0,9h-1c0,0.9,0,2.1,0,3h-1c0,1.3,0,2.7,0,4h-1c0,0.9,0,2.1,0,3h-1c0,0.9,0,2.1,0,3h1v1h1v1h1v1h1v1h1
		c0-16.7,0-33.3,0-50h-1v1c-0.9,0-2.1,0-3,0v-1h-1c0-1.3,0-2.7,0-4h1v-1c0.9,0,2.1,0,3,0v1h1c0-0.9,0-2.1,0-3H220z M106,40v-1
		c0.5,0,1.5,0,2,0c0,2.3,0,4.7,0,7c0.5,0,1.5,0,2,0c0-2.3,0-4.7,0-7c0.5,0,1.5,0,2,0c0,2.3,0,4.7,0,7h-1v1c-1.3,0-2.7,0-4,0v-1h-1
		C106,44.1,106,41.9,106,40z M157,32c0-0.9,0-2.1,0-3h1v-1c0.9,0,2.1,0,3,0c0,0.5,0,1.5,0,2h-1v-1h-1c0,1.3,0,2.7,0,4h1v-1h1
		c0,0.5,0,1.5,0,2c-0.9,0-2.1,0-3,0v-1h-1V32z M170,29c0,0.9,0,2.1,0,3h1c0-1.3,0-2.7,0-4c0.5,0,1.5,0,2,0c0,0.9,0,2.1,0,3h-1
		c0,0.5,0,1.5,0,2h-1v1h-1v-1h-1c0-0.5,0-1.5,0-2h-1c0-0.9,0-2.1,0-3c0.5,0,1.5,0,2,0V29z M182,29v-1c0.5,0,1.5,0,2,0v1h-1v1h-1
		c0,1.3,0,2.7,0,4c-0.5,0-1.5,0-2,0c0-1.9,0-4.1,0-6h1v1H182z M187,29c0,0.9,0,2.1,0,3h1c0-1.3,0-2.7,0-4c0.5,0,1.5,0,2,0
		c0,1.6,0,3.4,0,5h-1c0,0.5,0,1.5,0,2h-1v1c-0.5,0-1.5,0-2,0v-1h1c0-0.5,0-1.5,0-2h-1v-1h-1c0-1.3,0-2.7,0-4c0.5,0,1.5,0,2,0V29z
		 M149,43v1c-0.9,0-2.1,0-3,0c0,0.5,0,1.5,0,2h1v-1c0.5,0,1.5,0,2,0v1h-1v1c-0.9,0-2.1,0-3,0v-1h-1c0-1.3,0-2.7,0-4h1v-1
		c0.9,0,2.1,0,3,0v1h1V43z M143,42h-1c0,1.3,0,2.7,0,4h1v1c-0.5,0-1.5,0-2,0v-1h-1c0-1.3,0-2.7,0-4h-1v-1h1c0-0.5,0-1.5,0-2
		c0.5,0,1.5,0,2,0c0,0.5,0,1.5,0,2h1V42z M116,45c0.5,0,1.5,0,2,0v1h1c0-0.5,0-1.5,0-2c-0.5,0-1.5,0-2,0v-1h-1v-1h1v-1
		c0.9,0,2.1,0,3,0v1h1v1h-1v1h1c0,0.5,0,1.5,0,2h-1v1c-0.9,0-2.1,0-3,0v-1h-1V45z M133,47c-0.5,0-1.5,0-2,0v-1h-1v1
		c-0.5,0-1.5,0-2,0v-1h-1c0-0.5,0-1.5,0-2h1v-1h-1v-1h1v-1c0.9,0,2.1,0,3,0v1h1c0,1.3,0,2.7,0,4h1V47z M125,40v1h1v1h-1
		c0,1.3,0,2.7,0,4h1v1c-0.5,0-1.5,0-2,0v-1h-1c0-1.3,0-2.7,0-4h-1v-1h1c0-0.5,0-1.5,0-2c0.5,0,1.5,0,2,0V40z M138,42h-1v1h-1
		c0,1.3,0,2.7,0,4c-0.5,0-1.5,0-2,0c0-1.9,0-4.1,0-6h1v1h1v-1c0.5,0,1.5,0,2,0V42z M179,29c0,0.5,0,1.5,0,2c-0.9,0-2.1,0-3,0
		c0,0.5,0,1.5,0,2h1v-1c0.5,0,1.5,0,2,0v1h-1v1c-0.9,0-2.1,0-3,0v-1h-1c0-1.3,0-2.7,0-4h1v-1c0.9,0,2.1,0,3,0v1H179z M167,29
		c0,1.3,0,2.7,0,4h-1v1c-0.9,0-2.1,0-3,0v-1h-1c0-1.3,0-2.7,0-4h1v-1c0.9,0,2.1,0,3,0v1H167z M154,47c-0.9,0-2.1,0-3,0v-1h-1
		c0-1.3,0-2.7,0-4h1v-1c0.5,0,1.5,0,2,0c0-0.5,0-1.5,0-2c0.5,0,1.5,0,2,0c0,2.6,0,5.4,0,8H154z M204,32c0-0.9,0-2.1,0-3h1v-1
		c0.9,0,2.1,0,3,0v1h1c0,1.3,0,2.7,0,4h-1v1c-0.9,0-2.1,0-3,0v-1h-1V32z M151,32c0-0.9,0-2.1,0-3h1v-1c0.9,0,2.1,0,3,0v1h1
		c0,0.5,0,1.5,0,2c-0.9,0-2.1,0-3,0c0,0.5,0,1.5,0,2h1v-1c0.5,0,1.5,0,2,0v1h-1v1c-0.9,0-2.1,0-3,0v-1h-1V32z M124,32
		c0-0.9,0-2.1,0-3h1v-1c0.9,0,2.1,0,3,0v1h1c0,0.5,0,1.5,0,2c-0.9,0-2.1,0-3,0c0,0.5,0,1.5,0,2h1v-1c0.5,0,1.5,0,2,0v1h-1v1
		c-0.9,0-2.1,0-3,0v-1h-1V32z M112,32v-1h1v-1h-1v-1h1v-1c0.9,0,2.1,0,3,0v1h1c0,1.3,0,2.7,0,4h1v1c-0.5,0-1.5,0-2,0v-1h-1v1
		c-0.5,0-1.5,0-2,0v-1h-1V32z M100,32c0-1.3,0-2.7,0-4h1v1h1v-1c0.5,0,1.5,0,2,0v1h1c0,1.3,0,2.7,0,4h-1v1c-0.5,0-1.5,0-2,0
		c0,0.5,0,1.5,0,2c-0.5,0-1.5,0-2,0C100,34.7,100,33.3,100,32z M100,44c0-1.6,0-3.4,0-5c1.6,0,3.4,0,5,0v1c-0.9,0-2.1,0-3,0
		c0,0.5,0,1.5,0,2c0.5,0,1.5,0,2,0v1c-0.5,0-1.5,0-2,0c0,1.3,0,2.7,0,4c-0.5,0-1.5,0-2,0C100,46.1,100,44.9,100,44z"/>
	<path class="st0" d="M197,27c0,0.5,0,1.5,0,2h1c0,0.5,0,1.5,0,2h1c0-0.5,0-1.5,0-2h1c0-0.5,0-1.5,0-2h1v-1c-1.6,0-3.4,0-5,0v1H197z
		"/>
</g>
</svg>
