#define pngtest_width 128
#define pngtest_height 64
static char pngtest_bits[] = {
  0x00, 0x00, 0x00, 0x00, 0x00, 0x00, 0x00, 0x00, 0x00, 0x00, 0x00, 0x00, 
  0x00, 0x00, 0x00, 0x00, 0x00, 0x00, 0x00, 0x00, 0x00, 0x00, 0x00, 0x00, 
  0x00, 0x00, 0x00, 0x00, 0x00, 0x00, 0x00, 0x00, 0x00, 0x00, 0x00, 0x00, 
  0x00, 0x00, 0x00, 0x00, 0x00, 0x00, 0x00, 0x00, 0x00, 0x00, 0x00, 0x00, 
  0x00, 0x00, 0x00, 0x00, 0x00, 0x00, 0x00, 0x00, 0x00, 0x00, 0x00, 0x00, 
  0x00, 0x00, 0x00, 0x00, 0x00, 0x00, 0x00, 0x00, 0x00, 0x00, 0x00, 0x00, 
  0x00, 0x00, 0x00, 0x00, 0x00, 0x00, 0x00, 0x00, 0x00, 0x00, 0x00, 0x00, 
  0x00, 0x00, 0x00, 0x00, 0x00, 0x00, 0x00, 0x00, 0x00, 0x00, 0x00, 0x00, 
  0x00, 0x00, 0x00, 0x00, 0x00, 0x00, 0x00, 0x00, 0x00, 0x00, 0x00, 0x00, 
  0x00, 0x00, 0x00, 0x00, 0x00, 0x00, 0x00, 0x00, 0x00, 0x00, 0x00, 0x00, 
  0x00, 0x00, 0x00, 0x00, 0x00, 0x00, 0x00, 0x00, 0x00, 0x00, 0x00, 0x00, 
  0x00, 0x00, 0x00, 0x00, 0x00, 0x00, 0x00, 0x00, 0x00, 0x00, 0x00, 0x00, 
  0x00, 0x00, 0x00, 0x00, 0x00, 0x00, 0x00, 0x00, 0x00, 0x00, 0x00, 0x00, 
  0x00, 0x00, 0x00, 0x00, 0x00, 0x00, 0x00, 0x00, 0x00, 0x00, 0x00, 0x00, 
  0x00, 0x00, 0x00, 0x00, 0x00, 0x00, 0x00, 0x00, 0x00, 0x00, 0x00, 0x00, 
  0x00, 0x00, 0x00, 0x00, 0x00, 0x00, 0x00, 0x00, 0x00, 0x00, 0x00, 0x00, 
  0x00, 0x00, 0x00, 0x00, 0x00, 0x00, 0x00, 0x00, 0x00, 0x00, 0x00, 0x00, 
  0x00, 0x00, 0x00, 0x00, 0x00, 0x00, 0x00, 0x00, 0x00, 0x00, 0x00, 0x00, 
  0x00, 0x00, 0x00, 0x00, 0x00, 0x00, 0x00, 0x00, 0x00, 0x00, 0x00, 0x00, 
  0x00, 0x00, 0x00, 0x00, 0x00, 0x00, 0x00, 0x00, 0x00, 0x00, 0x00, 0x00, 
  0x00, 0x00, 0xF0, 0xFF, 0x07, 0x00, 0x00, 0x00, 0x00, 0x00, 0x00, 0x00, 
  0x00, 0x00, 0x00, 0x00, 0x00, 0x00, 0x1F, 0x00, 0xFC, 0x00, 0x00, 0x00, 
  0x00, 0x00, 0x00, 0x00, 0x00, 0x00, 0x00, 0x00, 0x00, 0xE0, 0x01, 0x00, 
  0xE8, 0x07, 0x00, 0x00, 0x00, 0x00, 0x00, 0x00, 0x00, 0x00, 0x00, 0x00, 
  0x00, 0xF0, 0xFF, 0x01, 0x14, 0x1C, 0x00, 0x00, 0x00, 0x00, 0x00, 0x00, 
  0x00, 0x00, 0x00, 0x00, 0x00, 0x1C, 0x00, 0x0E, 0x0A, 0x7C, 0x00, 0x00, 
  0x00, 0x00, 0x00, 0x00, 0x00, 0x00, 0x00, 0x00, 0x00, 0x07, 0x00, 0x70, 
  0x05, 0xC2, 0x00, 0x00, 0x00, 0x00, 0x00, 0x00, 0x00, 0x00, 0x00, 0x00, 
  0x80, 0x01, 0x00, 0xA0, 0x03, 0x81, 0x01, 0x00, 0x00, 0x00, 0x00, 0x00, 
  0x00, 0x00, 0x00, 0x00, 0xC0, 0x00, 0x00, 0x50, 0x81, 0x10, 0x03, 0x00, 
  0x00, 0x00, 0xC0, 0x30, 0x00, 0x00, 0x00, 0x00, 0x60, 0x00, 0x00, 0xA8, 
  0x40, 0x20, 0x06, 0x00, 0x00, 0x00, 0xC0, 0x30, 0x00, 0x00, 0x00, 0x00, 
  0x30, 0x00, 0x00, 0x54, 0x20, 0x42, 0x04, 0x00, 0x00, 0x00, 0xC0, 0x30, 
  0x00, 0x00, 0x00, 0x00, 0x18, 0x00, 0x00, 0x68, 0x10, 0x84, 0x0C, 0xF8, 
  0x0F, 0x00, 0xC0, 0x30, 0x8F, 0x19, 0x00, 0x00, 0x08, 0x00, 0x00, 0x34, 
  0x08, 0x08, 0x0C, 0x0E, 0x78, 0x00, 0xC0, 0x30, 0x8F, 0x19, 0x00, 0x00, 
  0x0C, 0x00, 0x00, 0x2A, 0x88, 0x10, 0x9E, 0x03, 0xC0, 0x00, 0xC0, 0xBF, 
  0x99, 0x19, 0x00, 0x00, 0x04, 0x00, 0xFF, 0x17, 0x04, 0x01, 0xF1, 0x00, 
  0x80, 0x00, 0xC0, 0xBF, 0x9F, 0x19, 0x00, 0x00, 0x06, 0xC0, 0x00, 0x1E, 
  0x04, 0xC2, 0x30, 0x00, 0xF8, 0x00, 0xC0, 0xB0, 0x9F, 0x19, 0x00, 0x00, 
  0x02, 0x20, 0xFE, 0x08, 0x04, 0x20, 0x08, 0x00, 0xFF, 0x00, 0xC0, 0xB0, 
  0x81, 0x99, 0x01, 0x00, 0x03, 0x90, 0x01, 0x13, 0x08, 0x18, 0x06, 0xC0, 
  0x7F, 0x00, 0xC0, 0xB0, 0x8F, 0x9F, 0x01, 0x00, 0x01, 0x48, 0x00, 0x24, 
  0x10, 0x06, 0x01, 0xF0, 0x3F, 0x00, 0xC0, 0x30, 0x0F, 0x9F, 0x01, 0x00, 
  0x01, 0x24, 0x7C, 0x48, 0xE0, 0xC1, 0x00, 0xF8, 0x1F, 0x00, 0x00, 0x00, 
  0x00, 0xD8, 0x00, 0x00, 0x00, 0x14, 0xFF, 0x51, 0x00, 0x20, 0x00, 0xFC, 
  0x0F, 0x00, 0x00, 0x00, 0x00, 0xDF, 0x00, 0x00, 0x00, 0x92, 0xFF, 0x93, 
  0x00, 0x18, 0x00, 0xFE, 0x07, 0x00, 0x00, 0x00, 0x00, 0x0F, 0x00, 0x00, 
  0x00, 0x8A, 0xFF, 0xA3, 0x00, 0x04, 0x00, 0xFF, 0x03, 0x00, 0x00, 0x00, 
  0x00, 0x00, 0x00, 0x00, 0x00, 0xCA, 0xF3, 0xA7, 0x00, 0x03, 0x80, 0xFF, 
  0x01, 0x00, 0x00, 0x00, 0x00, 0x00, 0x00, 0x00, 0x00, 0xCA, 0xF3, 0xA7, 
  0xC0, 0x00, 0xC0, 0xFF, 0x00, 0x00, 0x00, 0x00, 0x00, 0x00, 0x00, 0x00, 
  0x00, 0xCA, 0xFF, 0xA7, 0x30, 0x00, 0xE0, 0x7F, 0x00, 0x00, 0x00, 0x00, 
  0x00, 0x00, 0x00, 0x00, 0x00, 0xCA, 0xFF, 0xA7, 0x0C, 0x00, 0xF0, 0x3F, 
  0x00, 0x00, 0x00, 0x00, 0x00, 0x00, 0x00, 0x00, 0x00, 0xCA, 0xFF, 0xA7, 
  0x03, 0x00, 0xF8, 0x1F, 0x00, 0x00, 0x00, 0x00, 0x00, 0x00, 0x00, 0x00, 
  0x40, 0x8B, 0xFF, 0x2F, 0x00, 0x00, 0xFC, 0x0F, 0x00, 0x00, 0x00, 0x00, 
  0x00, 0x06, 0xC0, 0x00, 0xA0, 0x92, 0x3F, 0x30, 0x00, 0x00, 0xFE, 0x07, 
  0x00, 0x00, 0x00, 0x00, 0x00, 0x06, 0xC0, 0x00, 0x50, 0x15, 0x07, 0x00, 
  0x00, 0x00, 0xFF, 0x03, 0x00, 0x00, 0x00, 0x00, 0x00, 0x06, 0xC0, 0x00, 
  0xA8, 0x26, 0x01, 0x00, 0x00, 0x80, 0xFF, 0x01, 0x00, 0x00, 0xE0, 0x3B, 
  0x7C, 0x9F, 0xC7, 0x00, 0x50, 0xCD, 0x00, 0x00, 0x00, 0xC0, 0xFF, 0x00, 
  0x00, 0x00, 0xE0, 0x3B, 0x7C, 0x9F, 0xC7, 0x00, 0xA8, 0xDA, 0x00, 0x00, 
  0x00, 0xE0, 0xFF, 0xFF, 0xFF, 0x01, 0x60, 0xC6, 0x66, 0xC6, 0xCC, 0x00, 
  0x50, 0x75, 0x00, 0x00, 0x00, 0xF0, 0x80, 0x07, 0x80, 0x03, 0x60, 0xC6, 
  0x66, 0xC6, 0xCF, 0x00, 0xA8, 0x6A, 0x00, 0x00, 0x00, 0x78, 0x00, 0x18, 
  0x60, 0x02, 0x60, 0xC6, 0x66, 0xC6, 0xCF, 0x00, 0x50, 0x55, 0x00, 0x00, 
  0x00, 0x3E, 0x00, 0x60, 0x1C, 0x02, 0x60, 0xC6, 0x66, 0xC6, 0x00, 0x00, 
  0xA0, 0x0A, 0x00, 0x10, 0x80, 0x1F, 0x00, 0xC0, 0x03, 0x02, 0x60, 0xC6, 
  0x7E, 0xC6, 0xC7, 0x00, 0x40, 0x05, 0x00, 0x60, 0xF0, 0x1F, 0x00, 0x3E, 
  0x00, 0x03, 0x60, 0xC6, 0x7C, 0x86, 0xC7, 0x00, 0x00, 0x00, 0x00, 0x80, 
  0xFF, 0xFF, 0xFF, 0x01, 0x80, 0x01, 0x00, 0x00, 0x00, 0x00, 0x00, 0x00, 
  0x00, 0x00, 0x00, 0x00, 0x00, 0x00, 0x00, 0x00, 0xC0, 0x00, 0x00, 0x00, 
  0x00, 0x00, 0x00, 0x00, 0x00, 0x00, 0x00, 0x00, 0x00, 0x00, 0x00, 0x00, 
  0x60, 0x00, 0x00, 0x00, 0x00, 0x00, 0x00, 0x00, 0x00, 0x00, 0x00, 0x00, 
  0x00, 0x00, 0x00, 0x00, 0x38, 0x00, 0x00, 0x00, 0x00, 0x00, 0x00, 0x00, 
  0x00, 0x00, 0x00, 0x00, 0x00, 0x00, 0x00, 0x00, 0x0F, 0x00, 0x00, 0x00, 
  0x00, 0x00, 0x00, 0x00, 0x00, 0x00, 0x00, 0x00, 0x00, 0x00, 0x00, 0xE0, 
  0x01, 0x00, 0x00, 0x00, 0x00, 0x00, 0x00, 0x00, 0x00, 0x00, 0x00, 0x00, 
  0x00, 0x00, 0x00, 0x3C, 0x00, 0x00, 0x00, 0x00, 0x00, 0x00, 0x00, 0x00, 
  0x00, 0x00, 0x00, 0x00, 0x00, 0x00, 0xC0, 0x07, 0x00, 0x00, 0x00, 0x00, 
  0x00, 0x00, 0x00, 0x00, 0x00, 0x00, 0x00, 0x00, 0x00, 0x00, 0x7C, 0x00, 
  0x00, 0x00, 0x00, 0x00, 0x00, 0x00, 0x00, 0x00, 0x00, 0x00, 0x00, 0x00, 
  0x00, 0x80, 0x7F, 0x00, 0x00, 0x00, 0x00, 0x00, 0x00, 0x00, 0x00, 0x00, 
  0x00, 0x00, 0x00, 0x00, 0x00, 0xC0, 0x1F, 0x00, 0x00, 0x00, 0x00, 0x00, 
  0x00, 0x00, 0x00, 0x00, };
