#define updating_width 128
#define updating_height 64
static char updating_bits[] = {
  0x00, 0x00, 0x00, 0x00, 0x00, 0x00, 0x00, 0x00, 0x00, 0x00, 0x00, 0x00, 
  0x00, 0x00, 0x00, 0x00, 0x00, 0x00, 0x00, 0x00, 0x00, 0x00, 0x00, 0x00, 
  0x00, 0x00, 0x00, 0x00, 0x00, 0x00, 0x00, 0x00, 0x00, 0x00, 0x00, 0x00, 
  0x00, 0x00, 0x00, 0x00, 0x00, 0x00, 0x00, 0x00, 0x00, 0x00, 0x00, 0x00, 
  0x00, 0x00, 0x00, 0x00, 0x00, 0x00, 0x00, 0x00, 0x00, 0x00, 0x00, 0x00, 
  0x00, 0x00, 0x00, 0x00, 0x00, 0x00, 0x00, 0x00, 0x00, 0x00, 0x00, 0x00, 
  0x00, 0x00, 0x00, 0x00, 0x00, 0x00, 0x00, 0x00, 0x00, 0x00, 0x00, 0x00, 
  0x00, 0x00, 0x00, 0x00, 0x00, 0x00, 0x00, 0x00, 0x00, 0x00, 0x00, 0x00, 
  0x00, 0x00, 0x00, 0x00, 0x00, 0x00, 0x00, 0x00, 0x00, 0x00, 0x00, 0x00, 
  0x00, 0x00, 0x00, 0x00, 0x00, 0x00, 0x00, 0x00, 0x00, 0x00, 0x00, 0x00, 
  0x00, 0x00, 0x00, 0x00, 0x00, 0x00, 0x00, 0x00, 0x00, 0x00, 0x00, 0x00, 
  0x00, 0x00, 0x00, 0x00, 0x00, 0x00, 0x00, 0x00, 0x00, 0x00, 0x00, 0x00, 
  0x00, 0x00, 0x00, 0x00, 0x00, 0x00, 0x00, 0x00, 0x00, 0x00, 0x00, 0x00, 
  0x00, 0x00, 0x00, 0x00, 0x00, 0x00, 0x00, 0x00, 0x00, 0x00, 0x00, 0x00, 
  0x00, 0x00, 0x00, 0x00, 0x00, 0x00, 0x00, 0x00, 0x00, 0x00, 0x00, 0x00, 
  0x00, 0x00, 0x00, 0x00, 0x00, 0x00, 0x00, 0x00, 0x00, 0x00, 0x00, 0x00, 
  0x00, 0x00, 0x00, 0x00, 0x00, 0x00, 0x00, 0x00, 0x00, 0x00, 0x00, 0x00, 
  0x00, 0x00, 0x00, 0x00, 0x00, 0x00, 0x00, 0x00, 0x00, 0x00, 0x00, 0x00, 
  0x00, 0x00, 0x00, 0x00, 0x00, 0x00, 0x00, 0x00, 0x00, 0x00, 0x00, 0x00, 
  0x00, 0x00, 0x00, 0x00, 0x00, 0x00, 0x00, 0xFF, 0x07, 0x00, 0x00, 0x00, 
  0x00, 0x00, 0x00, 0x00, 0x00, 0x00, 0x00, 0x00, 0x00, 0x00, 0xF0, 0x00, 
  0x38, 0x00, 0x00, 0x00, 0x00, 0x00, 0x00, 0x00, 0x00, 0x00, 0x00, 0x00, 
  0x00, 0x00, 0x0E, 0x00, 0xC0, 0x00, 0x00, 0x00, 0x00, 0x00, 0x00, 0x00, 
  0x00, 0x00, 0x00, 0x00, 0x00, 0x8F, 0x01, 0x00, 0x00, 0x03, 0x00, 0x00, 
  0x00, 0x00, 0x00, 0x00, 0x00, 0x00, 0x00, 0x00, 0x80, 0x7F, 0x00, 0x00, 
  0x00, 0x04, 0x00, 0x00, 0x00, 0x00, 0x00, 0x00, 0x00, 0x00, 0x00, 0x00, 
  0xC0, 0xFF, 0x00, 0x00, 0x00, 0x08, 0x00, 0x00, 0x00, 0x00, 0x00, 0x00, 
  0x00, 0x00, 0x00, 0x00, 0xE0, 0xFF, 0x00, 0x00, 0x00, 0x10, 0x00, 0x00, 
  0x00, 0x00, 0x00, 0x00, 0x00, 0x00, 0x00, 0x00, 0xE0, 0xFF, 0x00, 0x00, 
  0x00, 0x20, 0x00, 0x00, 0x00, 0x00, 0x00, 0x00, 0x00, 0x00, 0x00, 0x00, 
  0xE0, 0x75, 0x00, 0x00, 0xF0, 0x3F, 0x00, 0x00, 0x00, 0x00, 0x00, 0x00, 
  0x00, 0x00, 0x00, 0x80, 0xFF, 0x0A, 0x00, 0x00, 0x0F, 0x60, 0x00, 0x00, 
  0x00, 0x00, 0x00, 0x00, 0x00, 0x00, 0x00, 0x60, 0xE0, 0x0F, 0x00, 0xC0, 
  0xE0, 0x4F, 0x00, 0x00, 0x00, 0x00, 0x00, 0x00, 0x00, 0x00, 0x00, 0x18, 
  0x00, 0x18, 0x00, 0x30, 0x1E, 0x90, 0x00, 0x00, 0x00, 0x00, 0x00, 0x00, 
  0x00, 0x00, 0x00, 0x06, 0x00, 0x18, 0x00, 0x8C, 0x01, 0xA0, 0x00, 0x00, 
  0x00, 0x00, 0x00, 0x00, 0x00, 0x00, 0x80, 0x81, 0xFF, 0x19, 0x00, 0x63, 
  0x00, 0xC0, 0xF0, 0x07, 0x00, 0x00, 0x00, 0x00, 0x00, 0x00, 0x40, 0x60, 
  0x5E, 0x1F, 0x80, 0x18, 0x00, 0xE0, 0x0E, 0x18, 0x00, 0x00, 0x00, 0x00, 
  0x00, 0x00, 0x20, 0x18, 0xAF, 0x0F, 0x40, 0x06, 0x00, 0xF8, 0x01, 0x20, 
  0x00, 0x00, 0x00, 0x00, 0x00, 0x00, 0x18, 0x06, 0x57, 0x01, 0x20, 0x01, 
  0x00, 0x78, 0x00, 0x3E, 0x00, 0x00, 0x00, 0x00, 0x00, 0x00, 0x84, 0x81, 
  0xAF, 0x02, 0x90, 0x00, 0x00, 0x38, 0x80, 0x41, 0x00, 0x00, 0x00, 0x00, 
  0x00, 0x00, 0x63, 0x80, 0x57, 0x01, 0x48, 0x00, 0x00, 0x10, 0x60, 0x40, 
  0x00, 0x00, 0x00, 0x00, 0x00, 0xC0, 0x10, 0x80, 0xAB, 0x00, 0x24, 0x00, 
  0x00, 0x08, 0x10, 0x40, 0x3F, 0x00, 0x00, 0x00, 0x00, 0x38, 0x0C, 0xC0, 
  0x57, 0x01, 0x12, 0x00, 0x00, 0x04, 0x08, 0x40, 0xC0, 0x0F, 0x00, 0x00, 
  0xC0, 0x07, 0x03, 0xF0, 0xAB, 0x00, 0x0A, 0x00, 0x00, 0x02, 0x04, 0x40, 
  0x00, 0xF0, 0x1F, 0x80, 0x3F, 0xC0, 0x00, 0xFC, 0x55, 0x01, 0x05, 0xE0, 
  0x00, 0x01, 0x04, 0x40, 0x00, 0x00, 0xE0, 0x7F, 0x00, 0x30, 0x00, 0xFF, 
  0xAB, 0x00, 0x05, 0xE0, 0x80, 0x00, 0x02, 0x40, 0x0F, 0x00, 0x00, 0x00, 
  0x80, 0x0F, 0xE0, 0xCF, 0x55, 0x81, 0x02, 0xF0, 0x40, 0x00, 0x02, 0x40, 
  0xF0, 0x0F, 0x00, 0x00, 0x7F, 0x00, 0xFE, 0xC3, 0xAB, 0x80, 0x02, 0x78, 
  0x20, 0x00, 0x01, 0x40, 0x00, 0xF0, 0xFF, 0xFF, 0x00, 0xF0, 0xFF, 0xC0, 
  0xD5, 0x81, 0x01, 0x7E, 0x10, 0x80, 0x00, 0x20, 0x00, 0x00, 0x00, 0x00, 
  0xC0, 0xFF, 0x0F, 0xE0, 0xFA, 0x83, 0xC1, 0x3F, 0x08, 0x80, 0x00, 0x20, 
  0x00, 0x00, 0x00, 0x00, 0xFF, 0xFF, 0x01, 0xD8, 0x07, 0x83, 0xF1, 0x1F, 
  0x04, 0x40, 0x00, 0x20, 0x00, 0xE0, 0xFF, 0xFF, 0xFF, 0x0F, 0x80, 0xC7, 
  0x01, 0x83, 0xF1, 0x0F, 0x00, 0x20, 0x00, 0x10, 0xE0, 0xFF, 0xFF, 0xFF, 
  0x3F, 0xC0, 0x7F, 0x40, 0x80, 0x83, 0xE1, 0x01, 0x00, 0x20, 0x00, 0x18, 
  0xFC, 0xFF, 0xFF, 0xFF, 0x03, 0x3F, 0x00, 0x20, 0xFC, 0x83, 0x01, 0x00, 
  0x00, 0x10, 0x00, 0x18, 0xFF, 0xFF, 0xFF, 0x3F, 0xF0, 0x00, 0x00, 0x10, 
  0xD7, 0x01, 0x03, 0x00, 0x00, 0x08, 0x00, 0x1C, 0xFF, 0xFF, 0x01, 0x00, 
  0x0F, 0x00, 0x00, 0x88, 0xAB, 0x02, 0xE3, 0x01, 0x00, 0x08, 0x00, 0x0C, 
  0xFF, 0x07, 0x00, 0xE0, 0x00, 0x00, 0x00, 0xC4, 0x55, 0x05, 0x1E, 0x00, 
  0x00, 0x04, 0x00, 0x0E, 0x7F, 0x00, 0x00, 0x1C, 0x00, 0x00, 0x00, 0xA3, 
  0xAB, 0x02, 0x06, 0x00, 0x00, 0x02, 0x00, 0x0F, 0x0F, 0x00, 0x80, 0x03, 
  0x00, 0x00, 0xC0, 0x10, 0x57, 0x05, 0x02, 0x00, 0x00, 0x01, 0x80, 0x07, 
  0x03, 0x00, 0x70, 0x00, 0x00, 0x00, 0x30, 0x08, 0xAB, 0x0A, 0x02, 0x00, 
  0xC0, 0x00, 0xC0, 0x07, 0x00, 0x00, 0x0C, 0x00, 0x00, 0x00, 0x0C, 0x84, 
  0x57, 0x15, 0x01, 0x00, 0x30, 0x00, 0xE0, 0x07, 0x00, 0x00, 0x03, 0x00, 
  0x00, 0x00, 0x03, 0xC3, 0xFF, 0x2A, 0x01, 0x00, 0x0C, 0x00, 0xF0, 0x0F, 
  0x00, 0xC0, 0x00, 0x00, 0x00, 0xE0, 0xC0, 0xE0, 0xFE, 0x55, 0x01, 0x82, 
  0x03, 0x00, 0xF8, 0x15, 0x00, 0x30, 0x00, 0x00, 0x00, 0x1C, 0x30, 0x78, 
  0xFE, 0xAA, 0x01, 0x7C, 0x00, 0x00, 0xFC, 0x23, 0x00, 0x0E, 0x00, 0x00, 
  0xC0, 0x03, 0x0C, 0x3C, 0x7F, 0x5D, 0x01, 0x00, 0x00, 0x00, 0xFF, 0x45, 
  0xC0, 0x01, 0x00, 0x00, 0x3E, 0x00, 0x02, 0x8F, 0xBF, 0xAE, 0x03, 0x00, 
  0x00, 0xC0, 0xFF, 0x82, 0x30, 0x00, 0x00, 0xC0, 0x01, 0x80, 0xC1, 0x43, 
  0xFE, 0x5D, 0x01, 0x00, 0x00, 0xF0, 0xFF, 0x05, 0x0F, 0x00, 0x80, 0x3F, 
  0x00, 0x60, 0xF0, 0x31, 0xF6, 0xAE, 0x03, 0x00, 0x00, 0xFA, 0xAF, 0x02, 
  0xFC, 0xFF, 0x7F, 0x00, 0x00, 0x18, 0x7C, 0x08, 0x23, 0xFF, 0x05, 0x00, 
  0x00, 0xFD, 0x55, 0x01, 0x00, 0x00, 0x00, 0x00, 0x00, 0x86, 0x1F, 0x84, 
  0x30, 0xFE, 0x0A, 0x00, 0x00, 0xAA, 0xAA, 0x00, 0x00, 0x00, 0x00, 0x00, 
  0x80, 0xF1, 0x07, 0x43, 0x18, 0xFF, 0x15, 0x00, 0x00, 0x54, 0x15, 0x00, 
  0x00, 0x00, 0x00, 0x00, 0xF8, 0xFF, 0x80, 0x20, 0x8C, 0xFF, 0xAA, 0x00, 
  0x00, 0x00, 0x00, 0x00, };
