<?xml version="1.0" encoding="utf-8"?>
<!-- Generator: Adobe Illustrator 25.4.1, SVG Export Plug-In . SVG Version: 6.00 Build 0)  -->
<svg version="1.1" id="Layer_2" xmlns="http://www.w3.org/2000/svg" xmlns:xlink="http://www.w3.org/1999/xlink" x="0px" y="0px"
	 viewBox="0 0 742.9 674.6" style="enable-background:new 0 0 742.9 674.6;" xml:space="preserve">
<style type="text/css">
	.st0{clip-path:url(#SVGID_00000022523060894450192160000016385009200765726089_);}
	.st1{fill:#DB4437;}
	.st2{fill:url(#SVGID_00000096764661518464625770000004483786953700681909_);}
	.st3{clip-path:url(#SVGID_00000052084247709123544540000015735076530496662708_);fill:#3E2723;fill-opacity:0.15;}
	.st4{clip-path:url(#SVGID_00000093856856066558554780000008235256243500957867_);}
	.st5{fill:#0F9D58;}
	.st6{fill:url(#SVGID_00000022528003964010086300000010810065198846359707_);}
	.st7{clip-path:url(#SVGID_00000139259087028396120800000004288449872648380303_);fill:#263238;fill-opacity:0.15;}
	.st8{clip-path:url(#SVGID_00000034811968327246242150000001760975847657619122_);}
	.st9{clip-path:url(#SVGID_00000075868519844884914370000004610374845789802925_);}
	.st10{fill:#FFCD40;}
	.st11{fill:url(#SVGID_00000141433222033791652190000007256618474988257671_);}
	.st12{clip-path:url(#SVGID_00000101811655342793467260000008104728281194837654_);}
	.st13{fill:url(#SVGID_00000121999072288521873020000000011205540984698543_);}
	.st14{clip-path:url(#SVGID_00000156586669879020958180000009426899188765867670_);}
	.st15{clip-path:url(#SVGID_00000080208902605631879200000016067206564236774821_);}
	.st16{fill:url(#SVGID_00000109740414730127601630000012370708286157286029_);}
	
		.st17{clip-path:url(#SVGID_00000037688277617274185760000003889392997978071958_);fill:url(#SVGID_00000003823896394237248030000006499477973873683082_);}
	.st18{clip-path:url(#SVGID_00000153707681862155702950000003515633295567182976_);}
	.st19{clip-path:url(#SVGID_00000168809959603719259210000001984899458501149069_);}
	.st20{fill:url(#SVGID_00000037668164489225624510000000450571277814249147_);}
	
		.st21{clip-path:url(#SVGID_00000154414629540538956700000009005548131091571378_);fill:url(#SVGID_00000025424794603996413890000009352865045516038032_);}
	
		.st22{clip-path:url(#SVGID_00000027601776488978606190000004698331500619984007_);fill:url(#SVGID_00000044170923025228545810000007864338916565977518_);}
	.st23{clip-path:url(#SVGID_00000164516086822013602260000002574561154190150832_);}
	.st24{fill:#F1F1F1;}
	.st25{fill:#4285F4;}
	.st26{clip-path:url(#SVGID_00000039111774188634617880000007091417617928707498_);}
	.st27{fill:#3E2723;fill-opacity:0.2;}
	.st28{fill:#FFFFFF;fill-opacity:0.1;}
	.st29{opacity:0.1;fill:#3E2723;enable-background:new    ;}
	.st30{fill:#FFFFFF;fill-opacity:0.2;}
	.st31{clip-path:url(#SVGID_00000123414077665876538440000018116095736751705497_);}
	.st32{fill:#3E2723;fill-opacity:0.15;}
	.st33{fill:url(#SVGID_00000172423268531961538650000013615844646567547032_);}
</style>
<g>
	<defs>
		<circle id="SVGID_1_" cx="268.1" cy="218.2" r="100"/>
	</defs>
	<clipPath id="SVGID_00000106864618891237736570000015602797048522474415_">
		<use xlink:href="#SVGID_1_"  style="overflow:visible;"/>
	</clipPath>
	<g style="clip-path:url(#SVGID_00000106864618891237736570000015602797048522474415_);">
		<path class="st1" d="M184,118.2v122.8h44.8l39.4-68.2h100v-54.6H184z"/>
		
			<linearGradient id="SVGID_00000033330569397071994300000007279009910620117651_" gradientUnits="userSpaceOnUse" x1="192.3424" y1="415.5405" x2="252.0137" y2="450.3965" gradientTransform="matrix(1 0 0 -1 0 609.8688)">
			<stop  offset="0" style="stop-color:#A52714;stop-opacity:0.6"/>
			<stop  offset="0.66" style="stop-color:#A52714;stop-opacity:0"/>
		</linearGradient>
		<path style="fill:url(#SVGID_00000033330569397071994300000007279009910620117651_);" d="M184,118.2v122.8h44.8l39.4-68.2h100
			v-54.6H184z"/>
	</g>
</g>
<g>
	<defs>
		<circle id="SVGID_00000075142005341509496230000006428831462712269191_" cx="268.1" cy="218.2" r="100"/>
	</defs>
	<clipPath id="SVGID_00000016769944024112801110000013055957643012764598_">
		<use xlink:href="#SVGID_00000075142005341509496230000006428831462712269191_"  style="overflow:visible;"/>
	</clipPath>
	<path style="clip-path:url(#SVGID_00000016769944024112801110000013055957643012764598_);fill:#3E2723;fill-opacity:0.15;" d="
		M229.8,240.5l-45.3-77.6l-0.7,1.1l44.9,77.1L229.8,240.5z"/>
</g>
<g>
	<defs>
		<circle id="SVGID_00000145754234003315578160000013198778701084632735_" cx="268.1" cy="218.2" r="100"/>
	</defs>
	<clipPath id="SVGID_00000088132406269070587750000014521776950971224465_">
		<use xlink:href="#SVGID_00000145754234003315578160000013198778701084632735_"  style="overflow:visible;"/>
	</clipPath>
	<g style="clip-path:url(#SVGID_00000088132406269070587750000014521776950971224465_);">
		<path class="st5" d="M168.1,318.2h95.2l44.2-44.2v-33.1h-78.8l-60.6-104V318.2z"/>
		
			<linearGradient id="SVGID_00000064313458800168677020000010591575542813814175_" gradientUnits="userSpaceOnUse" x1="285.0168" y1="313.8467" x2="218.7145" y2="352.6797" gradientTransform="matrix(1 0 0 -1 0 609.8688)">
			<stop  offset="0" style="stop-color:#055524;stop-opacity:0.4"/>
			<stop  offset="0.33" style="stop-color:#055524;stop-opacity:0"/>
		</linearGradient>
		<path style="fill:url(#SVGID_00000064313458800168677020000010591575542813814175_);" d="M168.1,318.2h95.2l44.2-44.2v-33.1h-78.8
			l-60.6-104V318.2z"/>
	</g>
</g>
<g>
	<defs>
		<circle id="SVGID_00000174566795228288385360000004176016394758819482_" cx="268.1" cy="218.2" r="100"/>
	</defs>
	<clipPath id="SVGID_00000060733950134284755670000004834483266496755872_">
		<use xlink:href="#SVGID_00000174566795228288385360000004176016394758819482_"  style="overflow:visible;"/>
	</clipPath>
	<path style="clip-path:url(#SVGID_00000060733950134284755670000004834483266496755872_);fill:#263238;fill-opacity:0.15;" d="
		M306.6,242.4l-0.9-0.5L262,318.2h1.3L306.6,242.4L306.6,242.4z"/>
</g>
<g>
	<defs>
		<circle id="SVGID_00000149359413874282236460000006098217201098404004_" cx="268.1" cy="218.2" r="100"/>
	</defs>
	<clipPath id="SVGID_00000053546114456198359710000008434471044927768196_">
		<use xlink:href="#SVGID_00000149359413874282236460000006098217201098404004_"  style="overflow:visible;"/>
	</clipPath>
	<g style="clip-path:url(#SVGID_00000053546114456198359710000008434471044927768196_);">
		<g>
			<defs>
				<polygon id="SVGID_00000163775256924871794720000009182004417143069840_" points="168.1,318.2 263.3,318.2 307.5,274 
					307.5,240.9 228.7,240.9 168.1,136.9 				"/>
			</defs>
			<clipPath id="SVGID_00000090261849126661391840000002612147207360764343_">
				<use xlink:href="#SVGID_00000163775256924871794720000009182004417143069840_"  style="overflow:visible;"/>
			</clipPath>
			<g style="clip-path:url(#SVGID_00000090261849126661391840000002612147207360764343_);">
				<path class="st10" d="M268.1,172.7l39.4,68.2l-44.2,77.3h104.8V172.7H268.1z"/>
				
					<linearGradient id="SVGID_00000110453482349290580540000002583636858851622044_" gradientUnits="userSpaceOnUse" x1="297.4992" y1="444.2008" x2="314.1947" y2="371.0881" gradientTransform="matrix(1 0 0 -1 0 609.8688)">
					<stop  offset="0" style="stop-color:#EA6100;stop-opacity:0.3"/>
					<stop  offset="0.66" style="stop-color:#EA6100;stop-opacity:0"/>
				</linearGradient>
				<path style="fill:url(#SVGID_00000110453482349290580540000002583636858851622044_);" d="M268.1,172.7l39.4,68.2l-44.2,77.3
					h104.8V172.7H268.1z"/>
			</g>
		</g>
	</g>
</g>
<g>
	<defs>
		<circle id="SVGID_00000018922397839885436980000011692971878773986225_" cx="268.1" cy="218.2" r="100"/>
	</defs>
	<clipPath id="SVGID_00000116919677908996982070000002191852959650046375_">
		<use xlink:href="#SVGID_00000018922397839885436980000011692971878773986225_"  style="overflow:visible;"/>
	</clipPath>
	<g style="clip-path:url(#SVGID_00000116919677908996982070000002191852959650046375_);">
		<path class="st10" d="M268.1,172.7l39.4,68.2l-44.2,77.3h104.8V172.7H268.1z"/>
		
			<linearGradient id="SVGID_00000062896110761373224420000002297262832823385249_" gradientUnits="userSpaceOnUse" x1="297.4992" y1="444.2008" x2="314.1947" y2="371.0881" gradientTransform="matrix(1 0 0 -1 0 609.8688)">
			<stop  offset="0" style="stop-color:#EA6100;stop-opacity:0.3"/>
			<stop  offset="0.66" style="stop-color:#EA6100;stop-opacity:0"/>
		</linearGradient>
		<path style="fill:url(#SVGID_00000062896110761373224420000002297262832823385249_);" d="M268.1,172.7l39.4,68.2l-44.2,77.3h104.8
			V172.7H268.1z"/>
	</g>
</g>
<g>
	<defs>
		<circle id="SVGID_00000100366993556685809220000011218299530633981826_" cx="268.1" cy="218.2" r="100"/>
	</defs>
	<clipPath id="SVGID_00000101807812468370825640000015244599287243106477_">
		<use xlink:href="#SVGID_00000100366993556685809220000011218299530633981826_"  style="overflow:visible;"/>
	</clipPath>
	<g style="clip-path:url(#SVGID_00000101807812468370825640000015244599287243106477_);">
		<g>
			<defs>
				<polygon id="SVGID_00000001654268464112804930000011069263611584071320_" points="268.1,172.7 307.5,240.9 263.3,318.2 
					368.1,318.2 368.1,172.7 				"/>
			</defs>
			<clipPath id="SVGID_00000067210591531351105290000000936154469405961641_">
				<use xlink:href="#SVGID_00000001654268464112804930000011069263611584071320_"  style="overflow:visible;"/>
			</clipPath>
			<g style="clip-path:url(#SVGID_00000067210591531351105290000000936154469405961641_);">
				<path class="st1" d="M184,118.2v122.8h44.8l39.4-68.2h100v-54.6H184z"/>
				
					<linearGradient id="SVGID_00000183216943545014172040000012452935892419636133_" gradientUnits="userSpaceOnUse" x1="192.3424" y1="415.5405" x2="252.0137" y2="450.3965" gradientTransform="matrix(1 0 0 -1 0 609.8688)">
					<stop  offset="0" style="stop-color:#A52714;stop-opacity:0.6"/>
					<stop  offset="0.66" style="stop-color:#A52714;stop-opacity:0"/>
				</linearGradient>
				<path style="fill:url(#SVGID_00000183216943545014172040000012452935892419636133_);" d="M184,118.2v122.8h44.8l39.4-68.2h100
					v-54.6H184z"/>
			</g>
		</g>
	</g>
</g>
<g>
	<defs>
		<circle id="SVGID_00000101104191425039235630000003159391455154765502_" cx="268.1" cy="218.2" r="100"/>
	</defs>
	<clipPath id="SVGID_00000030468926244175430440000015883382750476064384_">
		<use xlink:href="#SVGID_00000101104191425039235630000003159391455154765502_"  style="overflow:visible;"/>
	</clipPath>
	
		<radialGradient id="SVGID_00000047045527500640206120000006839377723779232700_" cx="839.7654" cy="437.2181" r="95.5628" gradientTransform="matrix(1 0 0 -1 -576 609.8688)" gradientUnits="userSpaceOnUse">
		<stop  offset="0" style="stop-color:#3E2723;stop-opacity:0.2"/>
		<stop  offset="1" style="stop-color:#3E2723;stop-opacity:0"/>
	</radialGradient>
	
		<path style="clip-path:url(#SVGID_00000030468926244175430440000015883382750476064384_);fill:url(#SVGID_00000047045527500640206120000006839377723779232700_);" d="
		M268.1,172.7v23.8l89.1-23.8H268.1z"/>
</g>
<g>
	<defs>
		<circle id="SVGID_00000116220070068371854270000015896756383189718928_" cx="268.1" cy="218.2" r="100"/>
	</defs>
	<clipPath id="SVGID_00000013884591028827771190000007474766427810029214_">
		<use xlink:href="#SVGID_00000116220070068371854270000015896756383189718928_"  style="overflow:visible;"/>
	</clipPath>
	<g style="clip-path:url(#SVGID_00000013884591028827771190000007474766427810029214_);">
		<g>
			<defs>
				<polygon id="SVGID_00000133527097764440021060000007509748159208077728_" points="184,118.2 184,164 228.7,240.9 268.1,172.7 
					368.1,172.7 368.1,118.2 				"/>
			</defs>
			<clipPath id="SVGID_00000183215368650043658480000017453858601697775754_">
				<use xlink:href="#SVGID_00000133527097764440021060000007509748159208077728_"  style="overflow:visible;"/>
			</clipPath>
			<g style="clip-path:url(#SVGID_00000183215368650043658480000017453858601697775754_);">
				<path class="st5" d="M168.1,318.2h95.2l44.2-44.2v-33.1h-78.8l-60.6-104V318.2z"/>
				
					<linearGradient id="SVGID_00000165236562220557928220000015302882553174273703_" gradientUnits="userSpaceOnUse" x1="285.0168" y1="313.8467" x2="218.7145" y2="352.6797" gradientTransform="matrix(1 0 0 -1 0 609.8688)">
					<stop  offset="0" style="stop-color:#055524;stop-opacity:0.4"/>
					<stop  offset="0.33" style="stop-color:#055524;stop-opacity:0"/>
				</linearGradient>
				<path style="fill:url(#SVGID_00000165236562220557928220000015302882553174273703_);" d="M168.1,318.2h95.2l44.2-44.2v-33.1
					h-78.8l-60.6-104V318.2z"/>
			</g>
		</g>
	</g>
</g>
<g>
	<defs>
		<circle id="SVGID_00000175301337415250778790000005361905758316161435_" cx="268.1" cy="218.2" r="100"/>
	</defs>
	<clipPath id="SVGID_00000079469306013466539830000003577405732170292113_">
		<use xlink:href="#SVGID_00000175301337415250778790000005361905758316161435_"  style="overflow:visible;"/>
	</clipPath>
	
		<radialGradient id="SVGID_00000116197611754394161640000010780809142955737243_" cx="759.8615" cy="445.6608" r="88.7046" gradientTransform="matrix(1 0 0 -1 -576 609.8688)" gradientUnits="userSpaceOnUse">
		<stop  offset="0" style="stop-color:#3E2723;stop-opacity:0.2"/>
		<stop  offset="1" style="stop-color:#3E2723;stop-opacity:0"/>
	</radialGradient>
	
		<path style="clip-path:url(#SVGID_00000079469306013466539830000003577405732170292113_);fill:url(#SVGID_00000116197611754394161640000010780809142955737243_);" d="
		M184,164.1l65.1,65.1l-20.3,11.7L184,164.1z"/>
</g>
<g>
	<defs>
		<circle id="SVGID_00000074406850679438578000000004550749723689247367_" cx="268.1" cy="218.2" r="100"/>
	</defs>
	<clipPath id="SVGID_00000175297159181860659300000004675614929104774283_">
		<use xlink:href="#SVGID_00000074406850679438578000000004550749723689247367_"  style="overflow:visible;"/>
	</clipPath>
	
		<radialGradient id="SVGID_00000028318495213268695230000014469426182860122801_" cx="843.9344" cy="391.5383" r="99.8728" gradientTransform="matrix(1 0 0 -1 -576 609.8688)" gradientUnits="userSpaceOnUse">
		<stop  offset="0" style="stop-color:#263238;stop-opacity:0.2"/>
		<stop  offset="1" style="stop-color:#263238;stop-opacity:0"/>
	</radialGradient>
	
		<path style="clip-path:url(#SVGID_00000175297159181860659300000004675614929104774283_);fill:url(#SVGID_00000028318495213268695230000014469426182860122801_);" d="
		M263.4,318.1l23.8-88.9l20.3,11.7L263.4,318.1z"/>
</g>
<g>
	<defs>
		<circle id="SVGID_00000111887493200945736280000008729693068787321774_" cx="268.1" cy="218.2" r="100"/>
	</defs>
	<clipPath id="SVGID_00000153707534917599080850000009336304858198028200_">
		<use xlink:href="#SVGID_00000111887493200945736280000008729693068787321774_"  style="overflow:visible;"/>
	</clipPath>
	<g style="clip-path:url(#SVGID_00000153707534917599080850000009336304858198028200_);">
		<circle class="st24" cx="268.1" cy="218.2" r="45.5"/>
		<circle class="st25" cx="268.1" cy="218.2" r="36.4"/>
	</g>
</g>
<g>
	<defs>
		<circle id="SVGID_00000106142433997435783490000009235117360859654064_" cx="268.1" cy="218.2" r="100"/>
	</defs>
	<clipPath id="SVGID_00000026854897966595642520000003392658776760221623_">
		<use xlink:href="#SVGID_00000106142433997435783490000009235117360859654064_"  style="overflow:visible;"/>
	</clipPath>
	<g style="clip-path:url(#SVGID_00000026854897966595642520000003392658776760221623_);">
		<path class="st27" d="M268.1,171.6c-25.1,0-45.5,20.4-45.5,45.5v1.1c0-25.1,20.4-45.5,45.5-45.5h100v-1.1H268.1z"/>
		<path class="st28" d="M307.4,240.9c-7.9,13.6-22.5,22.7-39.3,22.7c-16.8,0-31.5-9.2-39.3-22.7h0l-60.6-104v1.1l60.6,104h0
			c7.9,13.6,22.5,22.7,39.3,22.7c16.8,0,31.5-9.1,39.3-22.7h0.1L307.4,240.9L307.4,240.9z"/>
		<path class="st29" d="M269.2,172.7c-0.2,0-0.4,0-0.6,0c24.8,0.3,44.9,20.5,44.9,45.4s-20,45.1-44.9,45.4c0.2,0,0.4,0,0.6,0
			c25.1,0,45.5-20.4,45.5-45.5S294.4,172.7,269.2,172.7z"/>
		<path class="st30" d="M307.9,242.4c3.9-6.7,6.1-14.4,6.1-22.7c0-4.8-0.8-9.4-2.1-13.7c1.1,3.9,1.7,8,1.7,12.2
			c0,8.3-2.2,16-6.1,22.7l0,0l-44.2,77.3h1.3L307.9,242.4C307.9,242.5,307.9,242.4,307.9,242.4z"/>
	</g>
</g>
<g>
	<defs>
		<circle id="SVGID_00000166649797077838615990000008309442732657120189_" cx="268.1" cy="218.2" r="100"/>
	</defs>
	<clipPath id="SVGID_00000109710327089543249830000011854938422757581954_">
		<use xlink:href="#SVGID_00000166649797077838615990000008309442732657120189_"  style="overflow:visible;"/>
	</clipPath>
	<g style="clip-path:url(#SVGID_00000109710327089543249830000011854938422757581954_);">
		<path class="st30" d="M268.1,119.3c55,0,99.7,44.5,100,99.5c0-0.2,0-0.4,0-0.6c0-55.2-44.8-100-100-100s-100,44.8-100,100
			c0,0.2,0,0.4,0,0.6C168.4,163.8,213.1,119.3,268.1,119.3z"/>
		<path class="st32" d="M268.1,317.1c55,0,99.7-44.5,100-99.5c0,0.2,0,0.4,0,0.6c0,55.2-44.8,100-100,100s-100-44.8-100-100
			c0-0.2,0-0.4,0-0.6C168.4,272.6,213.1,317.1,268.1,317.1z"/>
	</g>
</g>
<radialGradient id="SVGID_00000158721608547719525130000008929135538613496718_" cx="197.9678" cy="464.4215" r="200.889" gradientTransform="matrix(1 0 0 -1 0 609.8688)" gradientUnits="userSpaceOnUse">
	<stop  offset="0" style="stop-color:#FFFFFF;stop-opacity:0.1"/>
	<stop  offset="1" style="stop-color:#FFFFFF;stop-opacity:0"/>
</radialGradient>
<circle style="fill:url(#SVGID_00000158721608547719525130000008929135538613496718_);" cx="268.1" cy="218.2" r="100"/>
</svg>
