<?xml version="1.0" encoding="utf-8"?>
<!-- Generator: Adobe Illustrator 25.4.1, SVG Export Plug-In . SVG Version: 6.00 Build 0)  -->
<svg version="1.1" id="Layer_3" xmlns="http://www.w3.org/2000/svg" xmlns:xlink="http://www.w3.org/1999/xlink" x="0px" y="0px"
	 viewBox="0 0 742.9 674.6" style="enable-background:new 0 0 742.9 674.6;" xml:space="preserve">
<style type="text/css">
	.st0{fill:#8C8891;}
	.st1{fill:#3D3942;}
	.st2{fill:#FFFFFF;}
	.st3{fill:#FE8A2C;}
	.st4{fill:none;stroke:#000000;stroke-width:0;stroke-linecap:round;stroke-linejoin:round;}
	.st5{fill:#4F4A54;}
	.st6{fill:#231F20;}
</style>
<g>
	<path class="st0" d="M665.5,331c24.5,25.8,37.9,60.6,37.9,97.9c0,63.3-40.9,131.5-130.9,131.5h-3.6v8h3.6
		c42.5,0,78.3-15,103.7-43.3c22.7-25.4,35.2-59.5,35.2-96.2c0-39.3-14.2-76-40.1-103.4c-29.2-30.9-71-47.3-121-47.5v8
		C598,286.2,637.8,301.8,665.5,331z"/>
	<path class="st1" d="M672.8,324.2c-29.6-31.3-71.9-47.9-122.4-48.2v2c49.9,0.2,91.8,16.6,121,47.5c25.9,27.3,40.1,64.1,40.1,103.4
		c0,36.7-12.5,70.8-35.2,96.2c-25.4,28.4-61.2,43.3-103.7,43.3h-3.6v2h3.6c43.1,0,79.4-15.2,105.2-44c23-25.7,35.7-60.3,35.7-97.5
		C713.4,389.1,699,351.9,672.8,324.2z"/>
	<path class="st1" d="M568.9,560.4h3.6c89.9,0,130.9-68.2,130.9-131.5c0-37.3-13.5-72-37.9-97.9c-27.7-29.3-67.5-44.8-115.2-45v2
		c47.1,0.2,86.4,15.6,113.7,44.4c24.1,25.5,37.4,59.7,37.4,96.5c0,62.4-40.3,129.5-128.9,129.5h-3.6V560.4z"/>
	<rect x="522.2" y="265.8" class="st0" width="26.2" height="32.5"/>
	<path class="st1" d="M550.4,286v-8v-2v-11.2c0-0.6-0.4-1-1-1h-27.2v2h26.2v32.5h-26.2v2h27.2c0.6,0,1-0.4,1-1V288V286z"/>
	<path class="st0" d="M566.9,576.4v-24.3h-23.7c0,7.9,0,16.5,0,24.3H566.9z"/>
	<path class="st1" d="M568.9,568.4v-8v-2v-7.4c0-0.6-0.4-1-1-1h-24.7c0,0.7,0,1.3,0,2h23.7v24.3h-23.7c0,0.7,0,1.3,0,2h24.7
		c0.6,0,1-0.4,1-1v-7V568.4z"/>
	<polygon class="st2" points="321.2,606.4 341,606.4 341.4,603.8 321.6,603.8 	"/>
	<path class="st2" d="M376.6,469.3H222.1c-3.7,0-6.8,3.1-6.8,6.8V555c0,3.7,3.1,6.8,6.8,6.8h154.4c3.7,0,6.8-3.1,6.8-6.8v-78.8
		C383.4,472.4,380.3,469.3,376.6,469.3z M380.4,552c0,3.1-2.4,5.6-5.4,5.6H223.7c-3,0-5.4-2.5-5.4-5.6v-74c0-3.1,2.4-5.6,5.4-5.6
		H375c3,0,5.4,2.5,5.4,5.6V552z"/>
	<polygon class="st2" points="416.1,606.2 435.9,606.2 436.3,603.7 416.4,603.7 	"/>
	<path class="st2" d="M502.9,557c7,0,12.6-5.6,12.6-12.6C515.5,551.4,509.9,557,502.9,557z"/>
	<polygon class="st2" points="352.4,606.4 372.2,606.4 372.6,603.8 352.8,603.8 	"/>
	<path class="st2" d="M502.9,531.8c-7,0-12.6,5.6-12.6,12.6C490.3,537.4,495.9,531.8,502.9,531.8z"/>
	<path class="st2" d="M490.3,544.4c0,7,5.6,12.6,12.6,12.6C495.9,557,490.3,551.4,490.3,544.4z"/>
	<path class="st2" d="M502.9,531.8c7,0,12.6,5.6,12.6,12.6C515.5,537.4,509.9,531.8,502.9,531.8z"/>
	<path class="st2" d="M539.4,524.3c0-2.6-2.2-7-5.9-11.6c-3.2-4.1-42.2-52.8-45.6-56.9c-2.4-2.9-9-6.8-14.4-6.8H196.4
		c-9.7,0-18.3,12.5-18.3,12.6l-0.1,0.1l-0.1,0.1c-0.6,0.7-59.4,76.7-62,80.1c-2.6,3.5-1.6,13.9,0,16c3.2,4.4,12.3,16.7,21,28.6
		c10,13.6,21.3,28.9,22.1,30c0.1,0.1,0.2,0.4,0.5,0.6c6.2,7.9,12,12,17.4,12h341.8c7.7,0,20.7-22.5,20.7-27.3V524.3z M271.8,606.4
		l-0.6,3.6h-20.8v-0.1l-1,6h-4.2l2.5-15.6h28.7l-0.6,3.6h-24.5l-0.4,2.5H271.8z M304.7,615.8h-28.2l2.5-15.6h4.1l-1.9,12h24.1
		L304.7,615.8z M312.2,615.8h-4.4l2.8-15.6h4.4L312.2,615.8z M345.6,603.8l-0.4,2.4c-0.1,1-0.7,1.8-1.6,2.5c-1,0.7-1.9,1.1-3.1,1.1
		h-19.9l-1,6h-4.1l2.5-15.6H342c1.1,0,2,0.4,2.8,1.1S345.7,602.9,345.6,603.8z M376.8,603.8l-0.4,2.4c-0.1,1-0.7,1.8-1.6,2.5
		c-1,0.7-1.9,1.1-3.1,1.1h-19.9l-1,6h-4.1l2.5-15.6h23.9c1.1,0,2,0.4,2.8,1.1C376.7,602,376.9,602.9,376.8,603.8z M409.2,603.8
		h-24.5l-0.4,2.5h21.5l-0.6,3.6h-21.5l-0.4,2.4h24.5l0-0.1v0.1h0l-0.6,3.5h-28.7l2.5-15.6h28.7L409.2,603.8z M440.5,603.8l-0.4,2.4
		c-0.1,0.5-0.4,1-0.8,1.3c-0.4,0.4-0.8,0.5-1.3,0.5c0.5,0,0.8,0.2,1.2,0.5c0.4,0.4,0.5,0.7,0.4,1.2l-1,6h-4.1l1-6h-19.9v0.1l-1,6
		h-4.1l2.5-15.6h23.9c1.1,0,2,0.4,2.8,1.1C440.3,602,440.6,602.9,440.5,603.8z M518.5,589.4H195.2c-10.9,0-15-4.6-21.3-11.4
		l-0.7-0.8c-5.9-6.6-14.1-16.2-19-22.6c-4.6-5.9-2.8-8.8,0.7-14.4l0.2-0.4c1.9-3,13.3-19.2,24.4-34.9c11-15.6,22.5-31.8,24.6-35.2
		c5.6-8.6,12.9-12.4,24.3-12.4h239.7c4.3,0,10.6,2,14.4,6.6l1,1.1c24.7,29.5,38.8,46.5,41.9,50.3c5,6.4,5.8,9.2,5.8,13.7v47.7
		C531.1,582.7,526,589.4,518.5,589.4z"/>
	<path class="st2" d="M475.3,484.2c-8.9-9.5-21.4-14.9-34.2-14.9c-25.8,0-46.8,21-46.8,46.8c0,25.6,20.5,45.6,46.8,45.6h63.1
		c7.2,0,16.2-8.3,16.2-15.1V546c0-3,0.1-7.9-4.3-12.7L475.3,484.2z M440.5,558.2c-23.5,0-42.6-19.1-42.6-42.6
		c0-23.5,19.1-42.6,42.6-42.6s42.6,19.1,42.6,42.6C483.1,539.1,464,558.2,440.5,558.2z M503,558.2c-7.6,0-13.8-6.2-13.8-13.8
		c0-7.6,6.1-13.8,13.8-13.8s13.8,6.2,13.8,13.8C516.8,552,510.6,558.2,503,558.2z"/>
	<path class="st2" d="M529.8,576.7V529c0-4.3-0.8-6.8-5.5-13c-3-3.8-17.1-20.8-41.8-50.3l-1-1.1c-3.5-4.2-9.5-6.1-13.5-6.1H228.5
		c-10.9,0-17.9,3.5-23.1,11.8c-2.2,3.4-13.7,19.6-24.7,35.3c-11,15.7-22.5,31.9-24.4,34.9l-0.2,0.4c-3.6,5.6-4.9,7.8-0.8,13
		c4.8,6.2,13,15.9,18.9,22.5l0.7,0.8c6.1,6.8,10,11,20.3,11h323.3C525.1,588.2,529.8,582.1,529.8,576.7z M384.6,555c0,4.4-3.6,8-8,8
		H222.1c-4.4,0-8-3.6-8-8v-78.8c0-4.4,3.6-8,8-8h154.4c4.4,0,8,3.6,8,8V555z M521.6,546.1v0.7c-0.1,7.4-9.6,16.2-17.5,16.2h-63.1
		c-26.9,0-48-20.5-48-46.8c0-26.4,21.5-48,48-48c13.3,0,26.1,5.5,35.2,15.4l40.7,49C521.8,537.7,521.6,542.9,521.6,546.1z"/>
	<path d="M543.3,576.4c0-7.8,0-16.4,0-24.3c0-0.7,0-1.3,0-2c0-12.6,0-23.1,0-25.6c0-4.4-3.7-10.1-6.7-13.8
		c-2.8-3.4-42.3-52.8-45.8-57c-3-3.6-10.6-8.3-17.3-8.3c0,0-265.1,0-277.1,0c-11.9,0-21.4,14.2-21.4,14.2s-59.3,76.7-62,80.2
		c-3.5,4.8-2.5,16.9,0,20.4c7.2,9.6,41.6,56.6,43.2,58.6c1.7,2,10.2,14.1,20.8,14.1c10.6,0,336.2,0,341.9,0
		c10.6,0,24.3-25,24.3-30.9c0-2.1,0-11.7,0-23.5C543.3,577.7,543.3,577.1,543.3,576.4z M518.8,629.1H177c-5.4,0-11.2-4.1-17.4-12
		c-0.2-0.2-0.4-0.5-0.5-0.6c-0.8-1.1-12.1-16.5-22.1-30c-8.8-11.9-17.8-24.1-21-28.6c-1.6-2-2.6-12.5,0-16
		c2.5-3.4,61.4-79.4,62-80.1l0.1-0.1l0.1-0.1c0-0.1,8.5-12.6,18.3-12.6h277.1c5.4,0,12,4,14.4,6.8c3.5,4.1,42.4,52.8,45.6,56.9
		c3.7,4.7,5.9,9,5.9,11.6v77.5C539.4,606.6,526.4,629.1,518.8,629.1z"/>
	<polygon class="st3" points="275.9,603.8 276.5,600.2 247.8,600.2 245.3,615.8 249.5,615.8 250.5,609.8 250.5,610 271.2,610 
		271.8,606.4 251.1,606.4 251.4,603.8 	"/>
	<polygon class="st3" points="283.1,600.2 279,600.2 276.5,615.8 304.7,615.8 305.3,612.2 281.2,612.2 	"/>
	<polygon class="st3" points="307.7,615.8 312.2,615.8 315,600.2 310.5,600.2 	"/>
	<path class="st3" d="M342,600.2h-23.9l-2.5,15.6h4.1l1-6h19.9c1.2,0,2.2-0.4,3.1-1.1c0.8-0.7,1.4-1.6,1.6-2.5l0.4-2.4
		c0.1-1-0.1-1.8-0.8-2.5S343.1,600.2,342,600.2z M341,606.4h-19.8l0.4-2.5h19.8L341,606.4z"/>
	<path class="st3" d="M373.2,600.2h-23.9l-2.5,15.6h4.1l1-6h19.9c1.2,0,2.2-0.4,3.1-1.1c0.8-0.7,1.4-1.6,1.6-2.5l0.4-2.4
		c0.1-1-0.1-1.8-0.8-2.5C375.2,600.6,374.3,600.2,373.2,600.2z M372.2,606.4h-19.8l0.4-2.5h19.8L372.2,606.4z"/>
	<polygon class="st3" points="378.6,615.8 407.3,615.8 407.9,612.4 383.4,612.4 383.8,610 405.3,610 405.9,606.4 384.4,606.4 
		384.7,603.8 409.2,603.8 409.8,600.2 381.1,600.2 	"/>
	<polygon class="st3" points="407.9,612.2 407.9,612.4 407.9,612.4 	"/>
	<path class="st3" d="M436.9,600.2H413l-2.5,15.6h4.1l1-6v-0.1h19.9l-1,6h4.1l1-6c0.1-0.5,0-0.8-0.4-1.2c-0.4-0.2-0.7-0.5-1.2-0.5
		c0.5,0,1-0.1,1.3-0.5c0.5-0.4,0.7-0.8,0.8-1.3l0.4-2.4c0.1-1-0.1-1.8-0.8-2.5C438.9,600.6,437.9,600.2,436.9,600.2z M435.9,606.2
		h-19.8l0.4-2.5h19.8L435.9,606.2z"/>
	<path d="M376.6,468.1H222.1c-4.4,0-8,3.6-8,8V555c0,4.4,3.6,8,8,8h154.4c4.4,0,8-3.6,8-8v-78.8C384.6,471.7,381,468.1,376.6,468.1z
		 M383.4,555c0,3.7-3.1,6.8-6.8,6.8H222.1c-3.7,0-6.8-3.1-6.8-6.8v-78.8c0-3.7,3.1-6.8,6.8-6.8h154.4c3.7,0,6.8,3.1,6.8,6.8V555z"/>
	<path d="M440.5,472.9c-23.5,0-42.6,19.1-42.6,42.6c0,23.5,19.1,42.6,42.6,42.6s42.6-19.1,42.6-42.6
		C483.1,492,464,472.9,440.5,472.9z M440.5,557c-22.9,0-41.4-18.6-41.4-41.4c0-22.9,18.6-41.4,41.4-41.4c22.9,0,41.4,18.6,41.4,41.4
		C481.9,538.4,463.3,557,440.5,557z"/>
	<path d="M503,530.6c-7.7,0-13.8,6.2-13.8,13.8c0,7.6,6.2,13.8,13.8,13.8s13.8-6.2,13.8-13.8C516.8,536.8,510.7,530.6,503,530.6z
		 M502.9,557c-7,0-12.6-5.6-12.6-12.6s5.6-12.6,12.6-12.6s12.6,5.6,12.6,12.6S509.9,557,502.9,557z"/>
	<path class="st3" d="M505.7,540.2h-6.5c-0.4,0-0.6-0.2-0.6-0.6v-1l-2,2.2l2,2.2v-1c0-0.4,0.2-0.6,0.6-0.6h5.9
		c2.2,0,3.2,1.8,3.2,3.5c0,1-0.2,1.8-0.8,2.4c-0.6,0.7-1.6,1.2-2.5,1.2h-6.5v1.3h0.1h7.1c1.2,0,2.2-0.5,2.9-1.4c0.6-0.8,1-2,1-3.4
		C509.5,542.7,508.3,540.2,505.7,540.2z"/>
	<path class="st3" d="M502.9,531.8c-7,0-12.6,5.6-12.6,12.6s5.6,12.6,12.6,12.6s12.6-5.6,12.6-12.6S509.9,531.8,502.9,531.8z
		 M509.5,549.1c-1,1.2-2.3,1.9-3.8,1.9H498c-0.4,0-0.6-0.2-0.6-0.6V548c0-0.4,0.2-0.6,0.6-0.6h7.1c0.7,0,1.2-0.2,1.6-0.7
		c0.4-0.5,0.6-1.1,0.6-1.7c0-1.2-0.6-2.3-2-2.3h-5.3v1.8c0,0.2-0.1,0.5-0.4,0.6c-0.2,0.1-0.5,0-0.6-0.1l-3.5-3.6
		c-0.2-0.2-0.2-0.6,0-0.8l3.4-3.6c0.1-0.1,0.5-0.2,0.6-0.1c0.2,0.1,0.4,0.4,0.4,0.6v1.6h5.9c3.4,0,5,3,5,6
		C510.7,546.6,510.2,548,509.5,549.1z"/>
	<path d="M505.7,539h-5.9v-1.6c0-0.2-0.1-0.5-0.4-0.6c-0.1-0.1-0.5,0-0.6,0.1l-3.4,3.6c-0.2,0.2-0.2,0.6,0,0.8l3.5,3.6
		c0.1,0.1,0.4,0.2,0.6,0.1c0.2-0.1,0.4-0.4,0.4-0.6v-1.8h5.3c1.4,0,2,1.1,2,2.3c0,0.6-0.2,1.2-0.6,1.7c-0.4,0.5-0.8,0.7-1.6,0.7H498
		c-0.4,0-0.6,0.2-0.6,0.6v2.4c0,0.4,0.2,0.6,0.6,0.6h7.7c1.6,0,2.9-0.7,3.8-1.9c0.7-1.1,1.2-2.5,1.2-4.1
		C510.7,542,509,539,505.7,539z M508.6,548.4c-0.7,1-1.7,1.4-2.9,1.4h-7.1h-0.1v-1.3h6.5c1,0,1.9-0.5,2.5-1.2
		c0.6-0.6,0.8-1.4,0.8-2.4c0-1.7-1.1-3.5-3.2-3.5h-5.9c-0.4,0-0.6,0.2-0.6,0.6v1l-2-2.2l2-2.2v1c0,0.4,0.2,0.6,0.6,0.6h6.5
		c2.6,0,3.8,2.5,3.8,4.8C509.5,546.3,509.2,547.5,508.6,548.4z"/>
	<path class="st3" d="M473.5,515.6c0,0,0,0,0-0.1v-0.1l-9.5-5.5c0,0,0,0,0,0.1c0,0,0,0,0-0.1c0,0-0.1,0.1-0.1,0c0,0,0,0.1,0,0.1
		v11.2v0.1h0.1L473.5,515.6z"/>
	<path class="st3" d="M434.8,492c0,0,0,0,0.1,0h11.2h0.1v-0.1l-5.8-9.5l-5.6,9.5V492z"/>
	<path class="st3" d="M416.9,509.9C416.9,509.9,416.9,509.8,416.9,509.9l-9.5,5.6c0,0,0,0,0,0.1v0.1l9.5,5.6h0.1c0,0,0,0,0-0.1V510
		C417,509.9,417,509.9,416.9,509.9C416.9,509.8,416.9,509.9,416.9,509.9z"/>
	<path class="st3" d="M463.9,509.8C463.9,509.8,463.9,509.8,463.9,509.8C463.9,509.8,463.9,509.8,463.9,509.8z"/>
	<path class="st3" d="M440.7,549l5.6-9.7v-0.1c0,0,0-0.1-0.1-0.1h-11.3c-0.1,0.1-0.1,0.1-0.1,0.2l5.6,9.7
		C440.5,549.1,440.6,549.1,440.7,549z"/>
	
		<ellipse transform="matrix(0.9871 -0.1602 0.1602 0.9871 -76.8969 77.2105)" class="st3" cx="440.5" cy="515.6" rx="12.6" ry="12.6"/>
	<path class="st3" d="M416.9,509.8C417,509.9,417,509.8,416.9,509.8L416.9,509.8z"/>
	<path class="st3" d="M440.5,474.1c-22.9,0-41.4,18.6-41.4,41.4c0,22.9,18.6,41.4,41.4,41.4c22.9,0,41.4-18.6,41.4-41.4
		C481.9,492.7,463.3,474.1,440.5,474.1z M464.7,509l9.5,5.6c0.4,0.2,0.6,0.7,0.6,1.2s-0.2,1-0.6,1.2l-9.5,5.6
		c-0.4-0.2-0.5-0.2-0.7-0.2s-0.5,0-0.6-0.1c-0.4-0.2-0.6-0.7-0.6-1.1V510c0-0.5,0.2-1,0.6-1.1C463.8,508.7,464.2,508.7,464.7,509z
		 M454.3,515.6c0,7.6-6.2,13.8-13.8,13.8c-7.6,0-13.8-6.2-13.8-13.8c0-7.6,6.2-13.8,13.8-13.8C448,501.8,454.3,508,454.3,515.6z
		 M441.8,481.9l5.6,9.5c0.2,0.4,0.2,0.8,0,1.3c-0.5,0.4-1,0.6-1.3,0.6h-11.2c-0.5,0-1-0.2-1.1-0.6c-0.2-0.4-0.2-0.8,0-1.3l5.6-9.5
		C440,481.1,441.3,481.1,441.8,481.9z M418.2,509.7v11.2c0,0.5-0.2,1-0.6,1.1c-0.2,0.5-0.5,0.5-0.7,0.5s-0.5,0-0.6-0.1l-9.5-5.6
		c-0.4-0.2-0.6-0.7-0.6-1.2s0.2-1,0.6-1.2l9.5-5.6c0.4-0.2,0.8-0.2,1.3,0C418,508.8,418.2,509.3,418.2,509.7z M439.3,549.2l-5.6-9.5
		c-0.2-0.4-0.2-0.8,0-1.3c0.2-0.4,0.7-0.6,1.1-0.6h11.2c0.5,0,1,0.2,1.1,0.6c0.2,0.4,0.2,0.8,0,1.3l-5.6,9.5
		c0.1,0.4-0.4,0.6-0.8,0.6C440,549.8,439.5,549.6,439.3,549.2z"/>
	<path d="M426.6,515.6c0,7.6,6.2,13.8,13.8,13.8c7.6,0,13.8-6.2,13.8-13.8c0-7.6-6.2-13.8-13.8-13.8
		C432.9,501.8,426.6,508,426.6,515.6z M453.1,515.6c0,7-5.6,12.6-12.6,12.6s-12.6-5.6-12.6-12.6c0-7,5.6-12.6,12.6-12.6
		S453.1,508.6,453.1,515.6z"/>
	<path d="M439.5,481.9l-5.6,9.5c-0.2,0.5-0.2,1,0,1.3c0.1,0.4,0.6,0.6,1.1,0.6h11.2c0.4,0,0.8-0.2,1.3-0.6c0.2-0.5,0.2-1,0-1.3
		l-5.6-9.5C441.3,481.1,440,481.1,439.5,481.9z M446.2,491.9v0.1h-0.1h-11.2c-0.1,0-0.1,0-0.1,0v-0.1l5.6-9.5L446.2,491.9z"/>
	<path d="M441.3,549.2l5.6-9.5c0.2-0.5,0.2-1,0-1.3c-0.1-0.4-0.6-0.6-1.1-0.6h-11.2c-0.4,0-0.8,0.2-1.1,0.6c-0.2,0.5-0.2,1,0,1.3
		l5.6,9.5c0.2,0.4,0.7,0.6,1.2,0.6C440.9,549.8,441.4,549.6,441.3,549.2z M434.8,539.2c0-0.1,0-0.1,0.1-0.2h11.3
		c0.1,0,0.1,0.1,0.1,0.1v0.1l-5.6,9.7c-0.1,0.1-0.2,0.1-0.2,0L434.8,539.2z"/>
	<path class="st4" d="M464,509.9C464,509.8,464,509.8,464,509.9"/>
	<path d="M462.8,510v11.2c0,0.4,0.2,0.8,0.6,1.1c0.1,0.1,0.4,0.1,0.6,0.1s0.4,0,0.7,0.2l9.5-5.6c0.4-0.2,0.6-0.7,0.6-1.2
		s-0.2-1-0.6-1.2l-9.5-5.6c-0.5-0.2-1-0.2-1.3,0C463,509.1,462.8,509.6,462.8,510z M463.9,521.1v-11.2c0,0,0,0,0-0.1c0,0,0,0,0.1,0
		l9.5,5.5v0.1c0,0.1,0,0.1,0,0.1l-9.5,5.6h-0.1V521.1z"/>
	<path d="M464,509.8C463.9,509.8,463.9,509.8,464,509.8C463.9,509.9,463.9,509.8,464,509.8z"/>
	<path class="st4" d="M416.9,509.8C416.9,509.8,416.9,509.9,416.9,509.8"/>
	<path d="M416.3,508.6l-9.5,5.6c-0.4,0.2-0.6,0.7-0.6,1.2s0.2,1,0.6,1.2l9.5,5.6c0.1,0.1,0.4,0.1,0.6,0.1s0.5,0,0.7-0.5
		c0.4-0.1,0.6-0.6,0.6-1.1v-11.2c0-0.4-0.2-0.8-0.6-1.1C417.2,508.4,416.7,508.4,416.3,508.6z M417,521.2c0,0.1,0,0.1,0,0.1h-0.1
		l-9.5-5.6v-0.1c0-0.1,0-0.1,0-0.1l9.5-5.6c0.1,0,0.1,0.1,0,0c0.1,0.1,0.1,0.1,0.1,0.2V521.2z"/>
	<path d="M476.2,483.5c-9.1-9.8-21.9-15.4-35.2-15.4c-26.5,0-48,21.6-48,48c0,26.3,21.1,46.8,48,46.8h63.1c7.9,0,17.4-8.8,17.5-16.2
		v-0.7c0-3.1,0.1-8.4-4.7-13.6L476.2,483.5z M520.3,546v0.7c0,6.8-9,15.1-16.2,15.1h-63.1c-26.3,0-46.8-20.1-46.8-45.6
		c0-25.8,21-46.8,46.8-46.8c12.9,0,25.3,5.4,34.2,14.9l40.7,49C520.4,538,520.3,542.9,520.3,546z"/>
	<path d="M531.3,576.7V529c0-4.4-0.7-7.3-5.8-13.7c-3.1-3.8-17.2-20.8-41.9-50.3l-1-1.1c-3.8-4.6-10.1-6.6-14.4-6.6H228.5
		c-11.4,0-18.6,3.7-24.3,12.4c-2.2,3.4-13.6,19.6-24.6,35.2c-11,15.7-22.5,31.9-24.4,34.9l-0.2,0.4c-3.5,5.6-5.3,8.5-0.7,14.4
		c4.9,6.4,13.1,16,19,22.6l0.7,0.8c6.2,6.8,10.3,11.4,21.3,11.4h323.3C526,589.4,531.1,582.7,531.3,576.7z M518.4,588.2H195.1
		c-10.3,0-14.2-4.2-20.3-11l-0.7-0.8c-5.9-6.6-14.1-16.2-18.9-22.5c-4.1-5.2-2.8-7.3,0.8-13l0.2-0.4c1.9-3,13.3-19.2,24.4-34.9
		c11-15.7,22.6-31.9,24.7-35.3c5.2-8.3,12.1-11.8,23.1-11.8h239.6c4,0,10,1.9,13.5,6.1l1,1.1c24.7,29.5,38.8,46.5,41.8,50.3
		c4.7,6.1,5.5,8.6,5.5,13v47.7C529.8,582.1,525.1,588.2,518.4,588.2z"/>
	<path class="st3" d="M375,473.5H223.7c-2.3,0-4.2,2-4.2,4.4v74c0,2.4,1.9,4.4,4.2,4.4H375c2.3,0,4.2-2,4.2-4.4v-74
		C379.2,475.6,377.3,473.5,375,473.5z M376.2,480.1c0,0.6,0,1.8,0,2.4v1.2v1.2c0,20.1,0,40,0,60.1v1.2c0,2.3,0,4.9,0,7.2
		c-16,0-32.1,0-48,0H327h-1.2h-1.2h-1.2h-1.2H321h-1.2h-1.2c-3.6,0-7.2,0-10.8,0c-1.1,0-2.5,0-3.6,0c-0.6,0-1.8,0-2.4,0
		c-1.6,0-3.2,0-4.8,0h-1.2c-1.9,0-4.1,0-6,0h-1.2c-2.8,0-5.6,0-8.4,0c-5.2,0-10.4,0-15.6,0c-14.1,0-28,0-42,0c0-1.6,0-3.2,0-4.8
		v-1.2c0-2.8,0-5.6,0-8.4c0-2.3,0-4.9,0-7.2c0-2.8,0-5.6,0-8.4v-1.2c0-1.1,0-2.5,0-3.6v-1.2c0-5.2,0-10.4,0-15.6c0-3.1,0-6.5,0-9.6
		c0-2.3,0-4.9,0-7.2c0-2.8,0-5.6,0-8.4c0.6,0,1.8,0,2.4,0c0.6,0,1.8,0,2.4,0s1.8,0,2.4,0c4,0,8,0,12,0c0.6,0,1.8,0,2.4,0
		c3.6,0,7.2,0,10.8,0c0.6,0,1.8,0,2.4,0c4.8,0,9.6,0,14.4,0c1.1,0,2.5,0,3.6,0c2.8,0,5.6,0,8.4,0c1.6,0,3.2,0,4.8,0
		c18.4,0,36.9,0,55.2,0c0.6,0,1.8,0,2.4,0c1.9,0,4.1,0,6,0c0.6,0,1.8,0,2.4,0c4,0,8,0,12,0c0.6,0,1.8,0,2.4,0c1.9,0,4.1,0,6,0h1.2
		C376.2,477.6,376.2,479.1,376.2,480.1z"/>
	<path d="M375,472.3H223.7c-3,0-5.4,2.5-5.4,5.6v74c0,3.1,2.4,5.6,5.4,5.6H375c3,0,5.4-2.5,5.4-5.6v-74
		C380.4,474.9,378,472.3,375,472.3z M379.2,552c0,2.4-1.9,4.4-4.2,4.4H223.7c-2.3,0-4.2-2-4.2-4.4v-74c0-2.4,1.9-4.4,4.2-4.4H375
		c2.3,0,4.2,2,4.2,4.4V552z"/>
	<rect x="327" y="552.2" width="1.2" height="1.2"/>
	<rect x="324.6" y="552.2" width="1.2" height="1.2"/>
	<rect x="323.4" y="552.2" class="st3" width="1.2" height="1.2"/>
	<rect x="322.2" y="552.2" width="1.2" height="1.2"/>
	<rect x="321" y="552.2" class="st3" width="1.2" height="1.2"/>
	<rect x="319.8" y="552.2" width="1.2" height="1.2"/>
	<rect x="318.6" y="552.2" class="st3" width="1.2" height="1.2"/>
	<rect x="295.7" y="552.2" width="1.2" height="1.2"/>
	<rect x="288.5" y="552.2" width="1.2" height="1.2"/>
	<rect x="361.8" y="551" width="1.2" height="1.2"/>
	<rect x="359.4" y="551" width="1.2" height="1.2"/>
	<rect x="357" y="551" width="1.2" height="1.2"/>
	<rect x="354.6" y="551" width="1.2" height="1.2"/>
	<rect x="352.2" y="551" width="1.2" height="1.2"/>
	<rect x="349.8" y="551" width="1.2" height="1.2"/>
	<rect x="323.4" y="551" width="1.2" height="1.2"/>
	<rect x="322.2" y="551" class="st3" width="1.2" height="1.2"/>
	<rect x="321" y="551" width="1.2" height="1.2"/>
	<rect x="319.8" y="551" class="st3" width="1.2" height="1.2"/>
	<path d="M319.8,552.2V551h-1.2v-1.2h1.2v-1.2h1.2v-1.2h-1.2v-1.2h1.2V545h-1.2c0-1.9,0-4.1,0-6h-1.2c0,1.1,0,2.5,0,3.6h-1.2v1.2
		h1.2v1.2h-1.2v1.2h1.2v1.2h-1.2v1.2h-1.2v-1.2H315v1.2h-1.2v-1.2h1.2v-1.2h-1.2V545h1.2v-1.2h-1.2v-1.2h-1.2v1.2h-1.2v1.2h-1.2v1.2
		h1.2v1.2h-1.2v1.2h-1.2v1.2h1.2v1.2h-1.2v1.2h-1.2v1.2c3.6,0,7.2,0,10.8,0v-1.2H319.8z"/>
	<path class="st3" d="M308.9,552.2V551h1.2v-1.2h-1.2v-1.2c-0.6,0-1.8,0-2.4,0c0,0.6,0,1.8,0,2.4h-1.2v1.2h-1.2v1.2
		c1.1,0,2.5,0,3.6,0v-1.2H308.9z"/>
	<path d="M305.3,552.2V551h1.2c0-0.6,0-1.8,0-2.4c0.6,0,1.8,0,2.4,0v-1.2h1.2v-1.2h-1.2V545h-1.2v1.2h-1.2V545h1.2v-1.2h1.2v-1.2
		h1.2v-1.2h-1.2v-1.2h-1.2V539h-1.2v1.2h-1.2V539h-1.2v1.2h-1.2V539h-1.2v-1.2h1.2v-1.2h-1.2v-1.2h-1.2v-1.2h1.2V533h1.2v-1.2h1.2
		v1.2h1.2v-1.2h1.2v1.2h1.2v1.2h1.2V533h1.2v-1.2h1.2c0-1.9,0-4.1,0-6h-1.2v-1.2h-1.2v-1.2h-1.2v1.2h-1.2v1.2h-1.2v-1.2h-1.2v1.2
		h-1.2v1.2c1.9,0,4.1,0,6,0c0,0.6,0,1.8,0,2.4h-1.2v1.2c-1.9,0-4.1,0-6,0v1.2c-0.6,0-1.8,0-2.4,0v1.2h-1.2v1.2h-1.2v1.2h1.2v1.2h1.2
		c0,0.6,0,1.8,0,2.4h-1.2v1.2h-1.2v1.2h-1.2v1.2c-0.6,0-1.8,0-2.4,0v1.2h-1.2v1.2c-0.6,0-1.8,0-2.4,0v1.2c-0.6,0-1.8,0-2.4,0v1.2
		c-0.6,0-1.8,0-2.4,0v1.2c-0.6,0-1.8,0-2.4,0v1.2c-1.1,0-2.5,0-3.6,0v1.2c-1.1,0-2.5,0-3.6,0v1.2c-1.1,0-2.5,0-3.6,0V551
		c-0.6,0-1.8,0-2.4,0v1.2c-1.2,0-2.4,0-3.6,0c-0.4,0-0.8,0-1.2,0v1.2c5.2,0,10.4,0,15.6,0v-1.2c1.1,0,2.5,0,3.6,0V551
		c0.6,0,1.8,0,2.4,0v-1.2c0.6,0,1.8,0,2.4,0v-1.2c0.6,0,1.8,0,2.4,0v-1.2h1.2v-1.2c0.6,0,1.8,0,2.4,0V545c0.6,0,1.8,0,2.4,0v-1.2
		h1.2v-1.2h1.2v-1.2h1.2c0,0.6,0,1.8,0,2.4h-1.2v1.2h-1.2v1.2c0.6,0,1.8,0,2.4,0c0,0.6,0,1.8,0,2.4h-1.2v1.2c0.6,0,1.8,0,2.4,0v-1.2
		h1.2v-1.2h1.2v1.2h1.2v1.2h-1.2v1.2h-1.2v1.2h-1.2v1.2c0.6,0,1.8,0,2.4,0v-1.2H305.3z"/>
	<path class="st3" d="M302.9,552.2V551h1.2v-1.2h1.2v-1.2h-1.2v-1.2h-1.2v1.2h-1.2v1.2c-0.6,0-1.8,0-2.4,0v1.2h-1.2v1.2h-1.2v1.2
		c1.6,0,3.2,0,4.8,0v-1.2H302.9z"/>
	<rect x="296.9" y="551" width="1.2" height="1.2"/>
	<path class="st3" d="M296.9,552.2V551h1.2v-1.2h1.2v-1.2h1.2c0-0.6,0-1.8,0-2.4c-0.6,0-1.8,0-2.4,0v1.2h-1.2v1.2
		c-0.6,0-1.8,0-2.4,0v1.2h-1.2v1.2h-1.2v1.2c-0.6,0-1.8,0-2.4,0v1.2c1.9,0,4.1,0,6,0v-1.2H296.9z"/>
	<path d="M289.7,552.2c0.6,0,1.8,0,2.4,0V551c-0.6,0-1.8,0-2.4,0V552.2z"/>
	<path class="st3" d="M289.7,552.2V551c0.6,0,1.8,0,2.4,0v-1.2h1.2v-1.2h1.2v-1.2c0.6,0,1.8,0,2.4,0v-1.2h1.2V545h1.2v-1.2h1.2
		c0-0.6,0-1.8,0-2.4h-1.2v1.2h-1.2v1.2h-1.2v1.2c-0.6,0-1.8,0-2.4,0v1.2c-0.6,0-1.8,0-2.4,0v1.2h-1.2v1.2c-0.6,0-1.8,0-2.4,0v1.2
		c-0.6,0-1.8,0-2.4,0v1.2c-0.6,0-1.8,0-2.4,0v1.2c-1.1,0-2.5,0-3.6,0v1.2c2.8,0,5.6,0,8.4,0v-1.2H289.7z"/>
	<path class="st3" d="M265.7,552.2c1.2,0,2.4,0,3.6,0V551c0.6,0,1.8,0,2.4,0v-1.2c0.6,0,1.8,0,2.4,0v-1.2c0.6,0,1.8,0,2.4,0v-1.2
		c0.6,0,1.8,0,2.4,0v-1.2c0.6,0,1.8,0,2.4,0V545h1.2v-1.2c0.6,0,1.8,0,2.4,0v-1.2c0.6,0,1.8,0,2.4,0v-1.2c0.6,0,1.8,0,2.4,0v-1.2
		c0.6,0,1.8,0,2.4,0V539h1.2v-1.2h1.2v-1.2h1.2v-1.2h1.2v-1.2h1.2V533h1.2v-1.2c0.6,0,1.8,0,2.4,0v-1.2c1.9,0,4.1,0,6,0v-1.2h1.2
		c0-0.6,0-1.8,0-2.4c-1.9,0-4.1,0-6,0v1.2c-0.6,0-1.8,0-2.4,0v1.2c-0.6,0-1.8,0-2.4,0v1.2h-1.2v1.2h-1.2v1.2h-1.2v1.2h-1.2v1.2h-1.2
		v1.2c-0.6,0-1.8,0-2.4,0v1.2c-0.6,0-1.8,0-2.4,0v1.2c-0.6,0-1.8,0-2.4,0v1.2c-0.6,0-1.8,0-2.4,0v1.2c-0.6,0-1.8,0-2.4,0v1.2
		c-1.1,0-2.5,0-3.6,0v1.2c-1.1,0-2.5,0-3.6,0v1.2c-1.6,0-3.2,0-4.8,0v1.2c-1.9,0-4.1,0-6,0v1.2c-1.1,0-2.5,0-3.6,0v1.2
		c-2.8,0-5.6,0-8.4,0v1.2c-8.4,0-16.8,0-25.2,0v-1.2c-0.6,0-1.8,0-2.4,0c0,1.6,0,3.2,0,4.8c14.1,0,28,0,42,0v-1.2
		C264.9,552.2,265.3,552.2,265.7,552.2z"/>
	<rect x="365.4" y="549.8" width="1.2" height="1.2"/>
	<rect x="363" y="549.8" width="1.2" height="1.2"/>
	<rect x="361.8" y="549.8" class="st3" width="1.2" height="1.2"/>
	<rect x="360.6" y="549.8" width="1.2" height="1.2"/>
	<rect x="359.4" y="549.8" class="st3" width="1.2" height="1.2"/>
	<rect x="358.2" y="549.8" width="1.2" height="1.2"/>
	<rect x="357" y="549.8" class="st3" width="1.2" height="1.2"/>
	<rect x="354.6" y="549.8" class="st3" width="1.2" height="1.2"/>
	<rect x="352.2" y="549.8" class="st3" width="1.2" height="1.2"/>
	<rect x="349.8" y="549.8" class="st3" width="1.2" height="1.2"/>
	<rect x="348.6" y="549.8" width="1.2" height="1.2"/>
	<rect x="322.2" y="549.8" width="1.2" height="1.2"/>
	<rect x="321" y="549.8" class="st3" width="1.2" height="1.2"/>
	<rect x="319.8" y="549.8" width="1.2" height="1.2"/>
	<rect x="318.6" y="549.8" class="st3" width="1.2" height="1.2"/>
	<rect x="298.1" y="549.8" width="1.2" height="1.2"/>
	<rect x="292.1" y="549.8" width="1.2" height="1.2"/>
	<path d="M274.1,549.8c-0.6,0-1.8,0-2.4,0v1.2c0.6,0,1.8,0,2.4,0V549.8z"/>
	<rect x="366.6" y="548.6" width="1.2" height="1.2"/>
	<rect x="365.4" y="548.6" class="st3" width="1.2" height="1.2"/>
	<rect x="364.2" y="548.6" width="1.2" height="1.2"/>
	<rect x="363" y="548.6" class="st3" width="1.2" height="1.2"/>
	<rect x="361.8" y="548.6" width="1.2" height="1.2"/>
	<rect x="360.6" y="548.6" class="st3" width="1.2" height="1.2"/>
	<rect x="358.2" y="548.6" class="st3" width="1.2" height="1.2"/>
	<rect x="348.6" y="548.6" class="st3" width="1.2" height="1.2"/>
	<rect x="347.4" y="548.6" width="1.2" height="1.2"/>
	<rect x="321" y="548.6" width="1.2" height="1.2"/>
	<rect x="319.8" y="548.6" class="st3" width="1.2" height="1.2"/>
	<rect x="293.3" y="548.6" width="1.2" height="1.2"/>
	<path d="M276.5,548.6c-0.6,0-1.8,0-2.4,0v1.2c0.6,0,1.8,0,2.4,0V548.6z"/>
	<rect x="367.8" y="547.4" width="1.2" height="1.2"/>
	<rect x="366.6" y="547.4" class="st3" width="1.2" height="1.2"/>
	<rect x="364.2" y="547.4" class="st3" width="1.2" height="1.2"/>
	<rect x="361.8" y="547.4" class="st3" width="1.2" height="1.2"/>
	<rect x="348.6" y="547.4" width="1.2" height="1.2"/>
	<rect x="316.2" y="547.4" class="st3" width="1.2" height="1.2"/>
	<rect x="313.8" y="547.4" class="st3" width="1.2" height="1.2"/>
	<rect x="308.9" y="547.4" class="st3" width="1.2" height="1.2"/>
	<path d="M294.5,548.6c0.6,0,1.8,0,2.4,0v-1.2c-0.6,0-1.8,0-2.4,0V548.6z"/>
	<path d="M278.9,547.4c-0.6,0-1.8,0-2.4,0v1.2c0.6,0,1.8,0,2.4,0V547.4z"/>
	<path d="M250.1,547.4v1.2c2.8,0,5.6,0,8.4,0v-1.2c-0.6,0-1.8,0-2.4,0C254.2,547.4,252,547.4,250.1,547.4z"/>
	<path d="M224.9,549.8c8.4,0,16.8,0,25.2,0v-1.2c-7.6,0-15.3,0-22.8,0v-1.2c-0.8,0-1.6,0-2.4,0c-0.8,0-1.6,0-2.4,0v1.2
		c0.6,0,1.8,0,2.4,0V549.8z"/>
	<rect x="369" y="546.2" width="1.2" height="1.2"/>
	<rect x="367.8" y="546.2" class="st3" width="1.2" height="1.2"/>
	<rect x="317.4" y="546.2" class="st3" width="1.2" height="1.2"/>
	<rect x="316.2" y="546.2" width="1.2" height="1.2"/>
	<rect x="315" y="546.2" class="st3" width="1.2" height="1.2"/>
	<rect x="310.1" y="546.2" class="st3" width="1.2" height="1.2"/>
	<rect x="296.9" y="546.2" width="1.2" height="1.2"/>
	<path d="M281.3,546.2c-0.6,0-1.8,0-2.4,0v1.2c0.6,0,1.8,0,2.4,0V546.2z"/>
	<path d="M258.5,546.2v1.2c1.1,0,2.5,0,3.6,0v-1.2c-0.6,0-1.8,0-2.4,0H258.5z"/>
	<path d="M229.7,546.2c-0.6,0-1.8,0-2.4,0v1.2c0.6,0,1.8,0,2.4,0V546.2z"/>
	<path class="st3" d="M227.3,547.4v-1.2c0.6,0,1.8,0,2.4,0V545c1.1,0,2.5,0,3.6,0v-1.2c1.1,0,2.5,0,3.6,0v-1.2c0.6,0,1.8,0,2.4,0
		v-1.2c0.6,0,1.8,0,2.4,0v-1.2c0.6,0,1.8,0,2.4,0V539c0.6,0,1.8,0,2.4,0v-1.2c1.1,0,2.5,0,3.6,0v-1.2c1.1,0,2.5,0,3.6,0v-1.2
		c1.1,0,2.5,0,3.6,0v-1.2c1.1,0,2.5,0,3.6,0V533c1.6,0,3.2,0,4.8,0v-1.2c1.6,0,3.2,0,4.8,0v-1.2c2.3,0,4.9,0,7.2,0v-1.2
		c3.6,0,7.2,0,10.8,0v-1.2c1.6,0,3.2,0,4.8,0V527c0.6,0,1.8,0,2.4,0v-1.2h1.2c0-1.1,0-2.5,0-3.6c-0.6,0-1.8,0-2.4,0v1.2
		c-0.6,0-1.8,0-2.4,0v1.2c-0.6,0-1.8,0-2.4,0v1.2c-1.6,0-3.2,0-4.8,0v1.2c-1.1,0-2.5,0-3.6,0v1.2c-1.9,0-4.1,0-6,0v1.2
		c-2.3,0-4.9,0-7.2,0v1.2c-1.6,0-3.2,0-4.8,0v1.2c-1.6,0-3.2,0-4.8,0v1.2c-5.2,0-10.4,0-15.6,0v1.2c-2.3,0-4.9,0-7.2,0v1.2
		c-1.6,0-3.2,0-4.8,0v1.2c-1.1,0-2.5,0-3.6,0v1.2c-0.6,0-1.8,0-2.4,0v1.2c-0.6,0-1.8,0-2.4,0c0,2.8,0,5.6,0,8.4c0.8,0,1.6,0,2.4,0
		C225.7,547.4,226.5,547.4,227.3,547.4z"/>
	<rect x="375" y="545" width="1.2" height="1.2"/>
	<path class="st3" d="M375,545h-1.2v-1.2h-1.2v-1.2h-1.2v-1.2h-1.2v1.2H369v1.2h1.2v1.2H369v1.2h1.2v1.2H369v1.2h-1.2v1.2h-1.2v1.2
		h-1.2v-1.2h-1.2v1.2H363v1.2h-1.2V551h-1.2v1.2h-1.2V551h-1.2v1.2H357V551h-1.2v1.2h-1.2V551h-1.2v1.2h-1.2V551H351v1.2h-1.2V551
		h-1.2v-1.2h-1.2v-1.2h1.2v-1.2h1.2v1.2h1.2v-1.2h1.2v-1.2c0.6,0,1.8,0,2.4,0V545c0.6,0,1.8,0,2.4,0v-1.2c0.6,0,1.8,0,2.4,0v-1.2
		h1.2v-1.2h1.2v-1.2h1.2V539h1.2v-1.2h1.2v-1.2h1.2v-1.2h1.2v-1.2h1.2c0-0.6,0-1.8,0-2.4h1.2c0-0.6,0-1.8,0-2.4h1.2v-1.2h1.2
		c0-0.7,0-1.6,0-2.4c0-0.4,0-0.8,0-1.2h1.2c0-2.8,0-5.6,0-8.4c0-0.8,0-1.6,0-2.4c-1.9,0-4.1,0-6,0v1.2c-0.6,0-1.8,0-2.4,0v1.2
		c-0.6,0-1.8,0-2.4,0v1.2h-1.2v1.2h-1.2c0,0.6,0,1.8,0,2.4h-1.2c0,0.6,0,1.8,0,2.4h-1.2v1.2H357c0,0.6,0,1.8,0,2.4h-1.2v1.2h-1.2
		c0,0.6,0,1.8,0,2.4h-1.2v1.2h-1.2c0,0.6,0,1.8,0,2.4H351v1.2h-1.2v1.2h-1.2v1.2h-1.2v1.2c-0.6,0-1.8,0-2.4,0v1.2
		c-0.6,0-1.8,0-2.4,0v1.2c-0.6,0-1.8,0-2.4,0v1.2c-1.1,0-2.5,0-3.6,0v1.2c-1.9,0-4.1,0-6,0v-1.2h-1.2v-1.2h1.2v1.2
		c1.2,0,2.4,0,3.6,0c0.8,0,1.6,0,2.4,0v-1.2c0.4,0,0.8,0,1.2,0c0.8,0,1.7,0,2.4,0v-1.2c0.6,0,1.8,0,2.4,0V539c0.6,0,1.8,0,2.4,0
		v-1.2c0.6,0,1.8,0,2.4,0v-1.2h1.2v-1.2h1.2v-1.2h1.2c0-0.3,0-0.8,0-1.2s0-0.9,0-1.2h1.2v-1.2h1.2c0-0.3,0-0.8,0-1.2s0-0.9,0-1.2
		h1.2V527h1.2c0-0.3,0-0.8,0-1.2s0-0.9,0-1.2h1.2v-1.2h1.2c0-0.3,0-0.8,0-1.2s0-0.9,0-1.2h1.2c0-0.3,0-0.8,0-1.2s0-0.9,0-1.2h1.2
		v-1.2h1.2v-1.2h1.2V515c0.6,0,1.8,0,2.4,0v-1.2c0.6,0,1.8,0,2.4,0v-1.2c1.2,0,2.4,0,3.6,0c0.4,0,0.8,0,1.2,0v-1.2
		c-0.3,0-0.8,0-1.2,0c-0.5,0-0.9,0-1.2,0v-1.2c-2,0-4,0-6,0c-0.8,0-1.6,0-2.4,0v1.2c-0.4,0-0.8,0-1.2,0c-0.8,0-1.7,0-2.4,0v1.2
		c-0.6,0-1.8,0-2.4,0v1.2h-1.2v1.2h-1.2v1.2h-1.2v1.2H351v1.2h-1.2v1.2h-1.2v1.2h-1.2v1.2h-1.2v1.2H345v1.2h-1.2v1.2h-1.2v1.2h-1.2
		v1.2h-1.2V527h1.2v-1.2h1.2v-1.2h1.2v-1.2h1.2v-1.2h1.2V521h1.2v-1.2h1.2v-1.2h1.2v-1.2h1.2v-1.2h1.2V515H351c0-1.1,0-2.5,0-3.6
		c0.6,0,1.8,0,2.4,0v-1.2h1.2V509h-1.2v-1.2h-1.2v-1.2c-2.8,0-5.6,0-8.4,0v1.2c-1.6,0-3.2,0-4.8,0v1.2c-0.6,0-1.8,0-2.4,0v1.2
		c-0.6,0-1.8,0-2.4,0v1.2c-0.6,0-1.8,0-2.4,0v1.2c-0.6,0-1.8,0-2.4,0v1.2h-1.2v1.2H327v1.2h-1.2v1.2h-1.2v1.2h-1.2v1.2h-1.2
		c0,0.6,0,1.8,0,2.4H321c0,0.6,0,1.8,0,2.4h-1.2c0,2.3,0,4.9,0,7.2h1.2c0,0.6,0,1.8,0,2.4c1.1,0,2.5,0,3.6,0V533c1.6,0,3.2,0,4.8,0
		v1.2c-0.8,0-1.6,0-2.4,0c-0.8,0-1.6,0-2.4,0v1.2c-0.6,0-1.8,0-2.4,0v1.2H321c0,0.6,0,1.8,0,2.4h-1.2c0,1.9,0,4.1,0,6h1.2v1.2h-1.2
		v1.2h1.2v1.2h1.2v1.2h1.2v1.2h1.2v1.2h1.2v1.2h1.2v-1.2h1.2v1.2c16,0,32.1,0,48,0c0-2.3,0-4.9,0-7.2H375V545z M325.8,530.6
		c-0.4,0-0.8,0-1.2,0v-1.2h-1.2c0-0.6,0-1.8,0-2.4c0.6,0,1.8,0,2.4,0v-1.2c1.1,0,2.5,0,3.6,0v-1.2c0.6,0,1.8,0,2.4,0v-1.2h1.2v-1.2
		h1.2c0-0.6,0-1.8,0-2.4c1.1,0,2.5,0,3.6,0c0,1.1,0,2.5,0,3.6h-1.2c0,0.6,0,1.8,0,2.4h-1.2v1.2h-1.2v1.2H333v1.2c-1.1,0-2.5,0-3.6,0
		v1.2C328.2,530.6,327,530.6,325.8,530.6z"/>
	<rect x="367.8" y="545" width="1.2" height="1.2"/>
	<rect x="366.6" y="545" class="st3" width="1.2" height="1.2"/>
	<rect x="316.2" y="545" class="st3" width="1.2" height="1.2"/>
	<rect x="315" y="545" width="1.2" height="1.2"/>
	<rect x="313.8" y="545" class="st3" width="1.2" height="1.2"/>
	<rect x="308.9" y="545" class="st3" width="1.2" height="1.2"/>
	<rect x="306.5" y="545" class="st3" width="1.2" height="1.2"/>
	<rect x="281.3" y="545" width="1.2" height="1.2"/>
	<path d="M262.1,545v1.2c1.9,0,4.1,0,6,0V545c-0.6,0-1.8,0-2.4,0C264.6,545,263.2,545,262.1,545z"/>
	<path d="M233.3,546.2V545c-1.1,0-2.5,0-3.6,0v1.2c0.6,0,1.8,0,2.4,0H233.3z"/>
	<rect x="373.8" y="543.8" width="1.2" height="1.2"/>
	<rect x="369" y="543.8" width="1.2" height="1.2"/>
	<rect x="367.8" y="543.8" class="st3" width="1.2" height="1.2"/>
	<rect x="317.4" y="543.8" class="st3" width="1.2" height="1.2"/>
	<rect x="316.2" y="543.8" width="1.2" height="1.2"/>
	<rect x="315" y="543.8" class="st3" width="1.2" height="1.2"/>
	<rect x="310.1" y="543.8" class="st3" width="1.2" height="1.2"/>
	<rect x="308.9" y="543.8" width="1.2" height="1.2"/>
	<rect x="307.7" y="543.8" class="st3" width="1.2" height="1.2"/>
	<path d="M284.9,543.8c-0.6,0-1.8,0-2.4,0v1.2c0.6,0,1.8,0,2.4,0V543.8z"/>
	<path d="M268.1,543.8v1.2c1.6,0,3.2,0,4.8,0v-1.2c-0.6,0-1.8,0-2.4,0C269.9,543.8,268.7,543.8,268.1,543.8z"/>
	<path d="M236.9,545v-1.2c-1.1,0-2.5,0-3.6,0v1.2c0.6,0,1.8,0,2.4,0H236.9z"/>
	<rect x="372.6" y="542.6" width="1.2" height="1.2"/>
	<path d="M330.6,542.6v1.2c1.9,0,4.1,0,6,0v-1.2c-0.8,0-1.6,0-2.4,0C332.9,542.6,331.7,542.6,330.6,542.6z"/>
	<rect x="316.2" y="542.6" class="st3" width="1.2" height="1.2"/>
	<rect x="315" y="542.6" width="1.2" height="1.2"/>
	<rect x="313.8" y="542.6" class="st3" width="1.2" height="1.2"/>
	<rect x="311.3" y="542.6" class="st3" width="1.2" height="1.2"/>
	<rect x="310.1" y="542.6" width="1.2" height="1.2"/>
	<rect x="308.9" y="542.6" class="st3" width="1.2" height="1.2"/>
	<path d="M287.3,542.6c-0.6,0-1.8,0-2.4,0v1.2c0.6,0,1.8,0,2.4,0V542.6z"/>
	<path d="M272.9,542.6v1.2c1.1,0,2.5,0,3.6,0v-1.2c-0.6,0-1.8,0-2.4,0H272.9z"/>
	<path d="M239.3,542.6c-0.6,0-1.8,0-2.4,0v1.2c0.6,0,1.8,0,2.4,0V542.6z"/>
	<rect x="371.4" y="541.4" width="1.2" height="1.2"/>
	<rect x="367.8" y="541.4" class="st3" width="1.2" height="1.2"/>
	<path d="M336.6,541.4v1.2c1.1,0,2.5,0,3.6,0v-1.2c-0.7,0-1.6,0-2.4,0C337.3,541.4,336.9,541.4,336.6,541.4z"/>
	<rect x="329.4" y="541.4" width="1.2" height="1.2"/>
	<rect x="316.2" y="541.4" width="1.2" height="1.2"/>
	<rect x="315" y="541.4" class="st3" width="1.2" height="1.2"/>
	<rect x="313.8" y="541.4" width="1.2" height="1.2"/>
	<rect x="312.5" y="541.4" class="st3" width="1.2" height="1.2"/>
	<rect x="311.3" y="541.4" width="1.2" height="1.2"/>
	<rect x="310.1" y="541.4" class="st3" width="1.2" height="1.2"/>
	<path d="M289.7,541.4c-0.6,0-1.8,0-2.4,0v1.2c0.6,0,1.8,0,2.4,0V541.4z"/>
	<path d="M276.5,541.4v1.2c1.1,0,2.5,0,3.6,0v-1.2c-0.6,0-1.8,0-2.4,0H276.5z"/>
	<path d="M241.7,541.4c-0.6,0-1.8,0-2.4,0v1.2c0.6,0,1.8,0,2.4,0V541.4z"/>
	<path d="M340.2,541.4c0.6,0,1.8,0,2.4,0v-1.2c-0.6,0-1.8,0-2.4,0V541.4z"/>
	<rect x="315" y="540.2" width="1.2" height="1.2"/>
	<rect x="313.8" y="540.2" class="st3" width="1.2" height="1.2"/>
	<rect x="312.5" y="540.2" width="1.2" height="1.2"/>
	<rect x="311.3" y="540.2" class="st3" width="1.2" height="1.2"/>
	<rect x="310.1" y="540.2" width="1.2" height="1.2"/>
	<rect x="308.9" y="540.2" class="st3" width="1.2" height="1.2"/>
	<path d="M292.1,540.2c-0.6,0-1.8,0-2.4,0v1.2c0.6,0,1.8,0,2.4,0V540.2z"/>
	<path d="M280.1,541.4c0.6,0,1.8,0,2.4,0v-1.2c-0.6,0-1.8,0-2.4,0V541.4z"/>
	<path d="M244.1,540.2c-0.6,0-1.8,0-2.4,0v1.2c0.6,0,1.8,0,2.4,0V540.2z"/>
	<path d="M342.6,540.2c0.6,0,1.8,0,2.4,0V539c-0.6,0-1.8,0-2.4,0V540.2z"/>
	<rect x="313.8" y="539" width="1.2" height="1.2"/>
	<rect x="312.5" y="539" class="st3" width="1.2" height="1.2"/>
	<rect x="311.3" y="539" width="1.2" height="1.2"/>
	<rect x="310.1" y="539" class="st3" width="1.2" height="1.2"/>
	<rect x="308.9" y="539" width="1.2" height="1.2"/>
	<rect x="307.7" y="539" class="st3" width="1.2" height="1.2"/>
	<rect x="305.3" y="539" class="st3" width="1.2" height="1.2"/>
	<rect x="302.9" y="539" class="st3" width="1.2" height="1.2"/>
	<rect x="292.1" y="539" width="1.2" height="1.2"/>
	<path d="M282.5,540.2c0.6,0,1.8,0,2.4,0V539c-0.6,0-1.8,0-2.4,0V540.2z"/>
	<path d="M246.5,539c-0.6,0-1.8,0-2.4,0v1.2c0.6,0,1.8,0,2.4,0V539z"/>
	<path d="M345,539c0.6,0,1.8,0,2.4,0v-1.2c-0.6,0-1.8,0-2.4,0V539z"/>
	<rect x="312.5" y="537.8" width="1.2" height="1.2"/>
	<rect x="311.3" y="537.8" class="st3" width="1.2" height="1.2"/>
	<rect x="310.1" y="537.8" width="1.2" height="1.2"/>
	<rect x="308.9" y="537.8" class="st3" width="1.2" height="1.2"/>
	<rect x="307.7" y="537.8" width="1.2" height="1.2"/>
	<rect x="306.5" y="537.8" class="st3" width="1.2" height="1.2"/>
	<rect x="305.3" y="537.8" width="1.2" height="1.2"/>
	<rect x="304.1" y="537.8" class="st3" width="1.2" height="1.2"/>
	<rect x="302.9" y="537.8" width="1.2" height="1.2"/>
	<rect x="301.7" y="537.8" class="st3" width="1.2" height="1.2"/>
	<rect x="293.3" y="537.8" width="1.2" height="1.2"/>
	<path d="M284.9,539c0.6,0,1.8,0,2.4,0v-1.2c-0.6,0-1.8,0-2.4,0V539z"/>
	<path d="M250.1,539v-1.2c-1.1,0-2.5,0-3.6,0v1.2c0.6,0,1.8,0,2.4,0H250.1z"/>
	<path d="M224.9,537.8c0.6,0,1.8,0,2.4,0v-1.2c1.1,0,2.5,0,3.6,0v-1.2c1.6,0,3.2,0,4.8,0v-1.2c2.3,0,4.9,0,7.2,0V533
		c5.2,0,10.4,0,15.6,0v-1.2c1.6,0,3.2,0,4.8,0v-1.2c1.6,0,3.2,0,4.8,0v-1.2c2.3,0,4.9,0,7.2,0v-1.2c1.9,0,4.1,0,6,0V527
		c1.1,0,2.5,0,3.6,0v-1.2c1.6,0,3.2,0,4.8,0v-1.2c0.6,0,1.8,0,2.4,0v-1.2c0.6,0,1.8,0,2.4,0v-1.2c0.6,0,1.8,0,2.4,0
		c0,1.1,0,2.5,0,3.6h-1.2v1.2h1.2c0,0.4,0,0.8,0,1.2c0,0.8,0,1.7,0,2.4h1.2v-1.2c0.6,0,1.8,0,2.4,0v-1.2c0.6,0,1.8,0,2.4,0V527h-1.2
		v-1.2h-1.2v1.2h-1.2v-1.2h1.2v-1.2h1.2v-1.2h-1.2v-1.2h1.2V521h-1.2v-1.2h1.2v-1.2h1.2v-1.2h-1.2v-1.2h1.2V515h1.2v-1.2h-1.2v-1.2
		h1.2v-1.2h1.2v-1.2h1.2v1.2h1.2v-1.2h1.2v1.2h-1.2v1.2h1.2v1.2h1.2v-1.2c1.1,0,2.5,0,3.6,0v-1.2h1.2c0-1.6,0-3.2,0-4.8h-1.2
		c0-0.6,0-1.8,0-2.4h-1.2v1.2h-1.2v-1.2h-1.2v1.2h-1.2v-1.2h1.2V503h1.2v1.2h1.2V503h1.2v1.2c1.1,0,2.5,0,3.6,0V503h1.2
		c0-1.1,0-2.5,0-3.6h-1.2v-1.2c-1.1,0-2.5,0-3.6,0v-1.2c-1.6,0-3.2,0-4.8,0v1.2h-1.2v1.2h-1.2v1.2h-1.2c0,1.1,0,2.5,0,3.6
		c-2.3,0-4.9,0-7.2,0v1.2c2.3,0,4.9,0,7.2,0v1.2c2.3,0,4.9,0,7.2,0c0,1.1,0,2.5,0,3.6c-0.6,0-1.8,0-2.4,0V509c-4,0-8,0-12,0v1.2
		c0.6,0,1.8,0,2.4,0v1.2h-1.2c0,0.6,0,1.8,0,2.4h-1.2c0,1.1,0,2.5,0,3.6h-1.2v1.2c-0.6,0-1.8,0-2.4,0v1.2c-0.6,0-1.8,0-2.4,0v1.2
		c-0.6,0-1.8,0-2.4,0v1.2c-1.1,0-2.5,0-3.6,0v1.2c-1.6,0-3.2,0-4.8,0v1.2c-1.9,0-4.1,0-6,0v1.2c-2.3,0-4.9,0-7.2,0v1.2
		c-2.3,0-4.9,0-7.2,0v1.2c-7.6,0-15.3,0-22.8,0v1.2c-3.1,0-6.5,0-9.6,0v1.2c-1.1,0-2.5,0-3.6,0v1.2c-0.6,0-1.8,0-2.4,0
		c0,2.3,0,4.9,0,7.2c0.6,0,1.8,0,2.4,0V537.8z"/>
	<rect x="347.4" y="536.6" width="1.2" height="1.2"/>
	<rect x="311.3" y="536.6" width="1.2" height="1.2"/>
	<rect x="310.1" y="536.6" class="st3" width="1.2" height="1.2"/>
	<rect x="308.9" y="536.6" width="1.2" height="1.2"/>
	<rect x="307.7" y="536.6" class="st3" width="1.2" height="1.2"/>
	<rect x="306.5" y="536.6" width="1.2" height="1.2"/>
	<rect x="305.3" y="536.6" class="st3" width="1.2" height="1.2"/>
	<rect x="304.1" y="536.6" width="1.2" height="1.2"/>
	<rect x="302.9" y="536.6" class="st3" width="1.2" height="1.2"/>
	<path class="st3" d="M295.7,536.6v1.2h-1.2v1.2h-1.2v1.2h-1.2v1.2c-0.6,0-1.8,0-2.4,0v1.2c-0.6,0-1.8,0-2.4,0v1.2
		c-0.6,0-1.8,0-2.4,0v1.2c-0.6,0-1.8,0-2.4,0v1.2h-1.2v1.2c-0.6,0-1.8,0-2.4,0v1.2c-0.6,0-1.8,0-2.4,0v1.2c-0.6,0-1.8,0-2.4,0v1.2
		c-0.6,0-1.8,0-2.4,0v1.2c1.1,0,2.5,0,3.6,0V551c1.1,0,2.5,0,3.6,0v-1.2c1.1,0,2.5,0,3.6,0v-1.2c0.6,0,1.8,0,2.4,0v-1.2
		c0.6,0,1.8,0,2.4,0v-1.2c0.6,0,1.8,0,2.4,0V545c0.6,0,1.8,0,2.4,0v-1.2h1.2v-1.2c0.6,0,1.8,0,2.4,0v-1.2h1.2v-1.2h1.2V539h1.2
		c0-0.6,0-1.8,0-2.4h-1.2v-1.2h-1.2v1.2H295.7z"/>
	<rect x="294.5" y="536.6" width="1.2" height="1.2"/>
	<path d="M287.3,537.8c0.6,0,1.8,0,2.4,0v-1.2c-0.6,0-1.8,0-2.4,0V537.8z"/>
	<path d="M253.7,537.8v-1.2c-1.1,0-2.5,0-3.6,0v1.2c0.6,0,1.8,0,2.4,0H253.7z"/>
	<rect x="348.6" y="535.4" width="1.2" height="1.2"/>
	<rect x="310.1" y="535.4" width="1.2" height="1.2"/>
	<rect x="308.9" y="535.4" class="st3" width="1.2" height="1.2"/>
	<rect x="307.7" y="535.4" width="1.2" height="1.2"/>
	<rect x="306.5" y="535.4" class="st3" width="1.2" height="1.2"/>
	<rect x="305.3" y="535.4" width="1.2" height="1.2"/>
	<rect x="304.1" y="535.4" class="st3" width="1.2" height="1.2"/>
	<rect x="302.9" y="535.4" width="1.2" height="1.2"/>
	<rect x="301.7" y="535.4" class="st3" width="1.2" height="1.2"/>
	<rect x="295.7" y="535.4" width="1.2" height="1.2"/>
	<path d="M289.7,536.6c0.6,0,1.8,0,2.4,0v-1.2c-0.6,0-1.8,0-2.4,0V536.6z"/>
	<path d="M257.3,536.6v-1.2c-1.1,0-2.5,0-3.6,0v1.2c0.6,0,1.8,0,2.4,0H257.3z"/>
	<rect x="349.8" y="534.2" width="1.2" height="1.2"/>
	<rect x="311.3" y="534.2" width="1.2" height="1.2"/>
	<rect x="310.1" y="534.2" class="st3" width="1.2" height="1.2"/>
	<rect x="308.9" y="534.2" width="1.2" height="1.2"/>
	<rect x="307.7" y="534.2" class="st3" width="1.2" height="1.2"/>
	<rect x="306.5" y="534.2" width="1.2" height="1.2"/>
	<rect x="305.3" y="534.2" class="st3" width="1.2" height="1.2"/>
	<rect x="304.1" y="534.2" width="1.2" height="1.2"/>
	<rect x="302.9" y="534.2" class="st3" width="1.2" height="1.2"/>
	<rect x="301.7" y="534.2" width="1.2" height="1.2"/>
	<rect x="300.5" y="534.2" class="st3" width="1.2" height="1.2"/>
	<rect x="292.1" y="534.2" width="1.2" height="1.2"/>
	<path d="M260.9,535.4v-1.2c-1.1,0-2.5,0-3.6,0v1.2c0.6,0,1.8,0,2.4,0H260.9z"/>
	<path d="M329.4,534.2V533c-1.6,0-3.2,0-4.8,0v1.2c0.8,0,1.6,0,2.4,0C327.8,534.2,328.6,534.2,329.4,534.2z"/>
	<rect x="310.1" y="533" width="1.2" height="1.2"/>
	<rect x="308.9" y="533" class="st3" width="1.2" height="1.2"/>
	<rect x="306.5" y="533" class="st3" width="1.2" height="1.2"/>
	<rect x="305.3" y="533" width="1.2" height="1.2"/>
	<rect x="304.1" y="533" class="st3" width="1.2" height="1.2"/>
	<rect x="302.9" y="533" width="1.2" height="1.2"/>
	<rect x="301.7" y="533" class="st3" width="1.2" height="1.2"/>
	<rect x="293.3" y="533" width="1.2" height="1.2"/>
	<path d="M265.7,534.2V533c-1.6,0-3.2,0-4.8,0v1.2c0.6,0,1.8,0,2.4,0C263.9,534.2,265.1,534.2,265.7,534.2z"/>
	<path d="M351,533c0,0.5,0,0.9,0,1.2h1.2c0-0.6,0-1.8,0-2.4H351C351,532.1,351,532.5,351,533z"/>
	<rect x="305.3" y="531.8" class="st3" width="1.2" height="1.2"/>
	<rect x="302.9" y="531.8" class="st3" width="1.2" height="1.2"/>
	<rect x="294.5" y="531.8" width="1.2" height="1.2"/>
	<path d="M270.5,533v-1.2c-1.6,0-3.2,0-4.8,0v1.2c0.6,0,1.8,0,2.4,0S269.9,533,270.5,533z"/>
	<rect x="352.2" y="530.6" width="1.2" height="1.2"/>
	<rect x="295.7" y="530.6" width="1.2" height="1.2"/>
	<path d="M277.7,531.8v-1.2c-2.3,0-4.9,0-7.2,0v1.2c0.6,0,1.8,0,2.4,0C274.5,531.8,276.2,531.8,277.7,531.8z"/>
	<path class="st3" d="M224.9,530.6c1.1,0,2.5,0,3.6,0v-1.2c3.1,0,6.5,0,9.6,0v-1.2c7.6,0,15.3,0,22.8,0V527c2.3,0,4.9,0,7.2,0v-1.2
		c2.3,0,4.9,0,7.2,0v-1.2c1.9,0,4.1,0,6,0v-1.2c1.6,0,3.2,0,4.8,0v-1.2c1.1,0,2.5,0,3.6,0V521c0.6,0,1.8,0,2.4,0v-1.2
		c0.6,0,1.8,0,2.4,0v-1.2c0.6,0,1.8,0,2.4,0v-1.2h1.2c0-1.1,0-2.5,0-3.6h1.2c0-0.6,0-1.8,0-2.4h1.2v-1.2c-0.6,0-1.8,0-2.4,0v1.2
		c-0.6,0-1.8,0-2.4,0v1.2c-0.6,0-1.8,0-2.4,0v1.2c-0.6,0-1.8,0-2.4,0v1.2c-0.6,0-1.8,0-2.4,0v1.2c-0.6,0-1.8,0-2.4,0v1.2h-1.2v1.2
		c-0.6,0-1.8,0-2.4,0v1.2c-0.6,0-1.8,0-2.4,0v1.2c-0.6,0-1.8,0-2.4,0v1.2c-0.6,0-1.8,0-2.4,0v1.2c-1.9,0-4.1,0-6,0v1.2
		c-2.8,0-5.6,0-8.4,0v1.2c-8,0-16,0-24,0v-1.2c-3.1,0-6.5,0-9.6,0v-1.2c-0.8,0-1.6,0-2.4,0c-0.8,0-1.6,0-2.4,0c0,2.8,0,5.6,0,8.4
		c0.6,0,1.8,0,2.4,0V530.6z"/>
	<path d="M329.4,529.4c1.1,0,2.5,0,3.6,0v-1.2h1.2V527h1.2v-1.2h1.2c0-0.6,0-1.8,0-2.4h1.2c0-1.1,0-2.5,0-3.6c-1.1,0-2.5,0-3.6,0
		c0,0.6,0,1.8,0,2.4H333v1.2h-1.2v1.2c-0.6,0-1.8,0-2.4,0v1.2c-1.1,0-2.5,0-3.6,0v1.2c-0.6,0-1.8,0-2.4,0c0,0.6,0,1.8,0,2.4h1.2v1.2
		c0.4,0,0.8,0,1.2,0c1.2,0,2.4,0,3.6,0V529.4z"/>
	<path d="M288.5,530.6v-1.2c-3.6,0-7.2,0-10.8,0v1.2c0.6,0,1.8,0,2.4,0C282.9,530.6,285.8,530.6,288.5,530.6z"/>
	<path d="M371.4,529.4h-1.2c0,0.6,0,1.8,0,2.4H369c0,0.6,0,1.8,0,2.4h-1.2v1.2h-1.2v1.2h-1.2v1.2h-1.2v1.2H363v1.2h-1.2v1.2h-1.2
		v1.2h-1.2v1.2c-0.6,0-1.8,0-2.4,0v1.2c-0.6,0-1.8,0-2.4,0v1.2c-0.6,0-1.8,0-2.4,0v1.2H351v1.2h-1.2v1.2h1.2v1.2h1.2v-1.2h1.2v1.2
		h1.2v-1.2h1.2v1.2h1.2v-1.2h1.2v-1.2h1.2v1.2h1.2v-1.2h1.2v-1.2h1.2v1.2h1.2v-1.2h1.2v1.2h1.2v-1.2h1.2v-1.2h-1.2V545h1.2v-1.2h1.2
		v-1.2h-1.2v-1.2h1.2v1.2h1.2v-1.2h1.2v-1.2h-1.2c0-1.1,0-2.5,0-3.6h1.2c0-1.1,0-2.5,0-3.6h1.2c0-1.6,0-3.2,0-4.8h-1.2V529.4z"/>
	<path d="M353.4,529.4c0,0.5,0,0.9,0,1.2h1.2c0-0.6,0-1.8,0-2.4h-1.2C353.4,528.5,353.4,528.9,353.4,529.4z"/>
	<path class="st3" d="M296.9,527h-1.2v1.2c-0.6,0-1.8,0-2.4,0v1.2c-0.8,0-1.6,0-2.4,0c-0.8,0-1.6,0-2.4,0v1.2c-2.8,0-5.6,0-8.4,0
		c-0.6,0-1.8,0-2.4,0v1.2c-1.6,0-3.2,0-4.8,0c-0.6,0-1.8,0-2.4,0v1.2c-0.6,0-1.8,0-2.4,0s-1.8,0-2.4,0v1.2c-0.6,0-1.8,0-2.4,0
		c-0.6,0-1.8,0-2.4,0v1.2h-1.2c-0.6,0-1.8,0-2.4,0v1.2h-1.2c-0.6,0-1.8,0-2.4,0v1.2h-1.2c-0.6,0-1.8,0-2.4,0v1.2h-1.2
		c-0.6,0-1.8,0-2.4,0v1.2c-0.6,0-1.8,0-2.4,0v1.2c-0.6,0-1.8,0-2.4,0v1.2c-0.6,0-1.8,0-2.4,0v1.2c-0.6,0-1.8,0-2.4,0v1.2h-1.2
		c-0.6,0-1.8,0-2.4,0v1.2h-1.2c-0.6,0-1.8,0-2.4,0v1.2c-0.6,0-1.8,0-2.4,0v1.2c7.6,0,15.3,0,22.8,0v-1.2c1.9,0,4.1,0,6,0
		c0.6,0,1.8,0,2.4,0v-1.2h1.2c0.6,0,1.8,0,2.4,0V545c1.1,0,2.5,0,3.6,0c0.6,0,1.8,0,2.4,0v-1.2c0.6,0,1.8,0,2.4,0c0.6,0,1.8,0,2.4,0
		v-1.2h1.2c0.6,0,1.8,0,2.4,0v-1.2h1.2c0.6,0,1.8,0,2.4,0v-1.2c0.6,0,1.8,0,2.4,0V539c0.6,0,1.8,0,2.4,0v-1.2c0.6,0,1.8,0,2.4,0
		v-1.2c0.6,0,1.8,0,2.4,0v-1.2c0.6,0,1.8,0,2.4,0v-1.2h1.2V533h1.2v-1.2h1.2v-1.2h1.2c0-0.7,0-1.6,0-2.4
		C296.9,527.8,296.9,527.3,296.9,527z"/>
	<path d="M293.3,529.4v-1.2c-1.6,0-3.2,0-4.8,0v1.2c0.8,0,1.6,0,2.4,0C291.7,529.4,292.6,529.4,293.3,529.4z"/>
	<rect x="354.6" y="527" width="1.2" height="1.2"/>
	<rect x="340.2" y="527" width="1.2" height="1.2"/>
	<path d="M295.7,527c-0.6,0-1.8,0-2.4,0v1.2c0.6,0,1.8,0,2.4,0V527z"/>
	<rect x="341.4" y="525.8" width="1.2" height="1.2"/>
	<rect x="301.7" y="525.8" class="st3" width="1.2" height="1.2"/>
	<rect x="299.3" y="525.8" class="st3" width="1.2" height="1.2"/>
	<path d="M372.6,525.8c0,0.8,0,1.7,0,2.4h1.2c0-1.1,0-2.5,0-3.6h-1.2C372.6,524.9,372.6,525.4,372.6,525.8z"/>
	<path d="M355.8,525.8c0,0.5,0,0.9,0,1.2h1.2c0-0.6,0-1.8,0-2.4h-1.2C355.8,524.9,355.8,525.3,355.8,525.8z"/>
	<rect x="342.6" y="524.6" width="1.2" height="1.2"/>
	<rect x="305.3" y="524.6" class="st3" width="1.2" height="1.2"/>
	<rect x="302.9" y="524.6" class="st3" width="1.2" height="1.2"/>
	<rect x="301.7" y="524.6" width="1.2" height="1.2"/>
	<rect x="300.5" y="524.6" class="st3" width="1.2" height="1.2"/>
	<path d="M236.9,524.6v1.2c8,0,16,0,24,0v-1.2c-0.6,0-1.8,0-2.4,0C251.3,524.6,244.1,524.6,236.9,524.6z"/>
	<rect x="357" y="523.4" width="1.2" height="1.2"/>
	<rect x="343.8" y="523.4" width="1.2" height="1.2"/>
	<path d="M318.6,523.4v-1.2h-1.2c0,3.1,0,6.5,0,9.6h1.2c0,0.6,0,1.8,0,2.4h1.2c0,1.6,0,3.2,0,4.8h1.2c0-0.6,0-1.8,0-2.4h1.2v-1.2
		c0.6,0,1.8,0,2.4,0v-1.2c-1.1,0-2.5,0-3.6,0c0-0.6,0-1.8,0-2.4h-1.2c0-2.3,0-4.9,0-7.2h-1.2V523.4z"/>
	<rect x="306.5" y="523.4" class="st3" width="1.2" height="1.2"/>
	<rect x="305.3" y="523.4" width="1.2" height="1.2"/>
	<rect x="304.1" y="523.4" class="st3" width="1.2" height="1.2"/>
	<rect x="302.9" y="523.4" width="1.2" height="1.2"/>
	<rect x="301.7" y="523.4" class="st3" width="1.2" height="1.2"/>
	<path d="M260.9,523.4v1.2c2.8,0,5.6,0,8.4,0v-1.2c-0.6,0-1.8,0-2.4,0C265,523.4,262.8,523.4,260.9,523.4z"/>
	<path d="M235.7,523.4c-2.8,0-5.6,0-8.4,0v1.2c3.1,0,6.5,0,9.6,0v-1.2H235.7z"/>
	<rect x="345" y="522.2" width="1.2" height="1.2"/>
	<path d="M319.8,523.4v1.2h1.2c0-0.6,0-1.8,0-2.4h-1.2V523.4z"/>
	<polygon class="st3" points="319.8,522.2 318.6,522.2 318.6,523.4 318.6,524.6 319.8,524.6 319.8,523.4 	"/>
	<rect x="308.9" y="522.2" width="1.2" height="1.2"/>
	<rect x="307.7" y="522.2" class="st3" width="1.2" height="1.2"/>
	<rect x="306.5" y="522.2" width="1.2" height="1.2"/>
	<rect x="305.3" y="522.2" class="st3" width="1.2" height="1.2"/>
	<rect x="304.1" y="522.2" width="1.2" height="1.2"/>
	<rect x="302.9" y="522.2" class="st3" width="1.2" height="1.2"/>
	<rect x="301.7" y="522.2" width="1.2" height="1.2"/>
	<rect x="300.5" y="522.2" class="st3" width="1.2" height="1.2"/>
	<path d="M269.3,522.2v1.2c1.9,0,4.1,0,6,0v-1.2c-0.6,0-1.8,0-2.4,0C271.8,522.2,270.4,522.2,269.3,522.2z"/>
	<path d="M227.3,523.4v-1.2c-0.8,0-1.6,0-2.4,0c-0.8,0-1.6,0-2.4,0v1.2c0.8,0,1.6,0,2.4,0C225.7,523.4,226.5,523.4,227.3,523.4z"/>
	<path d="M358.2,522.2c0,0.5,0,0.9,0,1.2h1.2c0-0.6,0-1.8,0-2.4h-1.2C358.2,521.3,358.2,521.7,358.2,522.2z"/>
	<rect x="346.2" y="521" width="1.2" height="1.2"/>
	<path d="M319.8,521v-1.2h-1.2c0,0.6,0,1.8,0,2.4h1.2V521z"/>
	<rect x="307.7" y="521" width="1.2" height="1.2"/>
	<rect x="306.5" y="521" class="st3" width="1.2" height="1.2"/>
	<rect x="305.3" y="521" width="1.2" height="1.2"/>
	<rect x="304.1" y="521" class="st3" width="1.2" height="1.2"/>
	<rect x="302.9" y="521" width="1.2" height="1.2"/>
	<rect x="301.7" y="521" class="st3" width="1.2" height="1.2"/>
	<path d="M275.3,522.2c0.6,0,1.8,0,2.4,0V521c-0.6,0-1.8,0-2.4,0V522.2z"/>
	<path d="M248.9,522.2c3.6,0,7.2,0,10.8,0V521c-4,0-8,0-12,0v1.2H248.9z"/>
	<path class="st3" d="M227.3,522.2v1.2c2.8,0,5.6,0,8.4,0h1.2v1.2c7.2,0,14.4,0,21.6,0c0.6,0,1.8,0,2.4,0v-1.2c1.9,0,4.1,0,6,0
		c0.6,0,1.8,0,2.4,0v-1.2c1.1,0,2.5,0,3.6,0c0.6,0,1.8,0,2.4,0V521c0.6,0,1.8,0,2.4,0v-1.2c0.6,0,1.8,0,2.4,0v-1.2
		c0.6,0,1.8,0,2.4,0v-1.2c0.6,0,1.8,0,2.4,0v-1.2h1.2V515c0.6,0,1.8,0,2.4,0v-1.2c0.6,0,1.8,0,2.4,0v-1.2c0.6,0,1.8,0,2.4,0v-1.2
		c0.6,0,1.8,0,2.4,0v-1.2c0.6,0,1.8,0,2.4,0V509c4,0,8,0,12,0v1.2c0.6,0,1.8,0,2.4,0c0-1.1,0-2.5,0-3.6c-2.3,0-4.9,0-7.2,0v-1.2
		c-2.3,0-4.9,0-7.2,0v1.2c-0.6,0-1.8,0-2.4,0v1.2c-0.6,0-1.8,0-2.4,0v1.2c-0.6,0-1.8,0-2.4,0v1.2c-0.6,0-1.8,0-2.4,0v1.2h-1.2v1.2
		h-1.2v1.2c-0.6,0-1.8,0-2.4,0v1.2h-1.2v1.2c-0.6,0-1.8,0-2.4,0v1.2c-0.6,0-1.8,0-2.4,0v1.2c-0.4,0-0.8,0-1.2,0c-0.8,0-1.7,0-2.4,0
		v1.2c-1.2,0-2.4,0-3.6,0c-0.8,0-1.6,0-2.4,0v1.2c-2,0-4,0-6,0c-0.8,0-1.6,0-2.4,0v1.2c-3.6,0-7.2,0-10.8,0h-1.2V521
		c-3.2,0-6.4,0-9.6,0c-0.4,0-0.8,0-1.2,0v-1.2c-1.9,0-4,0-6,0c-0.4,0-0.8,0-1.2,0v-1.2c-1.5,0-3.2,0-4.8,0c-0.8,0-1.6,0-2.4,0
		c0,1.1,0,2.5,0,3.6c0.8,0,1.6,0,2.4,0C225.7,522.2,226.5,522.2,227.3,522.2z"/>
	<rect x="347.4" y="519.8" width="1.2" height="1.2"/>
	<path d="M321,521v1.2h1.2c0-0.6,0-1.8,0-2.4H321V521z"/>
	<polygon class="st3" points="321,519.8 319.8,519.8 319.8,521 319.8,522.2 321,522.2 321,521 	"/>
	<rect x="308.9" y="519.8" width="1.2" height="1.2"/>
	<rect x="307.7" y="519.8" class="st3" width="1.2" height="1.2"/>
	<rect x="306.5" y="519.8" width="1.2" height="1.2"/>
	<rect x="305.3" y="519.8" class="st3" width="1.2" height="1.2"/>
	<rect x="304.1" y="519.8" width="1.2" height="1.2"/>
	<rect x="302.9" y="519.8" class="st3" width="1.2" height="1.2"/>
	<rect x="301.7" y="519.8" width="1.2" height="1.2"/>
	<rect x="300.5" y="519.8" class="st3" width="1.2" height="1.2"/>
	<path d="M277.7,521c0.6,0,1.8,0,2.4,0v-1.2c-0.6,0-1.8,0-2.4,0V521z"/>
	<path d="M268.1,521v-1.2c-2.8,0-5.6,0-8.4,0v1.2c0.8,0,1.6,0,2.4,0C264.1,521,266.1,521,268.1,521z"/>
	<path d="M238.1,521c3.2,0,6.4,0,9.6,0v-1.2c-3.6,0-7.2,0-10.8,0v1.2C237.3,521,237.7,521,238.1,521z"/>
	<path d="M359.4,519.8c0,0.5,0,0.9,0,1.2h1.2c0-0.6,0-1.8,0-2.4h-1.2C359.4,518.9,359.4,519.3,359.4,519.8z"/>
	<rect x="348.6" y="518.6" width="1.2" height="1.2"/>
	<rect x="322.2" y="518.6" width="1.2" height="1.2"/>
	<path d="M321,518.6v-1.2h-1.2c0,0.6,0,1.8,0,2.4h1.2V518.6z"/>
	<rect x="307.7" y="518.6" width="1.2" height="1.2"/>
	<rect x="306.5" y="518.6" class="st3" width="1.2" height="1.2"/>
	<rect x="305.3" y="518.6" width="1.2" height="1.2"/>
	<rect x="304.1" y="518.6" class="st3" width="1.2" height="1.2"/>
	<rect x="302.9" y="518.6" width="1.2" height="1.2"/>
	<rect x="301.7" y="518.6" class="st3" width="1.2" height="1.2"/>
	<path d="M280.1,519.8c0.6,0,1.8,0,2.4,0v-1.2c-0.6,0-1.8,0-2.4,0V519.8z"/>
	<path d="M274.1,519.8v-1.2c-1.9,0-4.1,0-6,0v1.2c0.8,0,1.6,0,2.4,0C271.7,519.8,273,519.8,274.1,519.8z"/>
	<path d="M230.9,519.8c2,0,4.1,0,6,0v-1.2c-2.3,0-4.9,0-7.2,0v1.2C230.1,519.8,230.5,519.8,230.9,519.8z"/>
	<rect x="360.6" y="517.4" width="1.2" height="1.2"/>
	<rect x="349.8" y="517.4" width="1.2" height="1.2"/>
	<rect x="323.4" y="517.4" width="1.2" height="1.2"/>
	<rect x="308.9" y="517.4" width="1.2" height="1.2"/>
	<rect x="307.7" y="517.4" class="st3" width="1.2" height="1.2"/>
	<rect x="306.5" y="517.4" width="1.2" height="1.2"/>
	<rect x="305.3" y="517.4" class="st3" width="1.2" height="1.2"/>
	<rect x="304.1" y="517.4" width="1.2" height="1.2"/>
	<rect x="302.9" y="517.4" class="st3" width="1.2" height="1.2"/>
	<path d="M282.5,518.6c0.6,0,1.8,0,2.4,0v-1.2c-0.6,0-1.8,0-2.4,0V518.6z"/>
	<path d="M277.7,518.6v-1.2c-1.1,0-2.5,0-3.6,0v1.2c0.7,0,1.6,0,2.4,0C276.9,518.6,277.4,518.6,277.7,518.6z"/>
	<path d="M229.7,518.6v-1.2c-2.3,0-4.9,0-7.2,0v1.2c0.8,0,1.6,0,2.4,0C226.5,518.6,228.2,518.6,229.7,518.6z"/>
	<rect x="361.8" y="516.2" width="1.2" height="1.2"/>
	<rect x="351" y="516.2" width="1.2" height="1.2"/>
	<rect x="324.6" y="516.2" width="1.2" height="1.2"/>
	<rect x="321" y="516.2" width="1.2" height="1.2"/>
	<rect x="307.7" y="516.2" width="1.2" height="1.2"/>
	<rect x="306.5" y="516.2" class="st3" width="1.2" height="1.2"/>
	<rect x="305.3" y="516.2" width="1.2" height="1.2"/>
	<rect x="304.1" y="516.2" class="st3" width="1.2" height="1.2"/>
	<rect x="302.9" y="516.2" width="1.2" height="1.2"/>
	<rect x="301.7" y="516.2" class="st3" width="1.2" height="1.2"/>
	<rect x="284.9" y="516.2" width="1.2" height="1.2"/>
	<path d="M280.1,516.2c-0.6,0-1.8,0-2.4,0v1.2c0.6,0,1.8,0,2.4,0V516.2z"/>
	<path d="M373.8,524.6h1.2c0-3.6,0-7.2,0-10.8h-1.2c0,0.8,0,1.6,0,2.4C373.8,519,373.8,521.8,373.8,524.6z"/>
	<path d="M363,516.2c0.6,0,1.8,0,2.4,0V515c-0.6,0-1.8,0-2.4,0V516.2z"/>
	<rect x="325.8" y="515" width="1.2" height="1.2"/>
	<rect x="322.2" y="515" width="1.2" height="1.2"/>
	<rect x="308.9" y="515" width="1.2" height="1.2"/>
	<rect x="307.7" y="515" class="st3" width="1.2" height="1.2"/>
	<rect x="306.5" y="515" width="1.2" height="1.2"/>
	<rect x="305.3" y="515" class="st3" width="1.2" height="1.2"/>
	<rect x="304.1" y="515" width="1.2" height="1.2"/>
	<rect x="302.9" y="515" class="st3" width="1.2" height="1.2"/>
	<path d="M286.1,516.2c0.6,0,1.8,0,2.4,0V515c-0.6,0-1.8,0-2.4,0V516.2z"/>
	<path d="M282.5,515c-0.6,0-1.8,0-2.4,0v1.2c0.6,0,1.8,0,2.4,0V515z"/>
	<path d="M365.4,515c0.6,0,1.8,0,2.4,0v-1.2c-0.6,0-1.8,0-2.4,0V515z"/>
	<rect x="327" y="513.8" width="1.2" height="1.2"/>
	<rect x="323.4" y="513.8" width="1.2" height="1.2"/>
	<rect x="310.1" y="513.8" width="1.2" height="1.2"/>
	<rect x="308.9" y="513.8" class="st3" width="1.2" height="1.2"/>
	<rect x="307.7" y="513.8" width="1.2" height="1.2"/>
	<rect x="306.5" y="513.8" class="st3" width="1.2" height="1.2"/>
	<rect x="305.3" y="513.8" width="1.2" height="1.2"/>
	<rect x="304.1" y="513.8" class="st3" width="1.2" height="1.2"/>
	<path d="M288.5,515c0.6,0,1.8,0,2.4,0v-1.2c-0.6,0-1.8,0-2.4,0V515z"/>
	<rect x="282.5" y="513.8" width="1.2" height="1.2"/>
	<path d="M371.4,512.6c-1.2,0-2.4,0-3.6,0v1.2c1.9,0,4.1,0,6,0c0-0.6,0-1.8,0-2.4h-1.2v1.2C372.2,512.6,371.8,512.6,371.4,512.6z"/>
	<rect x="328.2" y="512.6" width="1.2" height="1.2"/>
	<rect x="324.6" y="512.6" width="1.2" height="1.2"/>
	<rect x="307.7" y="512.6" class="st3" width="1.2" height="1.2"/>
	<rect x="306.5" y="512.6" width="1.2" height="1.2"/>
	<rect x="305.3" y="512.6" class="st3" width="1.2" height="1.2"/>
	<rect x="304.1" y="512.6" width="1.2" height="1.2"/>
	<rect x="302.9" y="512.6" class="st3" width="1.2" height="1.2"/>
	<path d="M290.9,513.8c0.6,0,1.8,0,2.4,0v-1.2c-0.6,0-1.8,0-2.4,0V513.8z"/>
	<path d="M286.1,512.6c-0.6,0-1.8,0-2.4,0v1.2c0.6,0,1.8,0,2.4,0V512.6z"/>
	<path d="M329.4,512.6c0.6,0,1.8,0,2.4,0v-1.2c-0.6,0-1.8,0-2.4,0V512.6z"/>
	<rect x="325.8" y="511.4" width="1.2" height="1.2"/>
	<rect x="306.5" y="511.4" class="st3" width="1.2" height="1.2"/>
	<rect x="305.3" y="511.4" width="1.2" height="1.2"/>
	<rect x="304.1" y="511.4" class="st3" width="1.2" height="1.2"/>
	<path d="M293.3,512.6c0.6,0,1.8,0,2.4,0v-1.2c-0.6,0-1.8,0-2.4,0V512.6z"/>
	<rect x="286.1" y="511.4" width="1.2" height="1.2"/>
	<path d="M371.4,511.4c0.5,0,0.9,0,1.2,0v-1.2c-0.6,0-1.8,0-2.4,0v1.2C370.5,511.4,370.9,511.4,371.4,511.4z"/>
	<path d="M361.8,511.4v-1.2c-1.1,0-2.5,0-3.6,0v1.2c0.7,0,1.6,0,2.4,0C361,511.4,361.4,511.4,361.8,511.4z"/>
	<path d="M331.8,511.4c0.6,0,1.8,0,2.4,0v-1.2c-0.6,0-1.8,0-2.4,0V511.4z"/>
	<rect x="327" y="510.2" width="1.2" height="1.2"/>
	<rect x="307.7" y="510.2" class="st3" width="1.2" height="1.2"/>
	<rect x="305.3" y="510.2" class="st3" width="1.2" height="1.2"/>
	<path d="M295.7,511.4c0.6,0,1.8,0,2.4,0v-1.2c-0.6,0-1.8,0-2.4,0V511.4z"/>
	<rect x="287.3" y="510.2" width="1.2" height="1.2"/>
	<path d="M370.2,510.2V509c-2.8,0-5.6,0-8.4,0v1.2c0.8,0,1.6,0,2.4,0C366.2,510.2,368.2,510.2,370.2,510.2z"/>
	<path d="M334.2,510.2c0.6,0,1.8,0,2.4,0V509c-0.6,0-1.8,0-2.4,0V510.2z"/>
	<path d="M330.6,509c-0.6,0-1.8,0-2.4,0v1.2c0.6,0,1.8,0,2.4,0V509z"/>
	<path d="M290.9,509c-0.6,0-1.8,0-2.4,0v1.2c0.6,0,1.8,0,2.4,0V509z"/>
	<path d="M354.6,509v1.2h-1.2v1.2c-0.6,0-1.8,0-2.4,0c0,1.1,0,2.5,0,3.6h1.2v1.2h1.2V515h1.2v-1.2h1.2v-1.2c0.6,0,1.8,0,2.4,0v-1.2
		H357c0-1.6,0-3.2,0-4.8h-1.2c0,0.6,0,1.8,0,2.4H354.6z"/>
	<rect x="353.4" y="507.8" width="1.2" height="1.2"/>
	<path d="M336.6,509c0.6,0,1.8,0,2.4,0v-1.2c-0.6,0-1.8,0-2.4,0V509z"/>
	<path d="M333,507.8c-0.6,0-1.8,0-2.4,0v1.2c0.6,0,1.8,0,2.4,0V507.8z"/>
	<path d="M293.3,507.8c-0.6,0-1.8,0-2.4,0v1.2c0.6,0,1.8,0,2.4,0V507.8z"/>
	<rect x="352.2" y="506.6" width="1.2" height="1.2"/>
	<path d="M339,506.6v1.2c1.6,0,3.2,0,4.8,0v-1.2c-0.6,0-1.8,0-2.4,0C340.8,506.6,339.6,506.6,339,506.6z"/>
	<path d="M335.4,506.6c-0.6,0-1.8,0-2.4,0v1.2c0.6,0,1.8,0,2.4,0V506.6z"/>
	<path d="M295.7,506.6c-0.6,0-1.8,0-2.4,0v1.2c0.6,0,1.8,0,2.4,0V506.6z"/>
	<path class="st3" d="M354.6,505.4h-1.2v-1.2c-3.6,0-7.2,0-10.8,0v1.2c-0.8,0-1.6,0-2.4,0c-0.8,0-1.6,0-2.4,0v1.2
		c-0.6,0-1.8,0-2.4,0v1.2c-0.6,0-1.8,0-2.4,0v1.2c-0.6,0-1.8,0-2.4,0v1.2c-0.6,0-1.8,0-2.4,0v1.2H327v1.2h-1.2v1.2h-1.2v1.2h-1.2
		v1.2h-1.2v1.2H321v1.2v1.2h1.2v-1.2h1.2v-1.2h1.2v-1.2h1.2V515h1.2v-1.2h1.2v-1.2h1.2v-1.2c0.6,0,1.8,0,2.4,0v-1.2
		c0.6,0,1.8,0,2.4,0V509c0.6,0,1.8,0,2.4,0v-1.2c0.6,0,1.8,0,2.4,0v-1.2c0.6,0,1.8,0,2.4,0c0.6,0,1.8,0,2.4,0v-1.2
		c2.4,0,4.8,0,7.2,0c0.4,0,0.8,0,1.2,0v1.2h1.2v1.2h1.2v1.2h1.2c0-0.6,0-1.8,0-2.4h-1.2V505.4z"/>
	<path d="M351,505.4c-2.4,0-4.8,0-7.2,0v1.2c2.8,0,5.6,0,8.4,0v-1.2C351.8,505.4,351.4,505.4,351,505.4z"/>
	<path d="M337.8,505.4c-0.6,0-1.8,0-2.4,0v1.2c0.6,0,1.8,0,2.4,0V505.4z"/>
	<path d="M298.1,505.4c-0.6,0-1.8,0-2.4,0v1.2c0.6,0,1.8,0,2.4,0V505.4z"/>
	<path d="M342.6,505.4v-1.2c-1.6,0-3.2,0-4.8,0v1.2c0.8,0,1.6,0,2.4,0C341,505.4,341.8,505.4,342.6,505.4z"/>
	<rect x="311.3" y="504.2" class="st3" width="1.2" height="1.2"/>
	<rect x="308.9" y="504.2" class="st3" width="1.2" height="1.2"/>
	<path d="M352.2,503c-3.1,0-6.5,0-9.6,0v1.2c3.6,0,7.2,0,10.8,0v1.2h1.2v1.2h1.2c0-0.6,0-1.8,0-2.4h-1.2c0-0.6,0-1.8,0-2.4h-1.2v1.2
		H352.2z"/>
	<rect x="312.5" y="503" class="st3" width="1.2" height="1.2"/>
	<rect x="310.1" y="503" class="st3" width="1.2" height="1.2"/>
	<rect x="352.2" y="500.6" width="1.2" height="1.2"/>
	<path d="M254.9,494.5c-1.1,0-2.5,0-3.6,0v1.2h-1.2v1.2h1.2v1.2c0.6,0,1.8,0,2.4,0c0,0.6,0,1.8,0,2.4h-1.2v-1.2c-0.6,0-1.8,0-2.4,0
		v1.2h1.2v1.2c1.1,0,2.5,0,3.6,0v-1.2h1.2c0-0.6,0-1.8,0-2.4h-1.2v-1.2h1.2v-1.2h-1.2V494.5z M253.7,496.9h-1.2v-1.2h1.2V496.9z"/>
	<path d="M230.9,498.2c0,1.2,0,2.4,0,3.6c0.6,0,1.8,0,2.4,0c0-1.6,0-3.2,0-4.8c0.6,0,1.8,0,2.4,0v-1.2c-0.6,0-1.8,0-2.4,0
		c0-0.6,0-1.8,0-2.4c1.1,0,2.5,0,3.6,0v-1.2c-1.9,0-4.1,0-6,0C230.9,494.1,230.9,496.1,230.9,498.2z"/>
	<path d="M227.3,501.8v-1.2h1.2v-1.2h1.2c0-1.6,0-3.2,0-4.8h-1.2v-1.2h-1.2v-1.2c-1.6,0-3.2,0-4.8,0c0,3.1,0,6.5,0,9.6
		c0.6,0,1.8,0,2.4,0C225.5,501.8,226.7,501.8,227.3,501.8z M224.9,495.7c0-0.8,0-1.6,0-2.4h1.2v1.2h1.2c0,1.6,0,3.2,0,4.8h-1.2v1.2
		h-1.2C224.9,499,224.9,497.4,224.9,495.7z"/>
	<rect x="351" y="499.4" width="1.2" height="1.2"/>
	<path d="M294.5,494.5c-0.6,0-1.8,0-2.4,0v1.2h-1.2c0,1.6,0,3.2,0,4.8h1.2v1.2c1.2,0,2.4,0,3.6,0c0.4,0,0.8,0,1.2,0
		c0-0.6,0-1.8,0-2.4c0-2.3,0-4.9,0-7.2c-0.6,0-1.8,0-2.4,0C294.5,492.7,294.5,493.9,294.5,494.5z M294.5,498.2c0,0.8,0,1.6,0,2.4
		h-1.2c0-1.6,0-3.2,0-4.8h1.2C294.5,496.5,294.5,497.3,294.5,498.2z"/>
	<path d="M269.3,499.4c0-1.1,0-2.5,0-3.6h-1.2v-1.2c-1.1,0-2.5,0-3.6,0v1.2c0.6,0,1.8,0,2.4,0v1.2c-0.6,0-1.8,0-2.4,0v1.2h-1.2
		c0,0.6,0,1.8,0,2.4h1.2v1.2c0.6,0,1.8,0,2.4,0v-1.2h-1.2c0-0.6,0-1.8,0-2.4h1.2c0,0.6,0,1.8,0,2.4h1.2v1.2c0.6,0,1.8,0,2.4,0v-1.2
		h-1.2V499.4z"/>
	<rect x="349.8" y="498.2" width="1.2" height="1.2"/>
	<path class="st3" d="M318.6,499.4c0,1.1,0,2.5,0,3.6h-1.2v1.2c-1.1,0-2.5,0-3.6,0c0,0.6,0,1.8,0,2.4h1.2c0,1.6,0,3.2,0,4.8h-1.2
		v1.2c-1.1,0-2.5,0-3.6,0v1.2h1.2v1.2h-1.2v1.2h-1.2v1.2h1.2v1.2h-1.2v1.2h1.2v1.2h-1.2v1.2h1.2v1.2h-1.2v1.2h1.2v1.2h1.2
		c0,1.9,0,4.1,0,6h-1.2v1.2h1.2v1.2h1.2v1.2h-1.2v1.2h1.2v1.2h1.2v1.2h1.2v1.2h1.2v1.2h1.2v1.2h1.2c0-1.1,0-2.5,0-3.6h1.2
		c0-1.6,0-3.2,0-4.8h-1.2c0-0.6,0-1.8,0-2.4h-1.2c0-3.1,0-6.5,0-9.6h1.2c0-0.6,0-1.8,0-2.4h1.2c0-0.6,0-1.8,0-2.4h1.2v-1.2h1.2V515
		h1.2v-1.2h1.2v-1.2h1.2v-1.2h1.2v-1.2h1.2V509c0.6,0,1.8,0,2.4,0v-1.2c0.6,0,1.8,0,2.4,0v-1.2c0.6,0,1.8,0,2.4,0v-1.2
		c0.6,0,1.8,0,2.4,0v-1.2c1.6,0,3.2,0,4.8,0V503c3.1,0,6.5,0,9.6,0h1.2v-1.2h-1.2v-1.2H351v-1.2h-1.2v-1.2c-0.3,0-0.8,0-1.2,0
		c-0.5,0-0.9,0-1.2,0v-1.2c-0.3,0-0.8,0-1.2,0c-0.5,0-0.9,0-1.2,0v-1.2c-0.7,0-1.6,0-2.4,0c-0.4,0-0.8,0-1.2,0v-1.2
		c-3.5,0-7.2,0-10.8,0c-0.8,0-1.6,0-2.4,0v1.2c-0.8,0-1.6,0-2.4,0c-0.8,0-1.6,0-2.4,0v1.2c-0.4,0-0.8,0-1.2,0c-0.8,0-1.7,0-2.4,0
		v1.2c-0.6,0-1.8,0-2.4,0v1.2H318.6z"/>
	<path class="st3" d="M293.3,500.6h1.2c0-0.8,0-1.6,0-2.4c0-0.8,0-1.6,0-2.4h-1.2C293.3,497.3,293.3,499,293.3,500.6z"/>
	<path class="st3" d="M265.7,498.2c0,0.6,0,1.8,0,2.4h1.2c0-0.6,0-1.8,0-2.4H265.7z"/>
	<path d="M348.6,498.2c0.5,0,0.9,0,1.2,0v-1.2c-0.6,0-1.8,0-2.4,0v1.2C347.7,498.2,348.1,498.2,348.6,498.2z"/>
	<path d="M319.8,496.9c-0.6,0-1.8,0-2.4,0v1.2c0.6,0,1.8,0,2.4,0V496.9z"/>
	<path d="M346.2,496.9c0.5,0,0.9,0,1.2,0v-1.2c-0.6,0-1.8,0-2.4,0v1.2C345.3,496.9,345.7,496.9,346.2,496.9z"/>
	<path d="M323.4,496.9v-1.2c-1.1,0-2.5,0-3.6,0v1.2c0.7,0,1.6,0,2.4,0C322.6,496.9,323,496.9,323.4,496.9z"/>
	<rect x="286.1" y="495.7" class="st3" width="1.2" height="1.2"/>
	<path class="st3" d="M266.9,495.7c-0.6,0-1.8,0-2.4,0v1.2c0.6,0,1.8,0,2.4,0V495.7z"/>
	<rect x="263.3" y="495.7" width="1.2" height="1.2"/>
	<rect x="252.5" y="495.7" class="st3" width="1.2" height="1.2"/>
	<path d="M242.9,500.6c-0.6,0-1.8,0-2.4,0c0-2.8,0-5.6,0-8.4c-0.6,0-1.8,0-2.4,0c0,0.4,0,0.8,0,1.2c0,1.2,0,2.4,0,3.6
		c0,1.1,0,2.5,0,3.6h1.2v1.2c1.6,0,3.2,0,4.8,0v-1.2h1.2c0-2.8,0-5.6,0-8.4c-0.6,0-1.8,0-2.4,0C242.9,494.9,242.9,497.8,242.9,500.6
		z"/>
	<path d="M342.6,495.7c0.8,0,1.7,0,2.4,0v-1.2c-1.1,0-2.5,0-3.6,0v1.2C341.7,495.7,342.2,495.7,342.6,495.7z"/>
	<path d="M328.2,495.7v-1.2c-1.6,0-3.2,0-4.8,0v1.2c0.8,0,1.6,0,2.4,0C326.6,495.7,327.4,495.7,328.2,495.7z"/>
	<path d="M288.5,494.5c-1.1,0-2.5,0-3.6,0v1.2h-1.2c0,1.6,0,3.2,0,4.8h1.2v1.2c1.1,0,2.5,0,3.6,0v-1.2h1.2v-1.2c-0.6,0-1.8,0-2.4,0
		v1.2h-1.2c0-0.6,0-1.8,0-2.4c1.1,0,2.5,0,3.6,0c0-0.3,0-0.8,0-1.2s0-0.9,0-1.2h-1.2V494.5z M287.3,496.9h-1.2v-1.2h1.2V496.9z"/>
	<path d="M274.1,495.7h-1.2v-1.2h-1.2c0,2.3,0,4.9,0,7.2c0.6,0,1.8,0,2.4,0c0-1.6,0-3.2,0-4.8h1.2v-1.2h1.2v-1.2c-0.6,0-1.8,0-2.4,0
		V495.7z"/>
	<path class="st3" d="M226.1,499.4h1.2c0-1.6,0-3.2,0-4.8h-1.2v-1.2h-1.2c0,0.8,0,1.6,0,2.4c0,1.6,0,3.3,0,4.8h1.2V499.4z"/>
	<path d="M341.4,494.5v-1.2c-4.3,0-8.9,0-13.2,0v1.2c0.8,0,1.6,0,2.4,0C334.2,494.5,337.8,494.5,341.4,494.5z"/>
	<path d="M281.3,493.3v-1.2c-0.6,0-1.8,0-2.4,0c0,0.6,0,1.8,0,2.4h-1.2v1.2h1.2c0,1.6,0,3.2,0,4.8h1.2v1.2c0.6,0,1.8,0,2.4,0v-1.2
		h-1.2c0-1.6,0-3.2,0-4.8h1.2v-1.2h-1.2V493.3z"/>
	<path d="M260.9,493.3c0-0.5,0-0.9,0-1.2c-0.6,0-1.8,0-2.4,0c0,0.6,0,1.8,0,2.4h-1.2v1.2h1.2c0,1.6,0,3.2,0,4.8h1.2v1.2
		c0.6,0,1.8,0,2.4,0v-1.2h-1.2c0-1.6,0-3.2,0-4.8h1.2v-1.2h-1.2C260.9,494.2,260.9,493.8,260.9,493.3z"/>
	<path d="M235.7,478.9c-0.6,0-1.8,0-2.4,0v1.2h1.2c0,1.6,0,3.2,0,4.8h-1.2c0-0.8,0-1.6,0-2.4c0-0.8,0-1.6,0-2.4h-1.2v-1.2h-1.2
		c0,1.6,0,3.2,0,4.8c0,1.2,0,2.4,0,3.6v1.2c0.6,0,1.8,0,2.4,0c0-0.6,0-1.8,0-2.4c0.6,0,1.8,0,2.4,0v-1.2h1.2c0-1.6,0-3.2,0-4.8h-1.2
		V478.9z"/>
	<path d="M360.6,478.9c-1.1,0-2.5,0-3.6,0v1.2h-1.2c0,1.2,0,2.4,0,3.6c0,0.4,0,0.8,0,1.2h1.2v1.2c1.1,0,2.5,0,3.6,0v-1.2h1.2
		c0-1.6,0-3.2,0-4.8h-1.2V478.9z M359.4,483.7c0,0.4,0,0.8,0,1.2h-1.2v-1.2c0-1.1,0-2.5,0-3.6h1.2
		C359.4,481.3,359.4,482.5,359.4,483.7z"/>
	<path d="M300.5,480.1h-1.2c0,1.2,0,2.4,0,3.6c0,0.4,0,0.8,0,1.2h1.2v1.2c1.1,0,2.5,0,3.6,0c0-0.6,0-1.8,0-2.4h-1.2v1.2h-1.2
		c0-1.6,0-3.2,0-4.8h1.2v1.2h1.2c0-0.6,0-1.8,0-2.4c-1.1,0-2.5,0-3.6,0V480.1z"/>
	<path d="M296.9,478.9c-1.1,0-2.5,0-3.6,0v1.2h-1.2c0,1.2,0,2.4,0,3.6c0,0.4,0,0.8,0,1.2h1.2v1.2c1.1,0,2.5,0,3.6,0v-1.2h1.2v-1.2
		c-0.6,0-1.8,0-2.4,0v1.2h-1.2c0-0.6,0-1.8,0-2.4c1.1,0,2.5,0,3.6,0c0-0.6,0-1.8,0-2.4h-1.2V478.9z M295.7,481.3h-1.2v-1.2h1.2
		V481.3z"/>
	<path d="M260.9,486.1c1.1,0,2.5,0,3.6,0v-1.2h1.2v-1.2c-0.6,0-1.8,0-2.4,0v1.2h-1.2c0-0.6,0-1.8,0-2.4c1.1,0,2.5,0,3.6,0
		c0-0.6,0-1.8,0-2.4h-1.2v-1.2c-1.1,0-2.5,0-3.6,0v1.2h-1.2c0,1.2,0,2.4,0,3.6c0,0.4,0,0.8,0,1.2h1.2V486.1z M262.1,480.1h1.2v1.2
		h-1.2V480.1z"/>
	<path d="M250.1,486.1c0.6,0,1.8,0,2.4,0v-1.2h-1.2c0-1.6,0-3.2,0-4.8h-1.2v-1.2c-1.1,0-2.5,0-3.6,0v1.2c0.6,0,1.8,0,2.4,0v1.2
		c-0.6,0-1.8,0-2.4,0v1.2h-1.2c0,0.3,0,0.8,0,1.2s0,0.9,0,1.2h1.2v1.2c0.6,0,1.8,0,2.4,0v-1.2h-1.2c0-0.6,0-1.8,0-2.4h1.2
		c0,0.6,0,1.8,0,2.4h1.2V486.1z"/>
	<path d="M223.7,486.1c1.6,0,3.2,0,4.8,0v-1.2h1.2c0-2.8,0-5.6,0-8.4c-0.6,0-1.8,0-2.4,0c0,2.8,0,5.6,0,8.4c-0.6,0-1.8,0-2.4,0
		c0-2,0-4,0-6c0-0.8,0-1.6,0-2.4c-0.6,0-1.8,0-2.4,0c0,2.8,0,5.6,0,8.4h1.2V486.1z"/>
	<path class="st3" d="M358.2,483.7v1.2h1.2c0-0.4,0-0.8,0-1.2c0-1.2,0-2.4,0-3.6h-1.2C358.2,481.2,358.2,482.7,358.2,483.7z"/>
	<path class="st3" d="M372.6,482.5c0,0.6,0,1.8,0,2.4h1.2v-1.2c0.6,0,1.8,0,2.4,0v-1.2c-0.6,0-1.8,0-2.4,0H372.6z"/>
	<path class="st3" d="M365.4,484.9h1.2c0-0.6,0-1.8,0-2.4s0-1.8,0-2.4h-1.2C365.4,481.7,365.4,483.4,365.4,484.9z"/>
	<path class="st3" d="M247.7,482.5c0,0.6,0,1.8,0,2.4h1.2c0-0.6,0-1.8,0-2.4H247.7z"/>
	<path class="st3" d="M240.5,484.9h1.2c0-0.6,0-1.8,0-2.4s0-1.8,0-2.4h-1.2C240.5,481.7,240.5,483.4,240.5,484.9z"/>
	<path class="st3" d="M274.1,483.7h1.2v-1.2h-1.2v-1.2h-1.2c0,1.1,0,2.5,0,3.6h1.2V483.7z"/>
	<path class="st3" d="M233.3,484.9h1.2c0-1.6,0-3.2,0-4.8h-1.2c0,0.8,0,1.6,0,2.4C233.3,483.3,233.3,484.2,233.3,484.9z"/>
	<rect x="372.6" y="480.1" class="st3" width="1.2" height="1.2"/>
	<rect x="322.2" y="480.1" class="st3" width="1.2" height="1.2"/>
	<path class="st3" d="M307.7,481.3c0,1.1,0,2.5,0,3.6h1.2c0-1.2,0-2.4,0-3.6c0-0.4,0-0.8,0-1.2h-1.2V481.3z"/>
	<rect x="294.5" y="480.1" class="st3" width="1.2" height="1.2"/>
	<rect x="262.1" y="480.1" class="st3" width="1.2" height="1.2"/>
	<path class="st3" d="M248.9,480.1c-0.6,0-1.8,0-2.4,0v1.2c0.6,0,1.8,0,2.4,0V480.1z"/>
	<rect x="245.3" y="480.1" width="1.2" height="1.2"/>
	<path d="M375,478.9c-1.1,0-2.5,0-3.6,0v1.2h-1.2c0,1.6,0,3.2,0,4.8h1.2v1.2c1.1,0,2.5,0,3.6,0v-1.2h1.2v-1.2c-0.6,0-1.8,0-2.4,0
		v1.2h-1.2c0-0.6,0-1.8,0-2.4h1.2c0.6,0,1.8,0,2.4,0c0-0.6,0-1.8,0-2.4H375V478.9z M373.8,481.3h-1.2v-1.2h1.2V481.3z"/>
	<path d="M336.6,483.7h-1.2c0-1.2,0-2.4,0-3.6c0-0.4,0-0.8,0-1.2c-0.6,0-1.8,0-2.4,0c0,1.6,0,3.2,0,4.8h1.2v1.2h1.2
		c0,0.6,0,1.8,0,2.4h-1.2v1.2c0.6,0,1.8,0,2.4,0v-1.2h1.2c0-0.6,0-1.8,0-2.4h1.2c0-1.9,0-4.1,0-6c-0.6,0-1.8,0-2.4,0
		C336.6,480.5,336.6,482.2,336.6,483.7z"/>
	<path d="M329.4,480.1h-1.2v-1.2H327c0,2.3,0,4.9,0,7.2c0.6,0,1.8,0,2.4,0c0-1.6,0-3.2,0-4.8h1.2v-1.2h1.2v-1.2c-0.6,0-1.8,0-2.4,0
		V480.1z"/>
	<path d="M324.6,478.9h-1.2c-0.6,0-1.8,0-2.4,0v1.2h-1.2c0,1.6,0,3.2,0,4.8h1.2v1.2c1.1,0,2.5,0,3.6,0v-1.2h1.2v-1.2
		c-0.6,0-1.8,0-2.4,0v1.2h-1.2c0-0.6,0-1.8,0-2.4c1.1,0,2.5,0,3.6,0c0-0.6,0-1.8,0-2.4h-1.2V478.9z M323.4,481.3h-1.2v-1.2h1.2
		V481.3z"/>
	<path d="M316.2,483.7H315c0-1.2,0-2.4,0-3.6c0-0.4,0-0.8,0-1.2c-0.6,0-1.8,0-2.4,0c0,1.1,0,2.5,0,3.6h1.2c0,0.6,0,1.8,0,2.4h1.2
		v1.2h1.2v-1.2h1.2c0-0.6,0-1.8,0-2.4h1.2c0-1.1,0-2.5,0-3.6c-0.6,0-1.8,0-2.4,0C316.2,480.5,316.2,482.2,316.2,483.7z"/>
	<path d="M310.1,478.9h-1.2c-0.6,0-1.8,0-2.4,0v1.2h-1.2c0,1.6,0,3.2,0,4.8h1.2v1.2c1.1,0,2.5,0,3.6,0v-1.2h1.2c0-1.6,0-3.2,0-4.8
		h-1.2V478.9z M308.9,481.3c0,1.2,0,2.4,0,3.6h-1.2c0-1.1,0-2.5,0-3.6v-1.2h1.2C308.9,480.5,308.9,480.9,308.9,481.3z"/>
	<path class="st3" d="M274.1,477.7h-1.2c0,0.6,0,1.8,0,2.4h1.2C274.1,479.5,274.1,478.3,274.1,477.7z"/>
	<path d="M364.2,478.9v1.2H363c0,1.6,0,3.2,0,4.8h1.2v1.2c1.6,0,3.2,0,4.8,0c0-3.1,0-6.5,0-9.6c-0.6,0-1.8,0-2.4,0
		c0,0.6,0,1.8,0,2.4C366,478.9,364.8,478.9,364.2,478.9z M366.6,482.5c0,0.6,0,1.8,0,2.4h-1.2c0-1.6,0-3.2,0-4.8h1.2
		C366.6,480.7,366.6,481.9,366.6,482.5z"/>
	<path d="M343.8,486.1c0.6,0,1.8,0,2.4,0c0-1.6,0-3.2,0-4.8h1.2c0,0.6,0,1.8,0,2.4h1.2c0,0.6,0,1.8,0,2.4h1.2c0-0.6,0-1.8,0-2.4h1.2
		c0-0.6,0-1.8,0-2.4h1.2c0,1.6,0,3.2,0,4.8c0.6,0,1.8,0,2.4,0c0-3.1,0-6.5,0-9.6c-0.6,0-1.8,0-2.4,0v1.2H351c0,0.6,0,1.8,0,2.4h-1.2
		c0,0.6,0,1.8,0,2.4h-1.2c0-0.6,0-1.8,0-2.4h-1.2c0-0.6,0-1.8,0-2.4h-1.2v-1.2c-0.6,0-1.8,0-2.4,0c0,0.6,0,1.8,0,2.4
		C343.8,481.2,343.8,483.9,343.8,486.1z"/>
	<path class="st3" d="M286.1,481.3c0.6,0,1.8,0,2.4,0c0-1.1,0-2.5,0-3.6c-0.6,0-1.8,0-2.4,0C286.1,478.8,286.1,480.3,286.1,481.3z"
		/>
	<path d="M283.7,486.1c0.6,0,1.8,0,2.4,0c0-1.1,0-2.5,0-3.6c0.6,0,1.8,0,2.4,0c0,1.1,0,2.5,0,3.6c0.6,0,1.8,0,2.4,0
		c0-1.1,0-2.5,0-3.6h-1.2v-1.2h1.2c0-1.1,0-2.5,0-3.6c-0.6,0-1.8,0-2.4,0c0,1.1,0,2.5,0,3.6c-0.6,0-1.8,0-2.4,0c0-1.1,0-2.5,0-3.6
		c0.6,0,1.8,0,2.4,0v-1.2c-1.6,0-3.2,0-4.8,0c0,0.6,0,1.8,0,2.4C283.7,481.2,283.7,483.9,283.7,486.1z"/>
	<path d="M270.5,477.7c0,0.6,0,1.8,0,2.4h1.2v1.2h-1.2c0,1.1,0,2.5,0,3.6h1.2v1.2c1.1,0,2.5,0,3.6,0v-1.2h1.2v1.2c0.6,0,1.8,0,2.4,0
		v-1.2h-1.2c0-0.6,0-1.8,0-2.4h1.2v-1.2c-1.1,0-2.5,0-3.6,0v-1.2h1.2c0-0.6,0-1.8,0-2.4h-1.2v-1.2c-1.1,0-2.5,0-3.6,0v1.2H270.5z
		 M272.9,477.7h1.2c0,0.6,0,1.8,0,2.4h-1.2C272.9,479.5,272.9,478.3,272.9,477.7z M272.9,481.3h1.2v1.2h1.2v1.2h-1.2v1.2h-1.2
		C272.9,483.9,272.9,482.4,272.9,481.3z"/>
	<path d="M253.7,478.9v1.2h1.2c0,1.6,0,3.2,0,4.8h1.2v1.2c0.6,0,1.8,0,2.4,0v-1.2h-1.2c0-1.6,0-3.2,0-4.8h1.2v-1.2h-1.2
		c0-0.6,0-1.8,0-2.4c-0.6,0-1.8,0-2.4,0c0,0.6,0,1.8,0,2.4H253.7z"/>
	<path d="M239.3,478.9v1.2h-1.2c0,1.6,0,3.2,0,4.8h1.2v1.2c1.6,0,3.2,0,4.8,0c0-3.1,0-6.5,0-9.6c-0.6,0-1.8,0-2.4,0
		c0,0.6,0,1.8,0,2.4C241.1,478.9,239.9,478.9,239.3,478.9z M241.7,482.5c0,0.6,0,1.8,0,2.4h-1.2c0-1.6,0-3.2,0-4.8h1.2
		C241.7,480.7,241.7,481.9,241.7,482.5z"/>
	<path class="st3" d="M224.9,484.9c0.6,0,1.8,0,2.4,0c0-2.8,0-5.6,0-8.4c-0.6,0-1.8,0-2.4,0c0,0.8,0,1.6,0,2.4
		C224.9,480.9,224.9,483,224.9,484.9z"/>
	<path class="st3" d="M369,476.5c0,3.1,0,6.5,0,9.6c-1.6,0-3.2,0-4.8,0v-1.2H363c0-1.6,0-3.2,0-4.8h1.2v-1.2c0.6,0,1.8,0,2.4,0
		c0-0.6,0-1.8,0-2.4c-4,0-8,0-12,0c0,3.1,0,6.5,0,9.6c-0.6,0-1.8,0-2.4,0c0-1.6,0-3.2,0-4.8H351c0,0.6,0,1.8,0,2.4h-1.2
		c0,0.6,0,1.8,0,2.4h-1.2c0-0.6,0-1.8,0-2.4h-1.2c0-0.6,0-1.8,0-2.4h-1.2c0,1.6,0,3.2,0,4.8c-0.6,0-1.8,0-2.4,0c0-2.3,0-4.9,0-7.2
		c0-0.6,0-1.8,0-2.4c-18.4,0-36.9,0-55.2,0v1.2c0.6,0,1.8,0,2.4,0c0,1.1,0,2.5,0,3.6h-1.2v1.2h1.2c0,1.1,0,2.5,0,3.6
		c-0.6,0-1.8,0-2.4,0c0-1.1,0-2.5,0-3.6c-0.6,0-1.8,0-2.4,0c0,1.1,0,2.5,0,3.6c-0.6,0-1.8,0-2.4,0c0-2.3,0-4.9,0-7.2
		c0-0.6,0-1.8,0-2.4c-2.8,0-5.6,0-8.4,0v1.2h1.2c0,0.6,0,1.8,0,2.4h-1.2v1.2c1.1,0,2.5,0,3.6,0v1.2h-1.2c0,0.6,0,1.8,0,2.4h1.2v1.2
		c-0.6,0-1.8,0-2.4,0v-1.2h-1.2v1.2c-1.1,0-2.5,0-3.6,0v-1.2h-1.2c0-1.1,0-2.5,0-3.6h1.2v-1.2h-1.2c0-0.6,0-1.8,0-2.4h1.2v-1.2
		c-4.8,0-9.6,0-14.4,0c0,0.6,0,1.8,0,2.4h1.2v1.2h-1.2c0,1.6,0,3.2,0,4.8h1.2v1.2c-0.6,0-1.8,0-2.4,0v-1.2h-1.2c0-1.6,0-3.2,0-4.8
		h-1.2v-1.2h1.2c0-0.6,0-1.8,0-2.4c-3.6,0-7.2,0-10.8,0c0,3.1,0,6.5,0,9.6c-1.6,0-3.2,0-4.8,0v-1.2h-1.2c0-1.6,0-3.2,0-4.8h1.2v-1.2
		c0.6,0,1.8,0,2.4,0c0-0.6,0-1.8,0-2.4c-4,0-8,0-12,0c0,2.8,0,5.6,0,8.4h-1.2v1.2c-1.6,0-3.2,0-4.8,0v-1.2h-1.2c0,2.3,0,4.9,0,7.2
		c1.6,0,3.2,0,4.8,0v1.2h1.2v1.2h1.2c0,1.6,0,3.2,0,4.8h-1.2v1.2h-1.2v1.2c-0.6,0-1.8,0-2.4,0c-0.6,0-1.8,0-2.4,0
		c0,5.2,0,10.4,0,15.6c2.3,0,4.9,0,7.2,0v1.2c2.3,0,4.9,0,7.2,0v1.2c3.6,0,7.2,0,10.8,0v1.2c4,0,8,0,12,0v-1.2c2.8,0,5.6,0,8.4,0
		v-1.2c1.9,0,4.1,0,6,0v-1.2c1.1,0,2.5,0,3.6,0v-1.2c0.6,0,1.8,0,2.4,0V515c0.6,0,1.8,0,2.4,0v-1.2h1.2v-1.2c0.6,0,1.8,0,2.4,0v-1.2
		h1.2v-1.2h1.2V509c0.6,0,1.8,0,2.4,0v-1.2c0.6,0,1.8,0,2.4,0v-1.2c0.6,0,1.8,0,2.4,0v-1.2c0.6,0,1.8,0,2.4,0v-1.2
		c2.3,0,4.9,0,7.2,0c0-1.1,0-2.5,0-3.6h1.2v-1.2h1.2v-1.2h1.2v-1.2c1.6,0,3.2,0,4.8,0v1.2c1.1,0,2.5,0,3.6,0v-1.2c0.6,0,1.8,0,2.4,0
		v-1.2c1.1,0,2.5,0,3.6,0v-1.2c1.6,0,3.2,0,4.8,0v-1.2c4.3,0,8.9,0,13.2,0v1.2c1.1,0,2.5,0,3.6,0v1.2c0.6,0,1.8,0,2.4,0v1.2
		c0.6,0,1.8,0,2.4,0v1.2h1.2v1.2h1.2v1.2h1.2v1.2h1.2c0,0.6,0,1.8,0,2.4h1.2c0,0.6,0,1.8,0,2.4h1.2c0,1.6,0,3.2,0,4.8h1.2v-1.2
		c1.1,0,2.5,0,3.6,0V509c2.8,0,5.6,0,8.4,0v1.2c0.6,0,1.8,0,2.4,0v1.2h1.2c0,0.6,0,1.8,0,2.4h1.2c0,3.6,0,7.2,0,10.8h-1.2
		c0,1.1,0,2.5,0,3.6h-1.2c0,1.6,0,3.2,0,4.8h-1.2c0,1.1,0,2.5,0,3.6h-1.2c0,1.1,0,2.5,0,3.6h1.2v1.2h1.2v1.2h1.2v1.2h1.2v1.2h1.2
		c0-20.1,0-40,0-60.1H375v1.2c-1.1,0-2.5,0-3.6,0v-1.2h-1.2c0-1.6,0-3.2,0-4.8h1.2v-1.2c1.1,0,2.5,0,3.6,0v1.2h1.2
		c0-1.1,0-2.5,0-3.6H375C373.1,476.5,370.9,476.5,369,476.5z M236.9,493.3c-1.1,0-2.5,0-3.6,0c0,0.6,0,1.8,0,2.4c0.6,0,1.8,0,2.4,0
		v1.2c-0.6,0-1.8,0-2.4,0c0,1.6,0,3.2,0,4.8c-0.6,0-1.8,0-2.4,0c0-1.2,0-2.4,0-3.6c0-2,0-4.1,0-6c1.9,0,4.1,0,6,0V493.3z
		 M236.9,484.9h-1.2v1.2c-0.6,0-1.8,0-2.4,0c0,0.6,0,1.8,0,2.4c-0.6,0-1.8,0-2.4,0v-1.2c0-1.2,0-2.4,0-3.6c0-1.6,0-3.2,0-4.8h1.2
		v1.2h1.2v-1.2c0.6,0,1.8,0,2.4,0v1.2h1.2C236.9,481.7,236.9,483.4,236.9,484.9z M245.3,500.6h-1.2v1.2c-1.6,0-3.2,0-4.8,0v-1.2
		h-1.2c0-1.1,0-2.5,0-3.6c0-1.2,0-2.4,0-3.6c0-0.4,0-0.8,0-1.2c0.6,0,1.8,0,2.4,0c0,2.8,0,5.6,0,8.4c0.6,0,1.8,0,2.4,0
		c0-2.8,0-5.6,0-8.4c0.6,0,1.8,0,2.4,0C245.3,494.9,245.3,497.8,245.3,500.6z M248.9,486.1c-0.6,0-1.8,0-2.4,0v-1.2h-1.2
		c0-0.3,0-0.8,0-1.2s0-0.9,0-1.2h1.2v-1.2h-1.2v-1.2h1.2v-1.2c1.1,0,2.5,0,3.6,0v1.2h1.2c0,1.6,0,3.2,0,4.8h1.2v1.2
		c-0.6,0-1.8,0-2.4,0v-1.2h-1.2V486.1z M256.1,496.9h-1.2v1.2h1.2c0,0.6,0,1.8,0,2.4h-1.2v1.2c-1.1,0-2.5,0-3.6,0v-1.2h-1.2v-1.2
		c0.6,0,1.8,0,2.4,0v1.2h1.2c0-0.6,0-1.8,0-2.4c-0.6,0-1.8,0-2.4,0v-1.2h-1.2v-1.2h1.2v-1.2c1.1,0,2.5,0,3.6,0v1.2h1.2V496.9z
		 M259.7,483.7c0-1.2,0-2.4,0-3.6h1.2v-1.2c1.1,0,2.5,0,3.6,0v1.2h1.2c0,0.6,0,1.8,0,2.4c-1.1,0-2.5,0-3.6,0c0,0.6,0,1.8,0,2.4h1.2
		v-1.2c0.6,0,1.8,0,2.4,0v1.2h-1.2v1.2c-1.1,0-2.5,0-3.6,0v-1.2h-1.2C259.7,484.5,259.7,484.1,259.7,483.7z M262.1,495.7h-1.2
		c0,1.6,0,3.2,0,4.8h1.2v1.2c-0.6,0-1.8,0-2.4,0v-1.2h-1.2c0-1.6,0-3.2,0-4.8h-1.2v-1.2h1.2c0-0.6,0-1.8,0-2.4c0.6,0,1.8,0,2.4,0
		c0,0.3,0,0.8,0,1.2s0,0.9,0,1.2h1.2V495.7z M270.5,501.8c-0.6,0-1.8,0-2.4,0v-1.2h-1.2v1.2c-0.6,0-1.8,0-2.4,0v-1.2h-1.2
		c0-0.6,0-1.8,0-2.4h1.2v-1.2h-1.2v-1.2h1.2v-1.2c1.1,0,2.5,0,3.6,0v1.2h1.2c0,1.1,0,2.5,0,3.6v1.2h1.2V501.8z M276.5,495.7h-1.2
		v1.2h-1.2c0,1.6,0,3.2,0,4.8c-0.6,0-1.8,0-2.4,0c0-2.3,0-4.9,0-7.2h1.2v1.2h1.2v-1.2c0.6,0,1.8,0,2.4,0V495.7z M282.5,495.7h-1.2
		c0,1.6,0,3.2,0,4.8h1.2v1.2c-0.6,0-1.8,0-2.4,0v-1.2h-1.2c0-1.6,0-3.2,0-4.8h-1.2v-1.2h1.2c0-0.6,0-1.8,0-2.4c0.6,0,1.8,0,2.4,0
		v1.2v1.2h1.2V495.7z M289.7,496.9c0,0.5,0,0.9,0,1.2c-1.1,0-2.5,0-3.6,0c0,0.6,0,1.8,0,2.4h1.2v-1.2c0.6,0,1.8,0,2.4,0v1.2h-1.2
		v1.2c-1.1,0-2.5,0-3.6,0v-1.2h-1.2c0-1.6,0-3.2,0-4.8h1.2v-1.2c1.1,0,2.5,0,3.6,0v1.2h1.2C289.7,496,289.7,496.5,289.7,496.9z
		 M296.9,499.4c0,0.6,0,1.8,0,2.4c-0.4,0-0.8,0-1.2,0c-1.2,0-2.4,0-3.6,0v-1.2h-1.2c0-1.6,0-3.2,0-4.8h1.2v-1.2c0.6,0,1.8,0,2.4,0
		c0-0.6,0-1.8,0-2.4c0.6,0,1.8,0,2.4,0C296.9,494.4,296.9,497.1,296.9,499.4z M298.1,482.5c-1.1,0-2.5,0-3.6,0c0,0.6,0,1.8,0,2.4
		h1.2v-1.2c0.6,0,1.8,0,2.4,0v1.2h-1.2v1.2c-1.1,0-2.5,0-3.6,0v-1.2h-1.2c0-0.4,0-0.8,0-1.2c0-1.2,0-2.4,0-3.6h1.2v-1.2
		c1.1,0,2.5,0,3.6,0v1.2h1.2C298.1,480.7,298.1,481.9,298.1,482.5z M304.1,481.3h-1.2v-1.2h-1.2c0,1.6,0,3.2,0,4.8h1.2v-1.2h1.2
		c0,0.6,0,1.8,0,2.4c-1.1,0-2.5,0-3.6,0v-1.2h-1.2c0-0.4,0-0.8,0-1.2c0-1.2,0-2.4,0-3.6h1.2v-1.2c1.1,0,2.5,0,3.6,0
		C304.1,479.5,304.1,480.7,304.1,481.3z M311.3,484.9h-1.2v1.2c-1.1,0-2.5,0-3.6,0v-1.2h-1.2c0-1.6,0-3.2,0-4.8h1.2v-1.2
		c0.6,0,1.8,0,2.4,0h1.2v1.2h1.2C311.3,481.7,311.3,483.4,311.3,484.9z M318.6,482.5h-1.2c0,0.6,0,1.8,0,2.4h-1.2v1.2H315v-1.2h-1.2
		c0-0.6,0-1.8,0-2.4h-1.2c0-1.1,0-2.5,0-3.6c0.6,0,1.8,0,2.4,0c0,0.4,0,0.8,0,1.2c0,1.2,0,2.4,0,3.6h1.2c0-1.6,0-3.2,0-4.8
		c0.6,0,1.8,0,2.4,0C318.6,480,318.6,481.5,318.6,482.5z M325.8,482.5c-1.1,0-2.5,0-3.6,0c0,0.6,0,1.8,0,2.4h1.2v-1.2
		c0.6,0,1.8,0,2.4,0v1.2h-1.2v1.2c-1.1,0-2.5,0-3.6,0v-1.2h-1.2c0-1.6,0-3.2,0-4.8h1.2v-1.2c0.6,0,1.8,0,2.4,0h1.2v1.2h1.2
		C325.8,480.7,325.8,481.9,325.8,482.5z M331.8,480.1h-1.2v1.2h-1.2c0,1.6,0,3.2,0,4.8c-0.6,0-1.8,0-2.4,0c0-2.3,0-4.9,0-7.2h1.2
		v1.2h1.2v-1.2c0.6,0,1.8,0,2.4,0V480.1z M339,484.9h-1.2c0,0.6,0,1.8,0,2.4h-1.2v1.2c-0.6,0-1.8,0-2.4,0v-1.2h1.2
		c0-0.6,0-1.8,0-2.4h-1.2v-1.2H333c0-1.6,0-3.2,0-4.8c0.6,0,1.8,0,2.4,0c0,0.4,0,0.8,0,1.2c0,1.2,0,2.4,0,3.6h1.2c0-1.6,0-3.2,0-4.8
		c0.6,0,1.8,0,2.4,0C339,480.9,339,483,339,484.9z M361.8,484.9h-1.2v1.2c-1.1,0-2.5,0-3.6,0v-1.2h-1.2c0-0.4,0-0.8,0-1.2
		c0-1.2,0-2.4,0-3.6h1.2v-1.2c1.1,0,2.5,0,3.6,0v1.2h1.2C361.8,481.7,361.8,483.4,361.8,484.9z"/>
	<path class="st3" d="M347.4,477.7c0,0.6,0,1.8,0,2.4h1.2c0,0.6,0,1.8,0,2.4h1.2c0-0.6,0-1.8,0-2.4h1.2c0-0.6,0-1.8,0-2.4h1.2v-1.2
		c-1.9,0-4.1,0-6,0v1.2H347.4z"/>
	<path class="st5" d="M507.1,43.3H40.7c-6.6,0-12,5.4-12,12V84h490.5V55.4C519.2,48.7,513.8,43.3,507.1,43.3z M54.9,74.3
		c-5.6,0-10.1-4.5-10.1-10.1s4.5-10.1,10.1-10.1S65,58.6,65,64.2S60.5,74.3,54.9,74.3z M84,74.3c-5.6,0-10.1-4.5-10.1-10.1
		S78.4,54.1,84,54.1S94,58.6,94,64.2S89.5,74.3,84,74.3z M113,74.3c-5.6,0-10.1-4.5-10.1-10.1s4.5-10.1,10.1-10.1
		s10.1,4.5,10.1,10.1S118.5,74.3,113,74.3z M467,67c0,4-3.3,7.3-7.3,7.3H148.3c-4,0-7.3-3.3-7.3-7.3v-5.6c0-4,3.3-7.3,7.3-7.3h311.4
		c4,0,7.3,3.3,7.3,7.3V67z"/>
	<path class="st6" d="M506.5,360.5h0.6c8.3,0,15-6.7,15-15v-0.6C522.2,353.5,515.1,360.5,506.5,360.5z"/>
	<path class="st6" d="M25.7,344.9v0.6c0,8.3,6.7,15,15,15h0.6C32.7,360.5,25.7,353.5,25.7,344.9z"/>
	<path class="st6" d="M28.7,84V55.4c0-6.6,5.4-12,12-12h466.4c6.6,0,12,5.4,12,12V84h3V55.4c0-8.3-6.7-15-15-15H40.7
		c-8.3,0-15,6.7-15,15V84H28.7z"/>
	<path class="st2" d="M519.2,87H28.7v257.9c0,7,5.7,12.6,12.6,12.6h465.2c7,0,12.6-5.7,12.6-12.6V87z"/>
	<path class="st6" d="M522.2,298.2v-32.5v-2V84h-3H28.7h-3v260.9c0,8.6,7,15.6,15.6,15.6h465.2c8.6,0,15.6-7,15.6-15.6v-44.6V298.2z
		 M506.5,357.5H41.3c-7,0-12.6-5.7-12.6-12.6V87h490.5v257.9C519.2,351.8,513.5,357.5,506.5,357.5z"/>
	<path class="st2" d="M63,64.2c0-4.5-3.6-8.1-8.1-8.1c-4.4,0-8.1,3.6-8.1,8.1c0,4.4,3.6,8.1,8.1,8.1C59.4,72.3,63,68.6,63,64.2z"/>
	<path class="st6" d="M54.9,54.1c-5.6,0-10.1,4.5-10.1,10.1s4.5,10.1,10.1,10.1S65,69.7,65,64.2S60.5,54.1,54.9,54.1z M46.9,64.2
		c0-4.5,3.6-8.1,8.1-8.1c4.5,0,8.1,3.6,8.1,8.1c0,4.4-3.6,8.1-8.1,8.1C50.5,72.3,46.9,68.6,46.9,64.2z"/>
	<path class="st2" d="M92,64.2c0-4.5-3.6-8.1-8.1-8.1s-8.1,3.6-8.1,8.1c0,4.4,3.6,8.1,8.1,8.1S92,68.6,92,64.2z"/>
	<path class="st6" d="M84,54.1c-5.6,0-10.1,4.5-10.1,10.1S78.4,74.3,84,74.3S94,69.7,94,64.2S89.5,54.1,84,54.1z M75.9,64.2
		c0-4.5,3.6-8.1,8.1-8.1s8.1,3.6,8.1,8.1c0,4.4-3.6,8.1-8.1,8.1S75.9,68.6,75.9,64.2z"/>
	<path class="st2" d="M113,56.1c-4.5,0-8.1,3.6-8.1,8.1c0,4.4,3.6,8.1,8.1,8.1s8.1-3.6,8.1-8.1C121.1,59.7,117.4,56.1,113,56.1z"/>
	<path class="st6" d="M113,54.1c-5.6,0-10.1,4.5-10.1,10.1s4.5,10.1,10.1,10.1s10.1-4.5,10.1-10.1S118.5,54.1,113,54.1z M113,72.3
		c-4.5,0-8.1-3.6-8.1-8.1c0-4.5,3.6-8.1,8.1-8.1s8.1,3.6,8.1,8.1C121.1,68.6,117.4,72.3,113,72.3z"/>
	<path class="st2" d="M459.7,56.1H148.3c-2.9,0-5.3,2.4-5.3,5.3V67c0,2.9,2.4,5.3,5.3,5.3h311.4c2.9,0,5.3-2.4,5.3-5.3v-5.6
		C465,58.5,462.6,56.1,459.7,56.1z"/>
	<path class="st6" d="M459.7,54.1H148.3c-4,0-7.3,3.3-7.3,7.3V67c0,4,3.3,7.3,7.3,7.3h311.4c4,0,7.3-3.3,7.3-7.3v-5.6
		C467,57.4,463.7,54.1,459.7,54.1z M465,67c0,2.9-2.4,5.3-5.3,5.3H148.3c-2.9,0-5.3-2.4-5.3-5.3v-5.6c0-2.9,2.4-5.3,5.3-5.3h311.4
		c2.9,0,5.3,2.4,5.3,5.3V67z"/>
</g>
</svg>
