<?xml version="1.0" encoding="utf-8"?>
<!-- Generator: Adobe Illustrator 25.4.1, SVG Export Plug-In . SVG Version: 6.00 Build 0)  -->
<svg version="1.1" id="Layer_5" xmlns="http://www.w3.org/2000/svg" xmlns:xlink="http://www.w3.org/1999/xlink" x="0px" y="0px"
	 viewBox="0 0 742.9 674.6" style="enable-background:new 0 0 742.9 674.6;" xml:space="preserve">
<style type="text/css">
	.st0{fill:url(#SVGID_1_);}
	.st1{opacity:0.35;fill:url(#SVGID_00000059296793639255387960000004442329093891792271_);enable-background:new    ;}
	.st2{fill:url(#SVGID_00000130646826467319749880000017195097879053644954_);}
	.st3{opacity:0.41;fill:url(#SVGID_00000138563101484156469940000009541915076247939232_);enable-background:new    ;}
	.st4{fill:url(#SVGID_00000090259033013910952410000011016773913462065566_);}
	.st5{fill:url(#SVGID_00000023254145366576995160000005901593955810428325_);}
</style>
<linearGradient id="SVGID_1_" gradientUnits="userSpaceOnUse" x1="-624.1726" y1="232.215" x2="-554.5263" y2="232.215" gradientTransform="matrix(2 0 0 2 1461.0178 -207.9712)">
	<stop  offset="0" style="stop-color:#0C59A4"/>
	<stop  offset="1" style="stop-color:#114A8B"/>
</linearGradient>
<path class="st0" d="M347.3,267c-2.7,1.4-5.4,2.6-8.2,3.7c-9,3.4-18.5,5.1-28,5c-37,0-69.2-25.4-69.2-58.1c0.1-8.9,5-17.1,12.8-21.3
	c-33.4,1.4-42,36.3-42,56.7c0,57.7,53.2,63.6,64.7,63.6c6.2,0,15.5-1.8,21.1-3.6l1-0.3c21.5-7.4,39.9-22,52-41.3
	c0.9-1.5,0.5-3.4-1-4.3C349.5,266.5,348.3,266.5,347.3,267z"/>
<radialGradient id="SVGID_00000062907023988889929190000014648437226698553274_" cx="-585.6958" cy="239.5773" r="37.2581" gradientTransform="matrix(2 0 0 1.9 1461.0178 -197.6246)" gradientUnits="userSpaceOnUse">
	<stop  offset="0.72" style="stop-color:#000000;stop-opacity:0"/>
	<stop  offset="0.95" style="stop-color:#000000;stop-opacity:0.53"/>
	<stop  offset="1" style="stop-color:#000000"/>
</radialGradient>
<path style="opacity:0.35;fill:url(#SVGID_00000062907023988889929190000014648437226698553274_);enable-background:new    ;" d="
	M347.3,267c-2.7,1.4-5.4,2.6-8.2,3.7c-9,3.4-18.5,5.1-28,5c-37,0-69.2-25.4-69.2-58.1c0.1-8.9,5-17.1,12.8-21.3
	c-33.4,1.4-42,36.3-42,56.7c0,57.7,53.2,63.6,64.7,63.6c6.2,0,15.5-1.8,21.1-3.6l1-0.3c21.5-7.4,39.9-22,52-41.3
	c0.9-1.5,0.5-3.4-1-4.3C349.5,266.5,348.3,266.5,347.3,267z"/>
<linearGradient id="SVGID_00000152240723736888854630000010629544063635102603_" gradientUnits="userSpaceOnUse" x1="-587.4231" y1="202.0247" x2="-630.9351" y2="249.4195" gradientTransform="matrix(2 0 0 2 1461.0178 -207.9712)">
	<stop  offset="0" style="stop-color:#1B9DE2"/>
	<stop  offset="0.16" style="stop-color:#1595DF"/>
	<stop  offset="0.67" style="stop-color:#0680D7"/>
	<stop  offset="1" style="stop-color:#0078D4"/>
</linearGradient>
<path style="fill:url(#SVGID_00000152240723736888854630000010629544063635102603_);" d="M249.4,306.8c-7-4.3-13-10-17.8-16.7
	c-20.5-28.1-14.4-67.6,13.8-88.1c2.9-2.1,6.1-4,9.3-5.6c2.4-1.1,6.6-3.2,12.1-3.1c7.9,0.1,15.3,3.8,20.1,10.2
	c3.2,4.2,4.9,9.3,5,14.6c0-0.2,19.1-62.2-62.5-62.2c-34.3,0-62.5,32.5-62.5,61.1c-0.1,15.1,3.1,30.1,9.5,43.8
	c21.5,45.9,74,68.5,122.2,52.4C282,318.2,264.1,316,249.4,306.8L249.4,306.8z"/>
<radialGradient id="SVGID_00000170269188906968104370000002963197394570875010_" cx="-1553.6537" cy="1304.9292" r="55.9535" gradientTransform="matrix(0.3 -1.98 1.6 0.24 -1399.8411 -3115.7881)" gradientUnits="userSpaceOnUse">
	<stop  offset="0.76" style="stop-color:#000000;stop-opacity:0"/>
	<stop  offset="0.95" style="stop-color:#000000;stop-opacity:0.5"/>
	<stop  offset="1" style="stop-color:#000000"/>
</radialGradient>
<path style="opacity:0.41;fill:url(#SVGID_00000170269188906968104370000002963197394570875010_);enable-background:new    ;" d="
	M249.4,306.8c-7-4.3-13-10-17.8-16.7c-20.5-28.1-14.4-67.6,13.8-88.1c2.9-2.1,6.1-4,9.3-5.6c2.4-1.1,6.6-3.2,12.1-3.1
	c7.9,0.1,15.3,3.8,20.1,10.2c3.2,4.2,4.9,9.3,5,14.6c0-0.2,19.1-62.2-62.5-62.2c-34.3,0-62.5,32.5-62.5,61.1
	c-0.1,15.1,3.1,30.1,9.5,43.8c21.5,45.9,74,68.5,122.2,52.4C282,318.2,264.1,316,249.4,306.8L249.4,306.8z"/>
<radialGradient id="SVGID_00000049196542669452615520000005582172318078985345_" cx="-1438.3322" cy="-498.9145" r="79.0748" gradientTransform="matrix(-8.000000e-02 2 -4.26 -0.16 -2053.4399 2952.0044)" gradientUnits="userSpaceOnUse">
	<stop  offset="0" style="stop-color:#35C1F1"/>
	<stop  offset="0.11" style="stop-color:#34C1ED"/>
	<stop  offset="0.23" style="stop-color:#2FC2DF"/>
	<stop  offset="0.31" style="stop-color:#2BC3D2"/>
	<stop  offset="0.67" style="stop-color:#36C752"/>
</radialGradient>
<path style="fill:url(#SVGID_00000049196542669452615520000005582172318078985345_);" d="M285.8,234.5c-0.6,0.8-2.6,2-2.6,4.4
	c0,2,1.3,4,3.7,5.6c11.2,7.8,32.4,6.8,32.5,6.8c8.3,0,16.5-2.3,23.6-6.5c14.7-8.6,23.7-24.3,23.8-41.3c0.2-17.5-6.3-29.1-8.9-34.3
	c-16.6-32.4-52.3-51-91.1-51c-54.7,0-99.2,43.9-100,98.6c0.4-28.5,28.8-51.6,62.5-51.6c2.7,0,18.3,0.3,32.8,7.9
	c12.8,6.7,19.5,14.8,24.1,22.8c4.8,8.3,5.7,18.9,5.7,23.1C291.9,223.1,289.8,229.3,285.8,234.5z"/>
<radialGradient id="SVGID_00000049199615993147632790000016942409514284547462_" cx="-970.4675" cy="-938.9225" r="38.0237" gradientTransform="matrix(0.56 1.92 -1.56 0.46 -566.9023 2473.8289)" gradientUnits="userSpaceOnUse">
	<stop  offset="0" style="stop-color:#66EB6E"/>
	<stop  offset="1" style="stop-color:#66EB6E;stop-opacity:0"/>
</radialGradient>
<path style="fill:url(#SVGID_00000049199615993147632790000016942409514284547462_);" d="M285.8,234.5c-0.6,0.8-2.6,2-2.6,4.4
	c0,2,1.3,4,3.7,5.6c11.2,7.8,32.4,6.8,32.5,6.8c8.3,0,16.5-2.3,23.6-6.5c14.7-8.6,23.7-24.3,23.8-41.3c0.2-17.5-6.3-29.1-8.9-34.3
	c-16.6-32.4-52.3-51-91.1-51c-54.7,0-99.2,43.9-100,98.6c0.4-28.5,28.8-51.6,62.5-51.6c2.7,0,18.3,0.3,32.8,7.9
	c12.8,6.7,19.5,14.8,24.1,22.8c4.8,8.3,5.7,18.9,5.7,23.1C291.9,223.1,289.8,229.3,285.8,234.5z"/>
</svg>
