<svg width="270" height="25" viewBox="0 0 270 25" fill="none" xmlns="http://www.w3.org/2000/svg">
<path fill-rule="evenodd" clip-rule="evenodd" d="M173.708 9.27441L173.319 10.1093L172.477 10.3549H145.365L145.819 7.0807H172.931L173.692 7.32626L173.838 8.16118L173.708 9.27441ZM179.571 2.87336C178.879 2.03376 177.66 1.61279 175.911 1.61279H140.379L137.205 24.5298H143.422L144.623 15.8228H173.935C175.684 15.8228 177.024 15.4018 177.951 14.5622C178.879 13.7203 179.462 12.4504 179.701 10.7478L180.251 6.68779C180.49 4.98521 180.263 3.71295 179.571 2.87336Z" fill="#FF8200"/>
<path fill-rule="evenodd" clip-rule="evenodd" d="M130.499 9.27441L130.11 10.1093L129.268 10.3549H102.156L102.612 7.0807H129.722L130.483 7.32626L130.629 8.16118L130.499 9.27441ZM136.362 2.87336C135.67 2.03376 134.451 1.61279 132.702 1.61279H97.1705L93.9961 24.5298H100.215L101.414 15.8228H130.726C132.475 15.8228 133.815 15.4018 134.743 14.5622C135.67 13.7203 136.253 12.4504 136.492 10.7478L137.042 6.68779C137.281 4.98521 137.054 3.71295 136.362 2.87336Z" fill="#FF8200"/>
<path fill-rule="evenodd" clip-rule="evenodd" d="M259.997 9.27441L259.625 10.1093L258.766 10.3549H231.525L231.978 7.0807H259.22L259.997 7.32626L260.127 8.16118L259.997 9.27441ZM265.939 2.7915C265.282 2.0057 264.097 1.61279 262.392 1.61279H226.537L223.362 24.5298H229.582L230.78 15.7901H257.76C258.602 15.7901 258.982 16.2367 258.894 17.1325L257.857 24.5298H264.079L264.953 18.213L265.018 16.3139L264.565 14.7587L263.428 13.6618L261.487 13.1052C263.021 12.9953 264.153 12.5696 264.886 11.8283C265.622 11.0846 266.096 9.98304 266.311 8.52134L266.573 6.52408C266.809 4.8215 266.601 3.57731 265.939 2.7915Z" fill="#FF8200"/>
<path fill-rule="evenodd" clip-rule="evenodd" d="M223.557 1.61328H183.588L180.414 24.5303H220.383L221.128 19.0624H187.378L187.832 15.7905H218.342L219.087 10.3554H188.577L189.03 7.08118H222.78L223.557 1.61328Z" fill="#FF8200"/>
<path fill-rule="evenodd" clip-rule="evenodd" d="M84.1494 24.531H90.3686L93.543 1.61401H87.3238L84.1494 24.531Z" fill="#FF8200"/>
<path fill-rule="evenodd" clip-rule="evenodd" d="M82.4646 19.0634H49.1683L51.5977 1.61426H45.3785L42.2041 24.5313H81.7196L82.4646 19.0634Z" fill="#FF8200"/>
<path fill-rule="evenodd" clip-rule="evenodd" d="M42.949 1.61426H3.17438L0 24.5313H6.2192L7.41769 15.8243H37.734L38.479 10.3564H8.16039L8.61618 7.08216H42.1716L42.949 1.61426Z" fill="#FF8200"/>
</svg>
