<svg id="Layer_1" data-name="Layer 1" xmlns="http://www.w3.org/2000/svg" xmlns:xlink="http://www.w3.org/1999/xlink" viewBox="0 0 571.57 272.78"><defs><style>.cls-1{fill:none;}.cls-2,.cls-3,.cls-4{fill-rule:evenodd;}.cls-2{fill:url(#linear-gradient);}.cls-29,.cls-3,.cls-31{fill:#fff;}.cls-4{fill:#eb2127;}.cls-5{fill:url(#linear-gradient-2);}.cls-30,.cls-6,.cls-8{isolation:isolate;}.cls-6{opacity:0.35;fill:url(#radial-gradient);}.cls-7{fill:url(#linear-gradient-3);}.cls-8{opacity:0.41;fill:url(#radial-gradient-2);}.cls-9{fill:url(#radial-gradient-3);}.cls-10{fill:url(#radial-gradient-4);}.cls-11{clip-path:url(#clip-path);}.cls-12{fill:#dc4637;}.cls-13{fill:url(#linear-gradient-4);}.cls-14,.cls-28,.cls-30{fill:#3e2823;}.cls-14,.cls-17{fill-opacity:0.15;}.cls-15{fill:#0f9d58;}.cls-16{fill:url(#linear-gradient-5);}.cls-17{fill:#273339;}.cls-18{clip-path:url(#clip-path-6);}.cls-19{fill:#ffce41;}.cls-20{fill:url(#linear-gradient-6);}.cls-21{clip-path:url(#clip-path-9);}.cls-22{fill:url(#radial-gradient-5);}.cls-23{clip-path:url(#clip-path-12);}.cls-24{fill:url(#radial-gradient-6);}.cls-25{fill:url(#radial-gradient-7);}.cls-26{fill:#f2f2f2;}.cls-27{fill:#557ebf;}.cls-28,.cls-31{fill-opacity:0.2;}.cls-29{fill-opacity:0.1;}.cls-30{opacity:0.1;}.cls-32{fill:url(#radial-gradient-8);}</style><linearGradient id="linear-gradient" x1="140.25" y1="316.93" x2="140.25" y2="236.75" gradientTransform="matrix(3.12, 0, 0, -3.12, -2.12, 1029.12)" gradientUnits="userSpaceOnUse"><stop offset="0" stop-color="#f5f5f5"/><stop offset="1" stop-color="#eeeded"/></linearGradient><linearGradient id="linear-gradient-2" x1="111.04" y1="173.4" x2="198.27" y2="173.4" gradientTransform="translate(-10.26 -134.84) scale(2)" gradientUnits="userSpaceOnUse"><stop offset="0" stop-color="#0d5aa4"/><stop offset="1" stop-color="#114b8b"/></linearGradient><radialGradient id="radial-gradient" cx="159.23" cy="184" r="46.67" gradientTransform="translate(-10.26 -136.26) scale(2 1.9)" gradientUnits="userSpaceOnUse"><stop offset="0.72" stop-color="#010101" stop-opacity="0"/><stop offset="0.95" stop-color="#010101" stop-opacity="0.53"/><stop offset="1" stop-color="#010101"/></radialGradient><linearGradient id="linear-gradient-3" x1="157.07" y1="135.58" x2="102.57" y2="194.94" gradientTransform="translate(-10.26 -134.84) scale(2)" gradientUnits="userSpaceOnUse"><stop offset="0" stop-color="#2f9cd7"/><stop offset="0.16" stop-color="#3093d1"/><stop offset="0.67" stop-color="#2e7ec1"/><stop offset="1" stop-color="#2f76bc"/></linearGradient><radialGradient id="radial-gradient-2" cx="-251.51" cy="300.36" r="70.08" gradientTransform="matrix(0.3, -1.98, 1.6, 0.24, -181.68, -336.62)" gradientUnits="userSpaceOnUse"><stop offset="0.76" stop-color="#010101" stop-opacity="0"/><stop offset="0.95" stop-color="#010101" stop-opacity="0.5"/><stop offset="1" stop-color="#010101"/></radialGradient><radialGradient id="radial-gradient-3" cx="106.66" cy="-270.87" r="99.04" gradientTransform="matrix(-0.08, 2, -4.26, -0.16, -965.72, -171.58)" gradientUnits="userSpaceOnUse"><stop offset="0" stop-color="#39c1f1"/><stop offset="0.11" stop-color="#38c1ec"/><stop offset="0.23" stop-color="#30c2df"/><stop offset="0.31" stop-color="#35c1d0"/><stop offset="0.67" stop-color="#50b855"/></radialGradient><radialGradient id="radial-gradient-4" cx="344.71" cy="-191.89" r="47.62" gradientTransform="matrix(0.56, 1.92, -1.56, 0.46, -103.1, -459.1)" gradientUnits="userSpaceOnUse"><stop offset="0" stop-color="#81c566"/><stop offset="1" stop-color="#81c566" stop-opacity="0"/></radialGradient><clipPath id="clip-path" transform="translate(10.13 -27.61)"><circle class="cls-1" cx="126.26" cy="164" r="125.03"/></clipPath><linearGradient id="linear-gradient-4" x1="31.55" y1="195.8" x2="106.14" y2="239.37" gradientTransform="matrix(1, 0, 0, -1, 0, 330)" gradientUnits="userSpaceOnUse"><stop offset="0" stop-color="#a52a22" stop-opacity="0.6"/><stop offset="0.66" stop-color="#a52a22" stop-opacity="0"/></linearGradient><linearGradient id="linear-gradient-5" x1="147.4" y1="68.69" x2="64.52" y2="117.23" gradientTransform="matrix(1, 0, 0, -1, 0, 330)" gradientUnits="userSpaceOnUse"><stop offset="0" stop-color="#0d562b" stop-opacity="0.4"/><stop offset="0.33" stop-color="#0d562b" stop-opacity="0"/></linearGradient><clipPath id="clip-path-6" transform="translate(10.13 -27.61)"><polygon class="cls-1" points="1.24 289.03 120.25 289.03 175.49 233.79 175.49 192.42 77.05 192.42 1.24 62.39 1.24 289.03"/></clipPath><linearGradient id="linear-gradient-6" x1="163" y1="231.63" x2="183.87" y2="140.24" gradientTransform="matrix(1, 0, 0, -1, 0, 330)" gradientUnits="userSpaceOnUse"><stop offset="0" stop-color="#e86324" stop-opacity="0.3"/><stop offset="0.66" stop-color="#e86324" stop-opacity="0"/></linearGradient><clipPath id="clip-path-9" transform="translate(10.13 -27.61)"><polygon class="cls-1" points="126.27 107.17 175.49 192.42 120.25 289.03 251.29 289.03 251.29 107.17 126.27 107.17"/></clipPath><radialGradient id="radial-gradient-5" cx="696.83" cy="222.9" r="119.45" gradientTransform="matrix(1, 0, 0, -1, -576, 330)" gradientUnits="userSpaceOnUse"><stop offset="0" stop-color="#3e2823" stop-opacity="0.2"/><stop offset="1" stop-color="#3e2823" stop-opacity="0"/></radialGradient><clipPath id="clip-path-12" transform="translate(10.13 -27.61)"><polygon class="cls-1" points="21.09 38.98 21.09 96.29 77.05 192.42 126.27 107.17 251.29 107.17 251.29 38.98 21.09 38.98"/></clipPath><radialGradient id="radial-gradient-6" cx="596.95" cy="233.45" r="110.88" xlink:href="#radial-gradient-5"/><radialGradient id="radial-gradient-7" cx="702.04" cy="165.8" r="124.84" gradientTransform="matrix(1, 0, 0, -1, -576, 330)" gradientUnits="userSpaceOnUse"><stop offset="0" stop-color="#273339" stop-opacity="0.2"/><stop offset="1" stop-color="#273339" stop-opacity="0"/></radialGradient><radialGradient id="radial-gradient-8" cx="38.58" cy="256.9" r="251.11" gradientTransform="matrix(1, 0, 0, -1, 10.13, 302.39)" gradientUnits="userSpaceOnUse"><stop offset="0" stop-color="#fff" stop-opacity="0.1"/><stop offset="1" stop-color="#fff" stop-opacity="0"/></radialGradient></defs><g id="g6661"><g id="g84"><path id="path86" class="cls-2" d="M561.44,164A125.28,125.28,0,1,1,436.16,38.73,125.27,125.27,0,0,1,561.44,164" transform="translate(10.13 -27.61)"/></g><path id="path94" class="cls-3" d="M555.37,164A119.21,119.21,0,1,1,436.16,44.79,119.21,119.21,0,0,1,555.37,164" transform="translate(10.13 -27.61)"/><path id="path100" class="cls-4" d="M516.81,112.32l-67,65.58v81.52c0,1.47-6.36,2.65-13.61,2.74-6.94-.09-13.6-1.27-13.6-2.74V177.9l-67-65.58c-1.08-1.07,2.35-6.16,7.63-11.45s10.48-8.71,11.45-7.63l61.47,60,61.46-60c1.08-1.08,6.17,2.35,11.45,7.63s8.81,10.38,7.83,11.45" transform="translate(10.13 -27.61)"/></g><path class="cls-5" d="M380.47,225.17a90.67,90.67,0,0,1-10.32,4.61A99.79,99.79,0,0,1,335,236.1c-46.31,0-86.64-31.85-86.64-72.72a30.8,30.8,0,0,1,16.07-26.72c-41.88,1.76-52.64,45.4-52.64,71,0,72.29,66.63,79.62,81,79.62,7.74,0,19.42-2.25,26.42-4.46l1.28-.43a125.59,125.59,0,0,0,65.17-51.67,3.91,3.91,0,0,0-5.2-5.52Z" transform="translate(10.13 -27.61)"/><path class="cls-6" d="M380.47,225.17a90.67,90.67,0,0,1-10.32,4.61A99.79,99.79,0,0,1,335,236.1c-46.31,0-86.64-31.85-86.64-72.72a30.8,30.8,0,0,1,16.07-26.72c-41.88,1.76-52.64,45.4-52.64,71,0,72.29,66.63,79.62,81,79.62,7.74,0,19.42-2.25,26.42-4.46l1.28-.43a125.59,125.59,0,0,0,65.17-51.67,3.91,3.91,0,0,0-5.2-5.52Z" transform="translate(10.13 -27.61)"/><path class="cls-7" d="M257.82,275a77.59,77.59,0,0,1-22.25-20.88,79,79,0,0,1,28.89-117.42c3.06-1.44,8.27-4,15.21-3.92a31.66,31.66,0,0,1,25.14,12.72A31.19,31.19,0,0,1,311,163.72c0-.2,23.94-77.89-78.28-77.89-43,0-78.28,40.77-78.28,76.53a127.38,127.38,0,0,0,11.85,54.8,125.26,125.26,0,0,0,153,65.67A74,74,0,0,1,257.91,275Z" transform="translate(10.13 -27.61)"/><path class="cls-8" d="M257.82,275a77.59,77.59,0,0,1-22.25-20.88,79,79,0,0,1,28.89-117.42c3.06-1.44,8.27-4,15.21-3.92a31.66,31.66,0,0,1,25.14,12.72A31.19,31.19,0,0,1,311,163.72c0-.2,23.94-77.89-78.28-77.89-43,0-78.28,40.77-78.28,76.53a127.38,127.38,0,0,0,11.85,54.8,125.26,125.26,0,0,0,153,65.67A74,74,0,0,1,257.91,275Z" transform="translate(10.13 -27.61)"/><path class="cls-9" d="M303.42,184.39c-.79,1-3.23,2.44-3.23,5.54,0,2.55,1.66,5,4.62,7.07,14.07,9.79,40.6,8.49,40.67,8.49a58.2,58.2,0,0,0,29.62-8.17,60,60,0,0,0,29.77-51.74c.26-21.93-7.83-36.51-11.09-43C373,62.05,328.28,38.73,279.61,38.73A125.25,125.25,0,0,0,154.36,162.21c.47-35.75,36-64.63,78.28-64.63,3.43,0,23,.34,41.1,9.86,16,8.39,24.37,18.53,30.19,28.58,6.05,10.44,7.12,23.63,7.12,28.88S308.37,178,303.42,184.39Z" transform="translate(10.13 -27.61)"/><path class="cls-10" d="M303.42,184.39c-.79,1-3.23,2.44-3.23,5.54,0,2.55,1.66,5,4.62,7.07,14.07,9.79,40.6,8.49,40.67,8.49a58.2,58.2,0,0,0,29.62-8.17,60,60,0,0,0,29.77-51.74c.26-21.93-7.83-36.51-11.09-43C373,62.05,328.28,38.73,279.61,38.73A125.25,125.25,0,0,0,154.36,162.21c.47-35.75,36-64.63,78.28-64.63,3.43,0,23,.34,41.1,9.86,16,8.39,24.37,18.53,30.19,28.58,6.05,10.44,7.12,23.63,7.12,28.88S308.37,178,303.42,184.39Z" transform="translate(10.13 -27.61)"/><g class="cls-11"><path class="cls-12" d="M21.09,39V192.42h56l49.21-85.25h125V39Z" transform="translate(10.13 -27.61)"/><path class="cls-13" d="M21.09,39V192.42h56l49.21-85.25h125V39Z" transform="translate(10.13 -27.61)"/></g><g class="cls-11"><path class="cls-14" d="M78.4,191.92l-56.59-97L21,96.29l56.17,96.33Z" transform="translate(10.13 -27.61)"/></g><g class="cls-11"><path class="cls-15" d="M1.24,289h119l55.23-55.24V192.42H77.05L1.24,62.39Z" transform="translate(10.13 -27.61)"/><path class="cls-16" d="M1.24,289h119l55.23-55.24V192.42H77.05L1.24,62.39Z" transform="translate(10.13 -27.61)"/></g><g class="cls-11"><path class="cls-17" d="M174.34,194.31l-1.18-.68L118.62,289h1.64l54.13-94.68Z" transform="translate(10.13 -27.61)"/></g><g class="cls-11"><g class="cls-18"><path class="cls-19" d="M126.26,107.17l49.23,85.25L120.26,289h131V107.17Z" transform="translate(10.13 -27.61)"/><path class="cls-20" d="M126.26,107.17l49.23,85.25L120.26,289h131V107.17Z" transform="translate(10.13 -27.61)"/></g></g><g class="cls-11"><path class="cls-19" d="M126.26,107.17l49.23,85.25L120.26,289h131V107.17Z" transform="translate(10.13 -27.61)"/><path class="cls-20" d="M126.26,107.17l49.23,85.25L120.26,289h131V107.17Z" transform="translate(10.13 -27.61)"/></g><g class="cls-11"><g class="cls-21"><path class="cls-12" d="M21.09,39V192.42h56l49.21-85.25h125V39Z" transform="translate(10.13 -27.61)"/><path class="cls-13" d="M21.09,39V192.42h56l49.21-85.25h125V39Z" transform="translate(10.13 -27.61)"/></g></g><g class="cls-11"><path class="cls-22" d="M126.26,107.17v29.77l111.39-29.77Z" transform="translate(10.13 -27.61)"/></g><g class="cls-11"><g class="cls-23"><path class="cls-15" d="M1.24,289h119l55.23-55.24V192.42H77.05L1.24,62.39Z" transform="translate(10.13 -27.61)"/><path class="cls-16" d="M1.24,289h119l55.23-55.24V192.42H77.05L1.24,62.39Z" transform="translate(10.13 -27.61)"/></g></g><g class="cls-11"><path class="cls-24" d="M21.09,96.45l81.33,81.32L77.05,192.42Z" transform="translate(10.13 -27.61)"/></g><g class="cls-11"><path class="cls-25" d="M120.34,288.87l29.78-111.1,25.37,14.65Z" transform="translate(10.13 -27.61)"/></g><g class="cls-11"><circle class="cls-26" cx="136.39" cy="136.39" r="56.83"/><circle class="cls-27" cx="136.39" cy="136.39" r="45.46"/></g><g class="cls-11"><path class="cls-28" d="M126.26,105.75a56.84,56.84,0,0,0-56.83,56.83V164a56.84,56.84,0,0,1,56.83-56.83h125v-1.42Z" transform="translate(10.13 -27.61)"/><path class="cls-29" d="M175.42,192.42a56.75,56.75,0,0,1-98.33,0h0l-75.8-130v1.42l75.81,130h.06a56.75,56.75,0,0,0,98.33,0h.07v-1.42Z" transform="translate(10.13 -27.61)"/><path class="cls-30" d="M127.69,107.17c-.25,0-.47,0-.71,0a56.79,56.79,0,0,1,0,113.57c.24,0,.46,0,.71,0a56.83,56.83,0,1,0,0-113.66Z" transform="translate(10.13 -27.61)"/><path class="cls-31" d="M176,194.31a56.63,56.63,0,0,0,5-45.54,56.27,56.27,0,0,1-5.49,43.61l0,.05L120.26,289h1.64L176,194.36Z" transform="translate(10.13 -27.61)"/></g><g class="cls-11"><path class="cls-31" d="M126.26,40.4a125,125,0,0,1,125,124.31c0-.24,0-.47,0-.71a125,125,0,0,0-250,0c0,.24,0,.47,0,.71A125,125,0,0,1,126.26,40.4Z" transform="translate(10.13 -27.61)"/><path class="cls-14" d="M126.26,287.61a125,125,0,0,0,125-124.32c0,.24,0,.47,0,.71a125,125,0,1,1-250,0c0-.24,0-.47,0-.71A125,125,0,0,0,126.26,287.61Z" transform="translate(10.13 -27.61)"/></g><circle class="cls-32" cx="136.39" cy="136.39" r="125.03"/><path class="cls-1" d="M-10.13,27.61H262.66V300.4H-10.13Z" transform="translate(10.13 -27.61)"/></svg>