<?xml version="1.0" encoding="utf-8"?>
<!-- Generator: Adobe Illustrator 25.4.1, SVG Export Plug-In . SVG Version: 6.00 Build 0)  -->
<svg version="1.1" id="Layer_4" xmlns="http://www.w3.org/2000/svg" xmlns:xlink="http://www.w3.org/1999/xlink" x="0px" y="0px"
	 viewBox="0 0 742.9 674.6" style="enable-background:new 0 0 742.9 674.6;" xml:space="preserve">
<style type="text/css">
	.st0{fill-rule:evenodd;clip-rule:evenodd;fill:url(#path86_00000129169517903856325570000000478498710481305744_);}
	.st1{fill-rule:evenodd;clip-rule:evenodd;fill:#FFFFFF;}
	.st2{fill-rule:evenodd;clip-rule:evenodd;fill:#EC1C24;}
</style>
<g id="g6661" transform="matrix(11.267595,0,0,11.267595,-6140.8393,-811.26684)">
	<g id="g84" transform="matrix(0.277344,0,0,0.277344,545,72)">
		
			<linearGradient id="path86_00000124852947143694866840000003772189673242475697_" gradientUnits="userSpaceOnUse" x1="-410.8097" y1="86.7838" x2="-410.8097" y2="150.7969" gradientTransform="matrix(9.7656 0 0 9.7656 4097.6089 -809.6887)">
			<stop  offset="9.999999e-08" style="stop-color:#F5F5F6"/>
			<stop  offset="1" style="stop-color:#EDEDEE"/>
		</linearGradient>
		
			<path id="path86" vector-effect="none" style="fill-rule:evenodd;clip-rule:evenodd;fill:url(#path86_00000124852947143694866840000003772189673242475697_);" d="
			M117.8,69.8c0,17.7-14.3,32-32,32s-32-14.3-32-32s14.3-32,32-32S117.8,52.1,117.8,69.8"/>
	</g>
	<path id="path94" vector-effect="none" class="st1" d="M577.2,91.4c0,4.7-3.8,8.4-8.4,8.4s-8.4-3.8-8.4-8.4c0-4.7,3.8-8.4,8.4-8.4
		S577.2,86.7,577.2,91.4"/>
	<path id="path100" vector-effect="none" class="st2" d="M574.5,87.7l-4.8,4.7v5.8c0,0.1-0.4,0.2-1,0.2c-0.5,0-1-0.1-1-0.2v-5.8
		l-4.8-4.7c-0.1-0.1,0.2-0.4,0.5-0.8s0.8-0.6,0.8-0.5l4.4,4.3l4.3-4.3c0.1-0.1,0.4,0.2,0.8,0.5S574.6,87.6,574.5,87.7"/>
</g>
<g id="g1686" transform="translate(-374.00488,421.48166)">
</g>
</svg>
